<mxfile host="65bd71144e">
    <diagram id="_0PWpKskcC4PVD-3ensn" name="Page-1">
        <mxGraphModel dx="1130" dy="187" grid="1" gridSize="10" guides="1" tooltips="1" connect="1" arrows="1" fold="1" page="1" pageScale="1" pageWidth="827" pageHeight="1169" background="#FFFFFF" math="0" shadow="0">
            <root>
                <mxCell id="0"/>
                <mxCell id="1" parent="0"/>
                <mxCell id="27" style="edgeStyle=none;html=1;exitX=1;exitY=0.5;exitDx=0;exitDy=0;entryX=0;entryY=0.5;entryDx=0;entryDy=0;labelBorderColor=none;strokeColor=#000000;fontSize=12;fontColor=#000000;endSize=11;startSize=10;jumpSize=6;shadow=0;sourcePerimeterSpacing=0;strokeWidth=3;" parent="1" source="24" target="2" edge="1">
                    <mxGeometry relative="1" as="geometry"/>
                </mxCell>
                <mxCell id="28" value="" style="group" parent="1" vertex="1" connectable="0">
                    <mxGeometry x="397" y="254" width="142" height="55" as="geometry"/>
                </mxCell>
                <mxCell id="24" value="Input Stage" style="whiteSpace=wrap;html=1;labelBackgroundColor=none;strokeColor=#36393d;fontSize=15;fillColor=#eeeeee;fontColor=#000000;container=1;" parent="28" vertex="1" collapsed="1">
                    <mxGeometry x="12" y="25" width="130" height="30" as="geometry">
                        <mxRectangle x="11" y="24.5" width="80" height="47" as="alternateBounds"/>
                    </mxGeometry>
                </mxCell>
                <mxCell id="25" value="&lt;font style=&quot;font-size: 12px;&quot;&gt;Input.v&lt;/font&gt;" style="text;html=1;align=center;verticalAlign=middle;resizable=0;points=[];autosize=1;strokeColor=none;fillColor=none;fontSize=15;fontColor=#000000;container=1;" parent="28" vertex="1">
                    <mxGeometry width="60" height="30" as="geometry"/>
                </mxCell>
                <mxCell id="30" style="edgeStyle=none;sketch=0;jumpSize=6;html=1;entryX=0;entryY=0.5;entryDx=0;entryDy=0;shadow=0;labelBorderColor=none;strokeColor=#000000;strokeWidth=3;fontSize=17;fontColor=#000000;startSize=10;endSize=11;startArrow=none;" parent="1" source="32" target="24" edge="1">
                    <mxGeometry relative="1" as="geometry">
                        <mxPoint x="266" y="294" as="sourcePoint"/>
                    </mxGeometry>
                </mxCell>
                <mxCell id="51" style="edgeStyle=none;sketch=0;jumpSize=6;html=1;entryX=0;entryY=0.25;entryDx=0;entryDy=0;shadow=0;labelBorderColor=none;strokeColor=#000000;strokeWidth=1;fontSize=10;fontColor=#000000;startArrow=none;startFill=0;endArrow=classic;endFill=1;startSize=10;endSize=11;sourcePerimeterSpacing=0;" parent="1" source="35" target="49" edge="1">
                    <mxGeometry relative="1" as="geometry"/>
                </mxCell>
                <mxCell id="35" value="Ones-Counter" style="whiteSpace=wrap;html=1;labelBackgroundColor=none;strokeColor=#36393d;fontSize=16;fillColor=#eeeeee;verticalAlign=middle;fontColor=#000000;align=center;" parent="1" vertex="1">
                    <mxGeometry x="967" y="334" width="120" height="40" as="geometry"/>
                </mxCell>
                <mxCell id="36" style="edgeStyle=none;sketch=0;jumpSize=6;html=1;exitX=1;exitY=0.5;exitDx=0;exitDy=0;entryX=0;entryY=0.5;entryDx=0;entryDy=0;shadow=0;labelBorderColor=none;strokeColor=#000000;strokeWidth=3;fontSize=16;fontColor=#000000;startSize=10;endSize=11;sourcePerimeterSpacing=0;" parent="1" source="4" target="35" edge="1">
                    <mxGeometry relative="1" as="geometry"/>
                </mxCell>
                <mxCell id="38" style="edgeStyle=none;sketch=0;jumpSize=6;html=1;shadow=0;labelBorderColor=none;strokeColor=#000000;strokeWidth=3;fontSize=16;fontColor=#000000;startSize=10;endSize=11;sourcePerimeterSpacing=0;endArrow=none;endFill=0;startArrow=classic;startFill=1;exitX=0;exitY=0.25;exitDx=0;exitDy=0;" parent="1" source="37" target="32" edge="1">
                    <mxGeometry relative="1" as="geometry">
                        <Array as="points">
                            <mxPoint x="325" y="460"/>
                        </Array>
                    </mxGeometry>
                </mxCell>
                <mxCell id="37" value="Coarse Counter" style="whiteSpace=wrap;html=1;labelBackgroundColor=none;strokeColor=#36393d;fontSize=16;fillColor=#eeeeee;verticalAlign=middle;fontColor=#000000;align=center;" parent="1" vertex="1">
                    <mxGeometry x="967" y="440" width="133" height="100" as="geometry"/>
                </mxCell>
                <mxCell id="53" value="Out" style="edgeStyle=none;sketch=0;jumpSize=6;html=1;shadow=0;labelBorderColor=none;strokeColor=#000000;strokeWidth=1;fontSize=14;fontColor=#000000;startArrow=none;startFill=0;endArrow=classic;endFill=1;startSize=10;endSize=11;sourcePerimeterSpacing=0;labelBackgroundColor=#FFFFFF;" parent="1" source="49" edge="1">
                    <mxGeometry relative="1" as="geometry">
                        <mxPoint x="1490" y="374" as="targetPoint"/>
                    </mxGeometry>
                </mxCell>
                <mxCell id="49" value="Merge" style="whiteSpace=wrap;html=1;labelBackgroundColor=none;strokeColor=#36393d;fontSize=16;fillColor=#eeeeee;verticalAlign=middle;fontColor=#000000;align=center;" parent="1" vertex="1">
                    <mxGeometry x="1320" y="334" width="100" height="80" as="geometry"/>
                </mxCell>
                <mxCell id="32" value="&lt;b&gt;Hit&lt;/b&gt;" style="text;html=1;align=center;verticalAlign=middle;resizable=0;points=[];autosize=1;strokeColor=none;fillColor=none;fontSize=17;fontColor=#000000;" parent="1" vertex="1">
                    <mxGeometry x="300" y="279" width="50" height="30" as="geometry"/>
                </mxCell>
                <mxCell id="55" value="" style="group" parent="1" vertex="1" connectable="0">
                    <mxGeometry x="586" y="220" width="310" height="184" as="geometry"/>
                </mxCell>
                <mxCell id="20" value="" style="whiteSpace=wrap;html=1;labelBackgroundColor=none;fontColor=#000000;dashed=1;fillColor=none;strokeColor=#000000;align=left;container=0;" parent="55" vertex="1">
                    <mxGeometry y="30" width="310" height="154" as="geometry"/>
                </mxCell>
                <mxCell id="13" style="edgeStyle=none;html=1;exitX=0;exitY=1;exitDx=0;exitDy=0;fontColor=#000000;strokeColor=#000000;" parent="55" source="2" edge="1">
                    <mxGeometry relative="1" as="geometry">
                        <mxPoint x="29.829787234042556" y="114" as="targetPoint"/>
                    </mxGeometry>
                </mxCell>
                <mxCell id="2" value="Delay Chain" style="rounded=0;whiteSpace=wrap;html=1;fillColor=#eeeeee;strokeColor=#36393d;labelBackgroundColor=none;fontColor=#000000;container=0;" parent="55" vertex="1">
                    <mxGeometry x="30" y="54" width="250" height="40" as="geometry"/>
                </mxCell>
                <mxCell id="4" value="Sample Stop (Flip-Flops)" style="rounded=0;whiteSpace=wrap;html=1;fillColor=#eeeeee;strokeColor=#36393d;labelBackgroundColor=none;fontColor=#000000;container=0;" parent="55" vertex="1">
                    <mxGeometry x="30" y="114" width="250" height="40" as="geometry"/>
                </mxCell>
                <mxCell id="10" style="edgeStyle=none;html=1;exitX=1;exitY=1;exitDx=0;exitDy=0;entryX=1;entryY=0;entryDx=0;entryDy=0;fontColor=#000000;strokeColor=#000000;" parent="55" source="2" target="4" edge="1">
                    <mxGeometry relative="1" as="geometry"/>
                </mxCell>
                <mxCell id="11" style="edgeStyle=none;html=1;exitX=0.75;exitY=1;exitDx=0;exitDy=0;entryX=0.75;entryY=0;entryDx=0;entryDy=0;fontColor=#000000;strokeColor=#000000;" parent="55" source="2" target="4" edge="1">
                    <mxGeometry relative="1" as="geometry"/>
                </mxCell>
                <mxCell id="12" style="edgeStyle=none;html=1;exitX=0.25;exitY=1;exitDx=0;exitDy=0;entryX=0.25;entryY=0;entryDx=0;entryDy=0;fontColor=#000000;strokeColor=#000000;" parent="55" source="2" target="4" edge="1">
                    <mxGeometry relative="1" as="geometry"/>
                </mxCell>
                <mxCell id="15" value=". . . . . . ." style="text;html=1;align=center;verticalAlign=middle;resizable=0;points=[];autosize=1;strokeColor=none;fillColor=none;fontColor=#000000;container=0;fontSize=15;fontStyle=1" parent="55" vertex="1">
                    <mxGeometry x="110" y="84" width="80" height="30" as="geometry"/>
                </mxCell>
                <mxCell id="18" value="En" style="text;html=1;align=center;verticalAlign=middle;resizable=0;points=[];autosize=1;strokeColor=none;fillColor=none;fontColor=#000000;container=0;" parent="55" vertex="1">
                    <mxGeometry x="20" y="119" width="40" height="30" as="geometry"/>
                </mxCell>
                <mxCell id="21" value="Fine.v" style="text;html=1;align=center;verticalAlign=middle;resizable=0;points=[];autosize=1;strokeColor=none;fillColor=none;fontColor=#000000;container=0;" parent="55" vertex="1">
                    <mxGeometry width="60" height="30" as="geometry"/>
                </mxCell>
                <mxCell id="56" value="" style="shape=image;verticalLabelPosition=bottom;labelBackgroundColor=default;verticalAlign=top;aspect=fixed;imageAspect=0;image=data:image/png,iVBORw0KGgoAAAANSUhEUgAAA1oAAAJuCAYAAACpPnORAAAAAXNSR0IArs4c6QAAAARnQU1BAACxjwv8YQUAAAAJcEhZcwAADsMAAA7DAcdvqGQAAP+lSURBVHhe7J0FgBVV28f/M3Pv7tISUiqgqAiKiYJYYH12d3f3q6++Btjd3Yq+vnZht2CLBQpKSHfnxr0T3/M/M7NclmUB2bh37/NbDnfmzDlnTs95TlqBAEVRFEVRFEVRFKXasKNfRVEURVEURVEUpZpQQUtRFEVRFEVRFKWaUUFLURRFURRFURSlmlFBS1EURVEURVEUpZpRQUtRFEVRFEVRFKWaUUFLURRFURRFURSlmlFBS1EURVEURVEUpZpRQUtRFEVRFEVRFKWa0QOLsxAmSeC7kjqWXFuAH8B3LCRtJzKhKIqiKIqiKEo2kzeCli/B/HNhCmVBUu5EkJE/0q5IVKEjMo0INDUMo5pv8eVPoh62tfyAIs0U+z6+mOljalkaHYoS2KVFgOkpH+s3bhCZioQxccfmoGQt+F1RFEVRFEVRlFUnb6YOUjBpIQLVQ2MWoefgxaKKMVoEr4aWx6ehoRomCHykfQ8/zvHhccSqEha7Lv7vq8X4YW4JejW3MDtVil2/L8WNI9PmuRGwRLkijA2Z5YrP6X9FURRFURRFUbKJvBG0LPlrW2CjZ4sCEU0sMzVvt7UL0SSRNONLvghBgQgv/E2Lhi/Xns8pfIHRo/KiX9cTsyLseGKGwpMvwhNHzIw52pFfo7/MbziGNqk4jStHlHJYK7K/rJD32PgUZqaAK7oUoGvDJI5Ztwke27wBFmTIU/TbUxNL8PUCum2H76Y/jf/FX+XvC93mK+gPj3r0D80Zs57ci98jf4RhCN2q6C9FURRFURRFUVadvBG0bFtELduGbXGdkwgR8muuLAobRgdpTuoTAcx3U5ibFgEErvxFAgkdkf9ccy3Py1IicLkiLFFmotDF0SUa8YwARWEHYtajeRHE0vKSGaUu9v4hnAbImDfCkXF4Kb8ttDC+xMJ703zxYmD8vWlTB31bOUb4ofp4ThqX/CGSlx8KjFRGwJL3LHHT4jdXhEXRixynwMVLT57NKE1HYRCNwIqEPfGv56FMwrMglTbuMPSKoiiKoiiKovwz8kbQqhQJvYME3p9Zig0/XoxNPl2CW0ansOWgYqz7YTHuHFUmghkwK2Xj2J+WYJNPFuGUX4px3K8pbPp5CbqKGjy71Ky7GlcM7Pr1Imz4WTEeGe9hxMIA24g7nT8rxXOTfJSkXZwytFjMpTGzOMCRP6fx5IQlFONCv0R0biDCk/wd87OLY34pw5C5pUZYO26dAqRFqvtqThnOEn1XBKMXpro46udSjFmSwtCFKZw4tAz3j0ljx6+K0XPQEoxaRKHJR7EIjRcNL8HWovf29AB7fFOCHQeXoM83S8SfFCUDPD8ljcOHlOCh8S76fluCycU6JVFRFEVRFEVR/in5LWhxQqFIUnu1LMSk0gATSwJ0aWThmx0bIbAC3D+OkwxttCty0KNpEmPLbGPu2c0b4uUeBZhcZuGU3ziqZaOz2GtbaGNisYUFroWujYFmSccILItFZmnkODi3QyMRmmy0bmjjlR42Tu3QUAS9ZTeyOL9zAbo1tuCJ9mtTPOzwdQqH/ViGha4nPrGwfYsEdm1ji/8SInw5+F+PIqzfKIn9vkvj61kuztmgEKd1TGLYIgvXjqTf0rjn7xI8Oi6NvVsX4OQONnZrnRDBzMf1mwTYpElChLc0zpFwnNXJweWdHRHoIIJlKvKRoiiKoiiKoiirS54LWiGWI4ILZ9KJ2LNt80KsVQg4toMF6aUb+vGekwS7NSlEYcLGdq0KzGjRhFJg+KKU2BUxSGKT41EkwamKQbQduziSSDhwnPipRLzVAAXJBGx72SRoJla+FEHvwo42CuTdPjx8MB04eIiLlJVCQoQ6TnrkVMBA7CacAhSIOritjU0aix8sH5NKODXQgshP4o8kRi/mGJkjgh+f8x0BUr6HL2YnJFwBHhnPqY6cOpjAX8UJiQ8LP8xzMbU4Le+pfNMORVEURVEURVFWTB4KWrGoszJWbI7iUlIklgYicFFCm5MWAcYYDwUps/6Jv6HmMsTPVsSfi9JoIs7e0b0Iv/YpwvHrFsJ2fPw2XwSjmVzbRcmProg74cvMuq37Nk/g/A0Kcc6wUpRUWPjVp1VCDLmYlbbg+BZmekChuLN7K5HqRHCbUCL+lvD8scjFiAUuLtkggZd6NEADEcgURVEURVEURVl98k7Q4vm/FIhWhVBQWt6skW/kP9cN1zE1TQTwLB+WCC3lgpQZIquwoUQoIy01Uwn/nSpu2T6STgKbNEniyS2SuLhzAoHozUyFOwwa25EQx/VV3Mzihr9cHPZLMfptVIRNmyQkYfk8NHNchwI8sXkBBk4twbVjSvHRtDSe2TqJ3i05BTFA06Ql7tpoXQAc1M7Coe0LcFD7pIRLBDREo3KKoiiKoiiKoqwyeSNome3L/VAocSj/iIDBe+62x+3NjWBEoUX+ynfrkx/uGJg5fW5J2jNuTV2SQtpOoJUIJ92bMhptNEqIsCX20+LmXM/HtGIPtkh21ONuhgkRizi9kO5y7dTk4rS4v6wwNqnYxYAJLnxuIU8xSuz3XMtCI9vBbq0cM9WwyExLFEFP7M4oTWH0ohRuHuch6SaQAjfiYPAoPHFKoIvZpR6emezitV5FuGyDAny/cyMc3K5QPCKSn2Vh/1YBbHHw0QkeZpfZ4q6LhyeUoVTCLp5QFEVRFEVRFGU1ca4Vout6jStCw7fzUnhuYgqjSiioBGiW9NBWBKUf5qfx6jSRKEQK6tY4jSlp4GUxx+0nNmtiYePGDn6cF+CT2SkzUvT7IhfPTLQwN1WGR7oXYsvmRWawqsgO8M4UDz8v9DFhsYdFgYepIrgkLB97tkqiXZG8a3Za7Hv4a7GF7dYK0KrQiracD3l/podhCzx8I35NiT9+WxTgsfFp3L5pAbZrWWjknhYFaXw4Dfh5AcW7AH3WdvD+1DSmpuW9S4B9Wtv4eK6LBWWhEPjTAhePjgswZJ6Pd2YFeGGSj8+muyhMBOjSuABbNU9g3OIUBs318ciEFN6d4eL0dYH1mzQQOWzVRv8URVEURVEURVmKyBtmKKfeYybc8R/lqejC57la8huIgGVF0/y4VomH+FoceiKUM+TRfX97uHREMU7vlMQd3QoxQgSpTRol0STJZVNiiO7J38wyC9NKAxFwuF8hR4zoLsUhjppxqp6LeWUJtCgUHfFGgkbidwkzy1y0SjookWe/zHfNoNO2zRwU0Zz417gj/1LyfLG8sznXUfHQYvlbmHbQrIDbYARY5NpIyruLxOnRi13s+V2Z8Zc534vvEz/bvo8/d2uI9RsleCvmIG4E2LyZBUfsJmxOHVQURVEURVEUZXXJG0FrTblndBqX/lmMMzoW4JHNi4ygUlMwSTiSlJk0azKy9NDfxXh1Sgq3dmsogqENbtz+45wSnDsM+KlPAbqLtOg4S4U9RVEURVEURVHWDG1dr4S068FLl2GeWwLbt7Eo7SLlufC8dDi6VAPEQhV/Y7UmzBE/jy+WpLY9dCoK0K7QwvTiAKd3srDlWoUqZCmKoiiKoihKNaMjWivB9QNML0vhnak+0oGPAjuJbdYKsPVaCTNlMHPaX7aScl38ttDFsPk2FngpNHIsbNO8AJs3CVCYKIhMKYqiKIqiKIpSXaigpSiKoiiKoiiKUs3onDFFURRFURRFUZRqRgUtRVEURVEURVGUakanDq6EgIccWwE87sUe+GajdttOwrItcwhxmjsE+hYcuTcxye3cxZzPLeONHOuF52TJM4unDHNjCzplHA/gwodjnos7Yo9bzXODdjEo1x4TCE6QgGfLe7k1u23DD8RluTbLw+Td3LqeG2Z4sbviqhiP3hWEfgkc8DU2wyOPbPEnt7L3gnBre5v+93lAMg3xkGbAEf97dMYo8Yv8IkjCl+cmLugB8Yvxh3nG7UHCM8p43LL4WK5d47eA75Ff6hNuSE+LPFiZhyVzG3sTLj7ni+THp1+sNDx5nW1xC3raFvfpK8aX2HdF8SBouihakg50nWlD9xl+X8xYSBr3xB71JGQmFrjdvujZjrjlJ+WWaRW9W9ygv0J/yA/tyUUcBhqjokkegh2I/4hxWfzEYwNCx4wXwl/mDbFl+QyXS5PyRxv0vTwXgyYu5bnFtJcb5j35z7yXAaRf6Kwv9wwO8wjzAv0nuVDcou/k/fQd7QpMD7pLL/EA7PAdYR51JP/44hdXvJZwJA7oB3HBEscDc/yBJfHHPCi68mLL4+HdSYmzyE+KoiiKoihKpeTNgcX/FApYbNzOSaXR788UPpzlY7sWNhomHHw/pwy3jXLx84Iy7NTKxjOT0nhqQhoTSoFtmlq44a9ivDbVxoJ0Cps2SeKqP8vw+lQXBdIY7tTQwjV/lZpNNrZqBkwt8dF/VBofz3SxbXPg94Up3C5ufzLTQw+5HzwrjXvGBRgyN42+rSy8N8PFPX+nMb3Uw1ZrObhlVAlempwyTe0NGtjoN9KVd0mjWRrJLUQGuOqvErw/3UW7ogBJaWhf/mcaH0730at5gD8X+7hZ3v2tuN2nlYMPxe37/07hu3kpc//i1BQeG+fij4VivqWNFyeV4fHxFBlcdJZwXP9XGi9PkQa4tORbFlomnO9N99AqEZhDnP/zp4/3Z6SwfgPGpY9rJB6/nethlxZJfDE7hTv+dvHNHA+7trTMYcqPjk9hiLx7p5YOnhqXxrMSrhllEs5mDh6fUIZnxUzzpI+GEo5rR6TxtoSjY0NJLHGb4Roo4exYBMxK+bhuZBpfzvSxZTMPY4oD3DjaE7fT2FnC9frUUnNA89RiYMu1LAlTGZ6e6GHSEkk/SZP+Eq5XJb1KRdLr2sjGlX+W4o0ZZehURCEjQL+/yiRcYrcpMLHYF7eZfh62a+7gtwWupImLT+W+51rAx7NSuH+cuF3sYWt514BJKTwx3sV8cZuHYt8wskzySppiGDo3ssTtUvGfh6S8Zy2RHi8dUYoPJW9sI++aXCrhkjj+eFYZtm1mY+giD7eN9vHz/DR2aGHhY+aNsSX4ZZ5r4vCO0aV4YbKHuSlg82aB2E3hlWkiPPkST40tXCvheHOGh/YFkjclva6S5+/MDNBepNN5KU/ysY9PZqexjYTjz8XsVPDROBEKzoqiKIqiKErlsG9bifA8H6m0B9dzsSTlYvfB89HmvWJp3JegxA0wcomNsSKUeBwaEBonPLQVoaZ1kSMChIUWhTbayHXrQo5YBGhbZItgY0lDWQQMuW8vz9qJXpMCiXg7gTYFlpixpHFro4E0ptuJfht57kgDtrFjmWvaL2TDNgnzfO0G4k95fbOkhXYN4ndZaN3AF7NJNBVzHIloT7siBDUTqYqCVbsG8i4x28jxzWgE/UFFgUGCgDbi97YiJLHp3FSEGLpNPb5rLWlU0x+tixKSYXysVRDeNxP9gHbFAbrVVMLD85PbiDvt5XlDEbQSIpC2F6GnjdhtUOBAjBi7VJblmh0Q2zJexH8c32leGL67rbybvuHBzu3kfYxbV+Kdv3Svibw7IXHWpqEnzy00kHA4CQvrSBgZz/I6o0d32jQQgcVJyLtCu4xXCtDN6JaY5zskFtFC3sM0ayXCKP/aSVwzfZuaU6XlXvy8rpin8JiUcLWVl9C9gmTC6PGa72McNJb0od12ohwJI9OrfTKJlowjeVdzSRS6x7hlHIdpLe+SuGcaMC0YL00lDi1HwijPmKYMY5GkIdOScca0ZVzwPW0k3gJL7EgeaF8o+Uv8zxHDtcVPjFNzSLYv96LPvMQ8JTnX+IPuNRC3mfeYfozThuLnQnlBe4kP6iU8C0cNWYT1PyrB0+PKUCJC4qDZxShz0/Cl7HD0V1EURVEURQnRqYOCH0XBjLIyDJAGZJmVxBUbOrhzrI/ODV3s2bIQjUVICCfScepW0ky186ShSZsUEXhFqZVTrkSSAafKETaaaYZbwbPxTuGhPMLlvfwzU/DognnAiXHlk7/Mc44cMJnML10Qc3Jp4EQxuumzkUt5QPRCe5xXJs/oF2lcE2lzG7OcelbuF74zfCzXnG4n742noskzT97gmHEyT3wktqQhb/xCu2InDFf8TiL/h/8MoT6nQNKnIv3EHqcJ8w5RsX/k9Wa2IKepGb/w18SQvMcXQcsXF0K/WOIPn8khUWdiWtwI/RT6LXTR/EgIQjfDqYcUZBLigitCBacOhmbjOGa8m4Abv4i+mV4o19QL/xnXqckRPU4TDKfshZhn0X+hyyH85XRCk14m3IxZmnHEL14Yx/IOTvOjmxydM0cH8F5MmumnxhVJa/kx4YwcD42nowtGoLFmfhm3nP7Ha0L98FZckJvyvEUdcZBlIRSnmX9oIyHCtLxfLImcZeL87+I0WooQtiDtY+evy4yw+O6ODbChCH4mNRg+vlhRFEVRFCWPUUFL4HoeqtvGluHJcR5u65rAoevwIF82bhVFqQirDVYcc1IpM1VxvzZJ3DE2hSmlAW7v2hBrF2nZURRFURQlv8lrQYtB5wYJ7073sNjzcUT7pBkdMb3xosKRJkVRlkNqDY7Omf99lhMfb0xN4cRhaVzZ2cZ/NuaiuXC00bK1HCmKoiiKkn/ktaDF6XY/zy/FXt+WoV/XAlzYOWwcKoqyeoSdFgF+X5BCh0Lgu/kBWjewsU0z2+zSqSiKoiiKkm/kZVezaRT6XIXC3dOAkzsW4NyO0jpUFOWfYUaALWzZrBBrFRZg+GIfh/5YhhklXCGnKIqiKIqSf+TtnB4v8PHfCaVm97dbu/GMpuiBoiirDYuPmXJrc1MN4MINCvF/a1sYsUgFLUVRFEVR8pP8HNGShuCgOSmc87uPeWXcIS2hG18oSjXh2DYKEwk8ulUjrN/IwZvTlsB1edCxoiiKoihK/pB3ghZHsuBbmFwcYN+2wMZNeZZU9FBRlGrD8gN8McfF2T95mJXO26WgiqIoiqLkKXm3GQYPVi0LwnOdkraOZClKTcHNZmalPGzzxSLct3kDHLpOUfREURRFURSl/pN3gpbne7h1VDF+mAu80bMBEk4ieqJkA8yOVPl64G19CjfTkTsRLnJdFNkWkjx0WX4dHUJWFEVRFCUPyL8RLRG09v5+CdoXJvDkVkVmPYmSPcyaNQu9e/dGaWmpaajXdyhYHXzwwbj33nvNdX0UMMu8NM76uRT/6VaIDRsmYGuZUxRFURQlD8g7Qcv1XfxvSim6Ny5C92YWErZOHcwmxo8fj549e+K7776LdOovLHpvvPEGBg8ejLfffrveClrplId1PluI27o4OKlTE1i2jmgpiqIoilL/yUNBy8OEJWl0apiQ0DtwtNGXVVDQ4ojW1KlTI536C4vegAED8Prrr2PgwIFGr14KWm4aV40owTYtC3BouwIkdERLURRFUZQ8IO9aPO9Nd3HYkBQCyzZn/yiKUrNQdry5WxEOaSNlLr/6dRRFURRFyWPyTtCaXQYUcLdB3qikpSg1T2Dj/Zll2PTzYnha6BRFURRFyRPyTtDapy1wezcLlm3DrofTtBQl27CsANNLk/i7hDsORpqKoiiKoij1nLwTtDzfRudGuqW7otQaIlxttZaNkzo6culHmoqiKIqiKPWbvBO0bh6Vxt3jvOhOUZSaxoKDTZs6uKGLBS/QIS1FURRFUfKDvBO0YPnYpJE29hSltgjg4dXJLrYf7MPJvxpHURRFUZQ8Je+aPdd0SeKYdVXQUpTaw0IqAFoXhgeGK4qiKIqi5AN5J2i1a1CIxsmC6E7JdjzPM+rjjz/Go48+iscee8wc8Eu9bMP3fcyYMQPPPfec8eezzz6LV155BZMmTTLPVgWerRWHub7gS1g2axLgsHbcGEM7ORRFURRFyQ/yTtCanQqwMK296rkCBY9TTjkF119/PU4++WScdNJJ+Ne//oWrr77aPMum87YpRKy99tr48ssvcfbZZ2PPPfdEQUEBunfvjkGDBq2yf2mWwmS2EPt7Vf1fEcu2MHqxi6/m+Qh0e3dFURRFUfKEvBO0bvxzCV6elI7ulGznjTfewPPPP49TTz3VCC2FhYU4/vjjcfvtt+OLL76ITGUHFLRs20YikTACieM4OPDAA9GnTx+cddZZVY5S0TwFrN122w177LEHRo8evYxwU5cq9h/Vqo7MZWJbCRy2bgM8unmhilmKoiiKouQNljSesmdIoBY4d9giNJAG8J2bNox06g42WtPpNObOnWvudVoVMHHiRBx88MGYPHmyiQ8KKI8//rgZJdppp52M3ttvv23MXHHFFbjpppuyLt7OOOMMPPHEE5g+fTpat26Na6+9FjfccAOGDh2KzTbbrNy/LHoDBgwwZilAMozxs2bNmqGoqMhc1zX0E/3KcJx22mlGmFwdXC+Nnxf6+G2uh9PWL4Rjm+PCFUVRFEVR6jV5J2hNL07BlrZs6wZ1v06LgtbNN99sGrC8zrOkqBQ26lu2bImZM2ea63PPPdeszeLoVUVBi9MHGXer2/CvaSoTtDj18ffffzeCVkwsaL322mtGmLz00kvx8ssvm2cUzI4++mhznQ38+9//Nn7v169fuTC4qlDQemqCjxenpvBF70bmsHBFURRFUZT6Tt4JWr/PKzVbTHdrVvejBYz66667DiNGjMDdd98d6eY3HMk69NBDy0e0Xn/9dRxxxBF46qmncMIJJxgz9913nxFKMoWvbCIWtKZNm2YEreOOOw6//PKLEbQ4rTD2byxoMYwUHsmnn36KG2+80UyPPP30041eXUN/cn1cp06d0L9//9WO77Tn4ss5aXwy08UtXRvAcfTAcEVRFEVR6j95J2id9VuJBNrHI1s1inTqjljQGj9+PJ555pmsExjqAsZF7969MXXqVHPPqZWcPsg1S5999pkZ+evVqxf23XdfE3cczcq2eOP0OgqGEyZMMOE44IADzO6Du+yyi3lemaA1cOBAcx/rL1myBE2bNjX3dQ39ww1JOnbs+M8ELddloGH5HmzHljRTQUtRFEVRlPpP3s3hcawACZ25lDMkk0k8+eSTZsoad/Hj9DVuhMGpeNxsIpuELAoknC5IgYrbu3PEjVu7Dxs2DDvvvLPxa1X+5TMKjgxXtghZ1YLl4/u5Hq4bVQYPOj1WURRFUZT8IO9Ejn6dHfTbWHvUc42+ffvi3nvvRXFxMV588UUjvCxevLh8FCgboF84VfCYY44x0/441fGwww4zetkkENY2NiwMX+ji6wUenPyrchRFURRFyVPyrtUzLR1gZiq6UXICCikc5eF5VFzPRkFm4cKF5tk/2W68puBoVDwiFY9exaNU+SxoURTeoEkC2zdldZM96aUoiqIoilKT5J2g9egEFw+Mc6M7JZegsMIpdTxriptgNGrUyAgxSnbjIIFdWwa4rktDWEH+CpyKoiiKouQXeddKbSiN9SY6czAnyRwlylRKduPBxevTgRN/XYTA0hEtRVEURVHyg7wTtK7uUoirNy6M7hRFqWkoCs8r8zEjJdVNoIcVK4qiKIqSH+SdoDVyiYvRohRFqR18BOjR3MH/tbYQWF6kqyiKoiiKUr/JO0HruUkBnpqgW0wrSq0RONiiqYOLN2gACzqipSiKoihKfpB3gtbmTYCtm+m6HkWpLSwrwBtTy3Dkz8Vyp2u0FEVRFEXJD/JO0Dpt/QKc0qEgulMUpaYxa7TSNuanHLnRnWgURVEURckP8k7QenZiCi9MKY3uFEWpcUTS2qmVhRM6Bgh8nbarKIqiKEp+kHeC1i/zA3w3L++CrSh1BtdldWyQxI4tdH2WoiiKoij5Q/6t0WoaYOum0Y2iKDVOAA+vT0nh/GE+LO3jUBRFURQlT8i7Zs/pHQpxcgftWVeU2sMSUQtwddagoiiKoih5RN4JWjeMTOHW0enoTlGUmobLsg5pa+PR7g68QHcdVBRFURQlP8g7QWtGOsCkEu1aV5TaguPHZYGN6Sk7/yocRVEURVHylrxr9/RubqPv2nqOlqLUFmnLw1vTXPQfmYZlNntXFEVRFEWp/+SdoHX0Okkc2kbP0VKU2sLyAzi2J5VNgCDQ0WRFURRFUfKDvBO0bhyVwm1/l0V3iqLUNI7l4OD2STy4eVJELUVRFEVRlPwg7wStmWU+9LxiRak9LMvCEheYWhLAlmtFURRFUZR8IO8ErYPaJ3FQu0R0p9RXOEWtqmlq8fPVNVeVWaVyPM/DR9M93DQyBRG1Il1FURRFUZT6Td61enZraRml1G98369USIrVyp5TUUDINMdrZfWxpbglExaKbEckVzfSVRRFURRFqd/knaB19V+uUUr9ZvDgwTj44IOx7bbbYscdd8Rll12Gf/3rXzjyyCPRs2dP9O/fHzNmzMAzzzxj7rfbbjscccQR+Pe//40LLrgAu+++O3r16oWPP/4Y5513njFz++23R64rq4Xl4LB2CTy8VZI3oZ6iKIqiKEo9J+8ErQUiY1Ep9Zudd94ZHTp0wM8//4xx48YZIenOO+/Eiy++aASp8ePHo23btjjllFPwxx9/GHNdu3Y15u677z68/PLLKCoqMqpbt27m+aRJk8x6I2V18TE15eHXBR4CjT5FURRFUfKEvBO0zuqYMEqp31AgSiTCdOa0P97zd+HChTj66KOxww47lE8JpLnYTIzjOLjrrrvMtW0vLSaxHU4j1KmEq4Yb+Ph8hof7R7uwdImboiiKoih5Qt4JWglHGtailPoNhabKRp84UkX9E088sdwMBacY3o8ZMwa//PILtt56azN9kNAMpxqec8456N69Ow499FCMHDnSPFOqhoJqq0ILrYocid9IU1EURVEUpZ6Td4LWg2N9o5T8gcJTKpXCCy+8gEGDBpmGf8OGDY1+TDxqNXXqVFx88cXmmqNaDRo0MNeEz2699Vb069cPAwcOxLHHHlu+WYZSBRI9B7ZN4vktk/Dzr8pRFEVRFCVPybtWj2MFRin5w6JFi3DNNdfgnnvuiXSWh8LSF198gauvvhpfffVVpLssW221FZo0aYK99trLmB86dCj++uuv6KmyIiypZr6bk0b/0SnYWvYURVEURckT8k7QunKjhFFK/tC4cWPcdtttRoBq06ZNpLssFJz69u2Lxx9/HI888sgKR6k4CkZhq7Cw0IxmcYMMpWosy8MfxRa+n8cRRB3RUhRFURQlP8i7Vs/sVKiU+k9FYYnTBTkaVRUUpPbff38jSFVFvBFGixYtzK+yYiw42KShhR5rcRahjmgpiqIoipIf5J2g9fB41yglP9lzzz2jq6VkCmRcl8URq969e0c6S+EBxjQ7b948uK6Ljh07Ysstt4yeKivCsmz0WTuJmzdJSvx5ka6iKIqiKEr9Ju8ErYQVKqV+wxGnadOmmWuu0eK27plQYKLgRKGJG2VwMwzuKhhvblFxS/dkMolff/0V6XQaH3zwgRn54plb8RbyyorxAx/vTk/jpKFlUuHo1EFFURRFUfKDvGv19Ns4YZRSv+HugrvuuiseffRRcx7W+++/b9ZTxVP+KDzNnDkTn3zyCR544AGzLoubXfCeZihIxbsSbrbZZhg8eDBuvvlms+vgqFGj8O233+KQQw5ZxpyyAiSup5b6mFos8WSpoKUoiqIoSn5gSYMzrxZNfDO7xPzu0Grptt11BaP+uuuuw/jx4/HMM89og11gXHDaHrdSr+8w/QcMGIDXX3/dbBdPsjEP0J+nnHKKmSrZv3//1fZj2vPww7wUvpjj4soNi+A4yeiJoiiKoihK/SXvupf/OykwSlGUWkIEtZ7Nk7hig0Id0VIURVEUJW/Iu1bP2tLWo1IUpXawbB9vTPVw5K9LYAV6WLiiKIqiKPlB3gla12ycNEpRlNohcC3McQMsLHHkTqfHKoqiKIqSH+SdoPXhLM8oRVFqB8exsXMrCyd1TMLXdYiKoiiKouQJeSdovTvDw3uiFEWpHQJY6NLQwuHrFsDJr713FEVRFEXJY/JO0Nq2mY0tmuRdsBWlzggCF69ODXDczwsRWLpGS1EURVGU/CDvJI6TOiRwRic9R0tRagvbtrDQDTAvZYnQpesjFUVRFEXJD/JO0HppiocBE93oTlGUmsYNAuzUwsKxHUXIsrTsKYqiKIqSH+SdoPX1HB8/ztd1IopSWzjy1zJpYcMiqW50MwxFURRFUfKEvBO0dlnbQe8WeRdsRakz/MDHWzPTuG6UiyDQsqcoiqIoSn6Qd62eI9olcNx6uk5EUWoLDmIlYclfkH8VjqIoiqIoeUvetXtuHJ1C/7/KojtFqRuCjG3OrXo+nc4OLBzSvggPblkgdzptV1EURVGU/CDvBK3ppQFmpaIbRakjKGh9/vnn+OijjyKd+osnguTiVArTiwP4KmgpiqIoipIn5J2gdVBbG/u1jm4UpZagYOX7PlIicHzwwQe455570LRpU+y5556RiVWH7vz88884//zzcccdd+Dpp5/GM888g6FDh+LJJ5/EmWeeCdd1zfU111xjzNcltgV8MAu4bpQn1zp5UFEURVGU/CDvWj27re3g/1pzCpOi1CwUrjLVTz/9hKuuugrNmzfHRRddhK233joyuerQHQpUffr0wT777INLLrkEJ554IhYvXoy5c+eioKDACF6kuLgYr776qrmO/RBf1zYFVgDH1DY6oqUoiqIoSn6Qd4LW9SN1jZZSO1CgiUefOII1a9Ys3Hzzzdh2223hOA5s2zbrs1ZV8ImFpcsvvxzdu3fHXnvtVe7O6aefjnbt2hlzfCf1CM3zHS+88AJefPFFlJaWGv3ahME7pL2DpzdPwFc5S1EURVGUPCHvBK2ZZRbmpqMbRalBxo0bhyuvvBITJ07ExRdfbEagEonEMptfUBCaMmUKnn/+eaOee+65StXIkSONec/zMGjQIGy00UbmntC9wsJCbLzxxpVurEHBa9q0aTj44IONudrGljDOTNn4dZFnrhVFURRFUfKBvBO0jlrXxqHtnOhOUWoObnbRunXr8imCFIKoMkeb0uk0pk6dildeeaVK9eOPPxqBifY5ilVSUmLciMl0NxOuCTv++OPRoEEDFBUVlfuhNvGtAJ/OSuOeMb54NO+qHEVRFEVR8pS8a/V0a2Kje7P6vZ22kh2cdtppuPDCC42QdN9992HYsGFGWKIiFHi4popTCd955x2j3n333UrVcccdZwQpqkMOOcS4WVZWZka4qJYsWYIFCxaUTxXMZIsttsDVV1+NESNGmE0yaKZWCSy0KATaFgbm8GJFURRFUZR8IO8EretHpnGdKEWpaSjwcKrgYYcdhvPOOw9//PGHEXjGjh0bmVh1MoWnu+66C82aNTMjVcOHDzebbNx+++1GCIuFrUWLFpnNMCiEccOMrl274ogjjlhuJKw2COwAh6xt46mtGjIgka6iKIqiKEr9Ju8ELTbzdItppTahAJRMJnHMMccYQYujURSWKHhVNgK1ImiObnE64pAhQ3DBBReYtVucHsjdDDk9sFevXvjhhx8wZ84c7L333njjjTfMboSPPvooBgwYgIULF0au1R6OVDN/LLHw0uRU/lU4iqIoiqLkLZY09PJqdfqskjL4HtCmce1vClARRv11112H8ePHm3OQVrXBXZ9hXPTu3dusW6qPxNMGmfYvv/yy2eiCG1S89dZbRn9V8gDtxsWW5uN7Xsf2Kz7PJNPcqkD7p5xyCjp27Ij+/fuvll2STpfhqUk+XpmWwqe9msJ2NJ8riqIoilL/ybsO5nmuhTkiaClKXRCvs+KGFkcddRSOPPLI5QShlUFBJ3Ynvs7cLr6y55mKerWJJe/s1MhGj6Y2AugaLUVRFEVR8oO8E7Tu/dvFA2NV0lLqnlgIqu+IeIfdWwE3dOXW9nk1gK4oiqIoSh6Td4KWY/MwV23sKdkBR7NWd0Qr1+BOg+9MB7p+vkTCGmkqiqIoiqLUc/JO0LquS0Ncu3FRdKcoSk1DQXJ2qY+pxRS6Ik1FUZQcIR86xBRFqRnyTtCaXVqGUUvc6E5RlJqG68f6trFxX/dC2LW8PkxRFGVNUAFLUZQ1Ie8ErS/nOXh+sq7RUpTagqNYbQts7NomCZWzlOrAnzENpT17ovToI+Fdegm8XfvC37YHyvbfD6lLLkFqv31QtsvOSKVL4NfSMKrv+ShdvBClN9+E1HY9kdp+e7jest+aMtdFyWWXoXTnHeGeew5SZ5wGb9tt4Yp59+ILkDrnTJT16oWSu+9G2ktFtrKD1IjfkT7iiDCeb74FKbcMXkbU+gvmo+TN1+DusVtoZu99kL74IpQdfgTKzjoL6a++NvGR8qo+xzI9ZbLEy9nGjZJTTzbHV/jVKOykR41G6VX/Me67olJnnY7UF1+Iv7xl3sMpz2WPPIyyoiKU3XKj3GvlpSjK6pN3glZC6sqk1peKUmtI8wUPjSvDST+nUTtNXqXek5LGevOWSAwYAOv224EFixD89Cucpk3k/lbg2f/CLUnBsnmKWzjti21o05COfs2lUaFeqM973+iFatldMqknT2G0aSfSM9fyNU00bAx7n/1g/fQLrF/EPxW+NY4YtCZPgn3HXQjuuw/WUccg+PkXYMjPwNXXwL//AQTnnQ9n6iQxHVnO9Is5HiJ8MV8bh6fcjAQgCELhzjyS/4yNyGwY7lBlYuwYu5U9i+Jjoy6wWrc28WxPnWLOo7QyzAZNmiK570FAYcMwLWjnjjuBZ54G/h6HYNddgWuuklBFzQ7zLv4sfa/xX9s28Lt3MW4UjBoD37bimBAzjIPQrPwX6YX24nhYGka5NWaNsXKszhvA3ntf4z7jPth1Dzg77SxhkfBEZoxdqrHjYfsurDFj5ZlomAwSGgjf65drxcgTeUZ9XsXGM00oipJP5J2gdWjbAFd3KYjuFEWpadi4/GJ2gG2as7rRBoey5lh2AvYF58FOFMCyHNMItkWksAMLDp+1XAtFZ58p2c2CK888aei6FBhEUEmLYiPYo9DCxjCv5VlahA0+dz1R0rgORziiF0b4Ysb30ijzPaTY6I+gfdqFPJfXUyf8uFY8HF/unf/7P1jb9DD+ps8pkNg0b1lIimXn6CMQbLaFNPxDKxTsXPpbZKGU8Xf4wBU/cLSO72bYGJ504Br/h4Th5kgbzXgMjyiOKlE/E1pJid/pBt+ViXFXDIi8w3nAJp5ZpsHjIjIESfrfTogeFdNCApBwRPhs1AiJ++81ce3fdhfwysvGPH1AgYR+d+nvKP4dcbRA0jVMTx9JDoNHQ+EMW5mY9STs8Wga44ACVRgPoslrcYdCEOOLMZiJLe4nxGN0PyHPE4UJSRaJ+0TG+YK0R6tXX4ngzYEiMN5u3C8Tff6m5dekCd/NkUfznhDmLddkBcb1ss8URck/8k7QGl8C/DBH12gpSm0RSGOSW7tfsVGRNGTyrspRaoL27WD/3x5ykdHSj+AMLwow1vHHGYEiffddCI48DNYFF8EvLZXG/s2wDj8UwfXXm0ZxeupUeBecDxx+JLwnHoP770vhbyGCzmEHw581y7jJhntqyA9wjzsBXv/rEFx0EZziJeYActPo/+AjuLvsAu/Y4+H97xWxsby/CIUI+/gT5bfyjy/HbhwRwBLHHQ9bhJpUSYn4X4SUm69HcPhBsA46AN6IP43g406aiODCc8Sfh8J6Svx9yinwu3eDd9ppcOfPD4WqJx6Hf8ThEv5jELzzFty+O8HtsyP8d98VN+S5+N9duBDepf+S+LgO6eOORTB4MFyXQoIIDMXF8K64AsH2PeGffhaCiRMjn646DKfVZWNY3bvLtQgmd98XCkIShtRPP8I/9hi4/fsjkHhxp1V+UD3juPSDD4zgg0sugtt7e/gvPGcEL2/YUPjHHG3iIbj8cgnPfKQmTYB/wYWwbrsNvrv633uKZu7M6bD69YPzzNNIvPSSkZfsDz8077EPPQTeO+8Au++Bsh7bwn3jdSPAmmmqovw3X0fqvPPgn30uUnfeIc+0zaEo+UretXq+n2fhw9m6RktRaosh8zxMK/HRvoEDTjdSlDWFIw8Jp/I1fxRW+DywbSStBOxNuwFvDgQ+/RQoKoS1zbYI3nwb9rffhubbtgMaNUTw9kAE994H56STgfXWg/ve+7AHPGfMYNp0+PsdIILMptL47g/n04/gX3iJEeSC8ePhHX0UrHZt4T8v5ls2h7eC8+LY0eCIlGXbDm8i3QxEi2frORxxEbPBNVfDv+lmeKefIULGtQg++BDBEUeFZtdZF5bEAd58C/6dIozdcgNw9InACy/Au+FapPl579kL1tvy/M3X4I2dAPv1N2H/PQ7eUUfA+3O4EQrSImT5PwyBf01/WFttBWu/A+FNniTChggMl/0LuOce4MIL4D38AKxxY8N3rwZmlEiUtX4HDvPAGvaLCFkuvHmzgX32h735lkhcI2H7Y4TE6YWRrWXxBn0NHHgA3PU7w77jPhM3rgh+vgh+3mabiuC9DoK33oY/eYKkZRNY63SUd6RhiUDkM1JXE0lV2GuvDT+ZMO5avw0VXRten51gMb4HipD1zZewJM4TI0Yg+I8IeJIXXHln+pOPERx3HJyzzgQkr+AqScOXXg0dVhQl78i7Vk/rpIsGeo6WotQ47O1fkErh+J9L8eXc1W/sKMqaYNYQcepasgEzo9FzRC+RFAEt+vSZKWMUfBJFcAIf9kEHIbFZN9gbdUGS/XFTJocjFXfdjsTsmUj26ilmxdG268B96UVg4SJY996DgkULYe24g5nm5uy1JxLV9Inx586FtWQR/N9HAIWFZnQ4Mf5vCZuHAvqbgpbgHHMcku06IHHmqUj4EroXX0aSU+MKJaziF0f8VXjRhXBatYG9cx/YqTQSL7+GYPYMOM89D6f7ZuJnEUnarQu/tBjWO+/CnjsTeGZAOLXxwINRWFAIe5c+5n2rC4Vfv0EDBBS4XInYJcXAcy8AC+bD3a6XJJIjglgnJN77AN6iJZT/lsFaOA+uCKDWTz/Bk6T0GxYikU7DmTgBBXYC7r9FWGzSCPjgE1hzZ8s7Uka8sjfeGImEmcu5WnDtmSPvK3AKTPhJQrJMskDykuBIfkqedR7Qo5cIxUnYk6eGo5WiLBGsRMqHvUkXic9WsBqI4Pfwg8aeoij5R94JWnu3LcTNm+gaLUWpaQJp6M0pC7DAtXDietI4VZRahCMpRtjitfnfXMRXBq4rCp9zUY38srEsf+FaHRFrXGnUy6X97TewxYh99/2wzjsfVof1kDxgX3jFxbCl8c8PqdVYGtQUBozd6iHx6COwJoyFPX0qAk6bEz+aqXDmHaLiV4nQxY03glbSsC8ogD9zFqx5IqTxeSS02Fz/JeHD2q1EGLMRjB4D/PKrhLEM+Ppb+Bf/C9bgL+Ecdjj8Zo0BPi8rhcXRtYYixGS8brVh3C5cbOLWb9pU4qoB7D9+A2uF5H0PIHHeBbCbNoZz0AGh8FrhRd6++yM5fiLsM06HddpJwNhx4iDFThKgsHU7eIccDFsEXu/hR+BIOGzei4l/kh7u4iXw5M94PIo/ht5siBFh8hcFK/m1RBh3AnmaEgFv2FC59+Ff9C/YF14Ca+/dYXftGtlSFCXfyDtBa/iCNB6ekF3b5ipKfcLsxOWnMTPlo0haf7P3bYYt1iqMnipK7WJGUVa3rU3zxl4AmyMaNkfBpAG+1//Bv/9+OAMGAC+8BLvN2vA4DZBwJ0RjqvrwJk+GddTRwIcfw77hJhFMfDgi8FlB5R0XnJpI8cMINCJwVYr4N7BFWEsmREBLiGnx87rrAvfei4InnoD10v9gHX0MAhEcfImDQOSNwBdhbA3wKKCM/CucUsnNQKykeDYp7/AR7LU70vffi+CpAUi/8CKstm1MGDKxUqXAbTfDO+UU2LfdhuQGXWAxHuQZ17LZFDRPOY0RgODxR+B/+SWwS195ulQwWhW45ivlerBvvdlsrLJaMJPJP2OPm6Jcdims++5HwKmcjzwWGVIUJd/IO0FryDwfL02RGlrJasLteeu3qm9IqCRcHBkIML00wL7fFOPusVWfmaMoawo3VojhGAR35eO01biM+QWcRCeNX881m0h4s2eLcGSyqTFn1llxNELMUM/YNzblmoIB9frsItfixgP3AwsWhO5//AmC4iVmyiAFEmv033DFrrdwsdg0Y2TidrhBQuQVA/0VbgtOP/K9/MsoPxlYRx8F/5vvwnVjZWXmPVResOzmCoGbNvHgz5wBP1UCbLoJrMaNw4cSBiM0uSkx48KfMcO8z+rRA97WW8FrUARr0Bewfxpi4sJevBjB9z8g2LSLGcmikOT/+pcJh7dEnjFs9L8X+juG12GYwnvGuZnm50uqDB4Mf+xYBK1bw7r2WvMeX97NKXquxKm3cKGJF3z3DfyS0vBaMDKLXFuPPQ7/wYeB3tsj4Nqp4mIz0khTsVmrd2/4W20Fe/Y8oMlasDjEJ/8qQtPi+/LrgNsXih/DukvS67dfEPz2qzxjOkn6SHwzzBzhirNa6Ib8mvSKnvPaKYTXuwdskQK9xx42O0XSe/7AN2lNUZQ8JO8Ere7NbRzYevXnbCu1Q/zRzAcYVjbYqnOqUZ3CBgUbYNJY+XF+Gq0bFODajbWsKTUHd6MzgsXMcHdAf8Z0s405G73ljfWuXeA1LER60kTYV1+N9H0iLFFgEYGJZrmteTB/jjTcpWk9fyHS0oQO5s6TBrb8yj1HtYJLLoG73nrw//4b/i47wz3xBHhjRogg0hj+ZVcg1X4dlL34X1iicPvtcBOO2Rwh/dFHZpv4TJGE1xRAKMOVjv/bCBMcVUqPGydlJzIUs0gEOQmLd+gR8O68HYHtmAa/+8gjkYEQ/7n/wv34I/i33AoOdgUXXiRvieoV1jNyWXLRJUh/KwLUZx/Da9sB3rFHI9G8BfwzzxUZNAXsuRf8U09G2ZGHwuIGE43XAq652ggr7r8ugvfkk/C++FyEVAnXL0NhTZxAx8N3CIzuFKc1ShoQb8JEuL//jtQrr8E78Xhgp53gD/4GwUYbhlPujjkG6XXWhTPmbyR26QP/3DPhff4ZrAaFgAjDxo05c8HdD1FSbEbz7Geeg993V6QDEcZsG6UP34dAhEumNUfxvFNONHGZOPJIONwsJY6DDFjnutNCPzLu0598BvfPEXD/GIbS19+Ac/gRsNu3l1gWFs6HK371F8wTeyKkLgj9RWeD+QtgLV4IV8JMAcyfPx+WxI1/6x3wCxvAuvc+WIceCP/ww2C3XSe0pyhK3mFJBVWxaq/XpD1X6kgfCafu12kx6q+77jqMHz8ezzzzTP1pcK8BU6dOxQYbbIBWrVpFOvUXpveSJUuw22674ZVXuCV0qJdtMJ+ecsop6NixI/r371+pH9ngXeJ6eGWKi7HFQP8uNhJ2QsxK80eUotQE/syZwNffwJodCVqSN4N114FtpqdJM1vynhmx+uxTs6sgttgc1p57whYBKLAcBL23h928OdwPP4DjirkCB5YIUsEXg2GL8BEkChHstzeslq3M7oL+888D0vi39tgd9j57S4HliVLy99doBM8+BU+EBOugQ2C//z6s7pvB3nobBO3WMdu5x+WG5cmoX38Bhv0OK5024oDfoCGs7baF3aWLMUdSI/8CBr4Lp3t3+LvtiuDNNxBMmgL7uKNhr90G1mWXAnffA18EoqBNW+CvEbB672C2qufuhcGoEfC7SZidhLzrVwQDBsBv2ACJU08Tf7UP/VSWknA9C/w2DF7H9ZA45TTYLdaSUNkiQIg/X30Z1jffwttma0AEM2v6NCQ32xzBFt1hN2lSLswEHJUaPBiW1OHE5/vpigijwaabSnxsKneMB9E3rQ4RZMeLcPn8f2HPnguvVy8kjjgMmDcXeP9D2CmJfzEVbNcTwQad4D43AE6jxrAPOwLB1ClwB76FRN++wFY96Bhdk7SZA/vEk+C8/655T2X4f49B8N0PsIuXhO5T6JNwMhRmBI1XzCcdO8H/4H3YaddMD3V23hHejBlIjPjTuONt2Bnm0LQxI43QHKzXEbbkLaat99MPwKuvh2sEjzwcvuSDpMSHoij5R94JWgOnLsFr8h14rkejSKfuYNSroLUs7GGeMmUKUlxUnCfx0aJFCzRt2tQ0jLIxzMynKxO0uDPbTaNSuGl0GldvXIArNnaQ5GlG2rhQsgDT+PW5iQR3jwt36vsnmKl38mchYTbSoKLbPI8r4MiYPDMTRQIHCYeC3pqVZwo6HBnjJhacZkfJgCMtcmsoF7TkO+JfdZUZ7SqwuOkF/SBmRw5HIIIWJT27rMyM1plDnen3jLLJbckpLQS+POOapwwhxYRZ3GIHZeCJwMHlYeKBNe1AKY83elTijpt1UGirLM44LZLBN0/EnzTHKZ6MF46iBSIA2722g8PzwxYuRnKvPcWdytex1TQmTOK3MJ8wXAUmnyiKkp/knaD1xN8leHJyCj/s0izSqTsY9SpoLUueZcdlyNb0Z5pkCloUhtl7zMbeC1M9vDTJw2mdkujdPMCcMgebNrVhNiAQu5qnlbrG1CmSD7mehttE/JMsmVkvhc386Mq4G+pQYIjELLmiLBI9W4MyELodukfCaYbhRcpLAZdcCufBBxFccw2Cflebw47NToqiKIi4vw+Ftc3WCKSxn1gyB55VZLazJ5n+isMXh2TZZ2G8MWxhKBnG2CNrgLwzdJOjUWG8kcrii/4LOGwkpi0JO31BU/x1h/+J9Jabwz7qSKBrV9iXXYZEotAIYXUBfVmebkwL+a0bnyiKkg2sWZdUDrLpWhYOaPPPezSVmoUf2XxVucIXc9P4dKZrmjo3/lWKUmmIdWrgYe0Cq1zIiht7ilLXmPIlv2Ya1z/MkpnllO13uhPnb/Mb3XOkKDST8WwNCN3OeLe8yPzR2VF/A5Mmwe7RE9aIP81URPPcPOTHXZr877wHbNsLzlZbwn3gMWDBvHK3Mil337yu4jNpJohW/MyEbVkj/4zILboZx1vFd8eY95o/mqFfYv+KzoadkTjrLFiTpsLZex8RsBJh2OsIhqDcf9G9oij5S/6t0UqnzRcjyTnrdQyjPldHtNJc9MwF5+bDZ2FMiYt5pUCXJhbmugE+m+5iA7nu2zKJkcUeSn0LmzUGxi92UChybociW+wEWJgO0K7ARduiBEYu9rHY9bFBYwctEj6GL7aQ9mxpvAdwxf7wxWkkAwebrWWjWN4xpsRCQqKsayNpP4g7E4oDNEn6WL9hAtNTPmaUWmhf5Iv7Fv4uCzC/NMB6DZJoXejjr4UulvgJ8SPQzHbwu7ybazk2aSwffQnfiEW+ZBMPXZskzU5ify4O0EjMbdQokPB5mFgs9pIWNmzkYGoqwIwyiJ+BdQoDjJP3LJT7TuKv5gXAmGILi8V/G8l9A3F8hLwr7TvoJu8ukC/xH/M8+I6DLo0DlLk2xovdhqK/kcTXwhQwdomPJgUeNpA4mpmyMaXUR9sGQPukjcmpNGaX2hJ/FtoU2vhziYd0YIu/LDRyLAxbKGkk/u/SJAAn5vDdbARsKm6Xiv4oieOElIdNxW+zJE4nF/sSLtp3ME3ibJqEZfhCD3e/9AYO8ydh1r7n4/nJPo5e18H93QrhSAKs6RQiRVEURVGU+kjetZDemOHh0B+klaysFpx3zt2auD1yynMxYmEaWwwuw/aDl4CrFv41NIWLh7vS0HcxXRrrX8618OT4tNnJ61/D0jjvtxSmiWB04E8LcfHvpSKg+dj3+yXo+VUJ+o90Rei0sM+PS7DzV6UYMC6FlGTNvb5djD7fLBZBxcN3c9Po+1Uau3xdgonS+H9rWho9v1yCHQcVG8Hj0XHil6/LJG3LKPrhyj9K0PurJej/Z9oIacd+X4be35bgiQklSIvb+w5JoffgUjwz3sXk0jR2/LoYO0p4PpiexldzXfQeVIZdv07LMw/vixS14+DF2PfHReDhLU+MS4vbKRwg7yL9RpQavxwwZIkRYg74vlTe5eJRhl+EnkN/XCzuFeNt8fPEEh87yXt2/qoY385NYYwIMTv94GIHef71PHF7Ugq9Bi3BXhJuhuOpCRIuCfdB35eY0nrdn8Xi9hJcLuGDxPzFv6ckDVK4fLjEr8TD7hIHvQaX4PWpaUwqTmMHia9e8q4vZvkYJ/G40zelYqYEE0R4+2K2h+0HlZh04LqH20ZKOL9OYX++S7jmT7pVjBtHeyizGoowWIBbuiUxe+8iPNi9EAnHiNnGrKIoiqIoirIseTei9ej4EmnIB/iub8NIp+7IpREtT4Sre8aU4u6xHs7qZOPUjgUYON3FcesmUOBwigT9LiJMUGgWWZttvsGzSSwElghS8jjhJ80oGMPJbYqtgDtAJkQQSoseJ3twa3COkDBLRmsNRC+c526LkOeBgyccxWLc2TzwUkzSHU5kox8oVCXFPwHPbhG7dJ9n4TCXc5tk0RDC/gWLU0xojnNiTDHgtDcxE43U8R0c36IfKDCKj4yLYRgYOnmX+C1cX+CI3+m8hMK8TNxiuCSctokL+i+c0BKKJ1yY79ApEz6JNJHhONokv3wF/ReYk1uMaeM9s/6Cr2c4AnlGtz3R44J5Cakj7ntimvFl0aa4JRZNWCScdJc+8U3cclF81M/CMNMvTCtuly0vKTBmGevU93Hqqadh/fU7ol+/yjfDUBRFURRFUZYl70a0eq9l4ZzOeRfsf4QZwfJdvDyhDGOWuOhYZOOu7g1w5gYN0a4oidM7NUCDRMLsLpeQhnrCKpL2ujTCpeFvSWM9IYJQ0nGk0V6EQhSFu1mJeXCrXAoDtghKkhSO6CVEL2EXoNDhdQGSYp9OUfDgAm+27QsS4hYFNAoc3FaX7zHvot1Qr4C7a4lhXnO3JwowjriRlPuEkzQqyfeLX7gxs0U/Ubihu/SLuM05/o4xI+YpAIlK8p1iIEH/iB8tcbtA9ELhh78UEBkmvpvvlPAzXHRbzNNNCpf0j00/in1b7hPyfr6DE1kd0acfRL4x4eV7zXoDKvpFHpr4kHdYloRVDJmzYugXhoMClERa6Ia8k+824aI5PmPcFqKQcSFpw3QI/coUZLhDPxeJXhgu/lJopMAlAh6FPUVRFEVRFGWVYPspr9isiYOj1q379Vm5AEelrvw9hVN/LxZBK8DB6xXiqPZJtCkMG+hGQGBjXRrxFAqojNAiKhReKBBEv+aawggFBZoJBRMKA0aQol1jLv6lXqQie5luZ6pQj4JBKOSYe+NO+C4KTXTT6NE89WIzYif2S+gW70NzoTAofiz3C+2GZsNnoTASKrofusF3htehHfNczMbxtfTdoV9ivy51K1RGoIwEntgvxn9GEIzs8r3U47vMdWw/NBv6Ve5jv9IN+k3s0j/UXxqu0G4sZC1VlhmRVBRFURRFUVadvBO0Xp3u4eAfw7U1SuW4vgvXczEv7eGo9RyM370J9m6bNA12aXMriqIoiqIoirIS8k7QWpi2MLc0uqkjuPan4tK4WK+ifl3g+sB5Q0uw77el6N7MxlqFFiyEIya1LWlxfVB4GKjEi8/1T9QMn/E6jK8MRbOxAbnmqFx4Hyr+mfVj8syTXzoSuxE+4z0t85Hccz2U6JfbN/bkN7IXuh4/kzvqm3vRMWZC+/zjlfFP5AavY3eNGXmXWd/FO/kxfomfl18vfWYuouf8M+4ZvUgneh4+4715ZMyF71mqTDzTv6JiP/Ivfm6JPqc0EtqN/c4/EwcmrNF76Eb0zJhZJlxR/MXPIr1yRbPRs/B59C55RsJwRM9jO7ymTuazSJWHS/Rju7GZUE8uifwyPyybXvJ/VeEy5kMHjLt0zNzz2bLKxGlkb+lzxgttM1yhG+Z5bM+YDdOr/Fmk6J/yOOUfryMzvI7dpfE4n5ubSHk+10+GZstV9Gy5cPHa3Ifhz4zH8uvILs0t9W/l4YrthL9hfMfKuCWKyFV4be7D6zjMNG7M8iJDxe/O9GP8Z/KdKBI+4zrO8BnDtYw98bjRkz/jtrjLZ9Qz9vk88rv5q2i3knCZdAjvys2a57zmr3kY2g3vlz437xZl3KB5UXzGv9AtWg7LR8U6i+7FB/4afxpbkX2+S/wb3osOr40/Qz1jNnJ/dess48fIjvFXdM9n5rn8GfeMXqQTPQ+fhb8kdiO2a8xQj/6N4tv4M3oWv493cRhiv/PP6JmwRuboRvSMZhjP4fvCMC1TZ/E6UzFuo2dGiV7oX9qO4kRU/MzYMWZ5m/EsUrynnVhlmgmfySWR38rKNtM/tmPcMLrhs+XKNu2ae5qLzEZmTB0R2TOKbmXYD60ufWbcM2bDMFOZZ5Eyz42euQuvIzO8zgxXZeldnsaZKnqWGS7aY3qJhnnOcPEZ9Y0deZHRkz/jtuiF5cpYX2o/MlP+LirapVljODIj+qFeqBO/x9zx2ujyNjQX3oeKf3G44rSM7YbPeE/Lobtx2TbP+L/xD81E19EzY4bu0j1zLzrG7aX2Q3+HvysKl/ET70TLmI2fyZ/xD/XEDM2Fbos58WNYXuRe9OJ3mGd0h/9F9vKFvNsMY2pxymzdvXubokin9mFGnD17No455hizEUZxcTG6dOmCfv36oU+fPqFAU4dML3Wx33fFeGGbInRuzHU9dSePpz3XyHaMEa4Xo0+4vojTFVNjRgETJ8v90vhiAffWbo6i7luZAzv9eXNh/f477Lig00y3zeG0aAaP9iaOB8ZNMGvCWPjT8utsvTUSTZuZ3RX934aiYOFCY5ekmzaBs8XWSItZO1WKgiFDaE0w1QrcddZB4YYbmal4pVOnwfnrTzPtL8SCu7m8u/lakgfk9s8/4MyeEz4S3GQC2K4nCgoK4KVTSP/4A5Jl3CjECiuuDuugYMMuIgj7cOfMRsEfI8RWGC7+72+8Max27Ux6pSaNA0aPC+OG4RK3Ez17wikohOu68Ib8jGTp0t03002awt9iSyQdMZ7yYP/4PSyPDdGwcjz3vruxzlbb4pr+1yA1aybs4cMpepvnxO0i727d1sSzN+5vJKZMjZ6I2wVJWNtuF4bLS8P/7kcgVRZOhwwkbE0bI9iSh6pKHC5YAue3X8TtpekVZIQrPX60pNdEeR5uLOKKG4keW8Np3BRpVxoGw39HYu48Y5fE4XK41qysFMGQX2BLPuK7zYdinXYo6NJV4teTvLIIwbBfkQhfbfJdSuza4gY3OQn+kPSal+F2UvKhhCtZWADXE7eGir8XLAxjRcLlSx4LNtvCbLDizV+E5LChka+jfCjvLWjb2kzddKdOgf/XX2YdHk0wHya3CcOVSksZELtORj70GjaCu/VWaCB+CCROS7//HgVlYVkxH7112peHy50m6TXyL4mzpaQ22wzJ5i0ZKviTJyAxdkK5IL1MuFJpeD/9iERZKnrMcDVH0G0zM53UkrxkyXNb/EhMuNbfAE6Hdc002fT4sQjGMh9yIxnJG/RFj61gN2go18KYv1EwbWle8ZIFCLbtgYLCQgRuCqU//FAeLtr327VCwSabh2V70QJYv/5WXrZJ2UZd4LRrDccXf44dDWfKNBMu8y4xZvXaFomGjSUfShn66Scki5cYe8Rv2hSQ9Ga4/MWLUfDrL1HZpn15X4cOSG7Q2UylLZ00Hs6osYgPxQ0YL1tuCatZU1M+8cdwFEjdE+MWFsHablskEwn4ZUuQ+vZHSEjlybJlu7I6i2bSXTYCWreRKzE/+i/YU2csrbMyynZldZbXsCGCbXqEYVnNOovvS3XrCqtFK1MPrU6dlZZ4CNZuBacr80oYrlWus+RpWv5P9OoBp4HE6WrWWZK88NtKXum6qQRCwiDlyx41qrzO4ivisl1pnSVxYfXYFgWNGsGTfOh/P6S8zlqmbEd1VkLqrLhs83+3YycUdOpoynbFOiuzbLPOwtDflinbflEDpHtsE76rQp21SmW7+2awm7U0GzglRklemTFLdEO/VVln8f9GjeGyPhXjaYnr5JCf2Eg0TyuW7arqrGKpD5J/jVgmryxTtquosyi4pubMhcMyEHrMEJdtW+I/+Htp2SYMlyP5MCHfGrNpltQbAdMr9Lop24Gkt3lXhbJtwtVlEyRYb1gSrskT4Y0cE5YvgWXbkzh1mreQ7/7yZduj25tvgQIpC0Hgouw7hislT8KyXXV7RMqJ2E00a2KuV7c94kldbG3avdI6a2Vle3XqrIplmy748m0I5s2HN3eO+S5ap5wo6bMO0nLtPfgInLWkjLRuDrRvj+T2O8BKJJGS/G7eLnnTLGuQfJQP5J2gNaOkBOOKbfRqWRjp1D5hrwRwxBFH4I033jAZd8MNN8SwYcPMB8t80OoA9miUyhfqq9ke+rTiBhJSCMQvLBA1CXvOTI0p7+HISZAuhVXYwLy37NlnYb32mnzgRwITJsHvvD4K/vpDnjkoveB82D98h0T4bTWk6VVpkBS+956psEsHvo3ETTdKhRuGwZc/9/IrkDj0MLmTSvCKy+F8MchUfKZiSthI3HI7En37SMUmjct99oczJ+NjsVYrBB++Ix8xG/Y338H510XmG0bXPZECve23R/Le+01lVvzwQ0g++4w0+owRYyi46Wb4u+3KegbBgYcgMSOjkVkgjZaXXkayQ0dp/E5G+ugjYZeGH4uUuO1IZZW87z748oFMP/skko88KrbCcPENpaedigZnnGU+7ikR2oMP3kdS7EqbUyrNAhQMeB52585ISYPCP+ZIFCwJt3EnbsuWsN97VxoO8qJx42Ede6xohoItd218csoMzDzzDPTrJ4LWU0/BfkwqUn7waFncT598MnDGmRKP4pNLLoIjHxv6jMotFEHrxZdMuLxp0+AeeTgcKYf8YPLj4vPd7w8Uw9II/fIL2JdfbtwJWTZc6csugzvoCxQyTiWOudukc8edSPTpY6a7pg86EIXTZkR2l4aLm7R4kl7412WSHvJxF/cpaPs79EbhvfeZD6L/xuvAbbcuk15l//kP7AMOlLCKsHTgwUjMnFEerhTD9exzKNxoI2lUigC5934mrzDO+BFz27SFM1DclHB5b70J55ZbysPFvEa/Flx5tWmslz32KGyJV0fyvxFZ5AV2ebjScPfdFwWzMz6CjQph/fdVJNdrL3llEtJSl1jy4ePqU1fcC3pH4RL3vEcfgsNdTaMyQNJnnQ2HaSY+9a7rD+f9j+SV9HWFcE2SRofkw0QpD0UI/R20bYtAwsN9NCENVOuEE+BQGOQziVh3r/9D4rqbTLhKr+0nbn9gwsWge46I0CKsJ/faW8qnxNG/LkSS6RKRKkrA+Z+Eq8N68P8eg/Txx5eHKy2vs9brgILX35DGhDTGWG4vv7S8bJP0qSfDOfNs8YiES/Jh4pvvRVfeLP5Ky7sTd92NxA47mjj19twbyQXzjb+M31q0gCV5hWU7GDQIBVI3GKt8JsKy32dXJG+/w9RLpQ9IGX9+gISLeViQvBncegvAjjLmlQMORnLGdD4xpBvI92bACyjcoBO8b79B+uKLpd4S4UBcZ51l9w7LdmV1Fj3hHnQQ7P9cJZ5x4R5+LBLSICuvs4oyynYldZYrQi3Ln8dGqsTH6tZZnpTr4JRTzPtWp87yWT7btoPz1usSThvus0+vcp3Fd6cdqYuvvRaJvfdZ5TrLCP7yjOHyO3RC8tWX5d5G2U2SH9+WMphRZ8Vlu7I6q0w+fck770Vipx3hTZgA9/hjy+usimV7+TpLynPfnVFw252mDGTWWcuXbUnPffdZpmx7DQqA/70Ge93Wy9VZy5Rt5vFHli/b7qX/hn/4oabOCg4/CvakCeXhqrrOkjijQB3Xxe9/COsGqRuk7JKKZbuqOivFdDhY6s2MuniZsl1FncURj7Jn5Pv26OMmz8WwbCfOOEf8KeUro2zH4XKYD6V+8KdOReooqbOKi+VZmN4s2/hAvgOSMbyvli3bDJcndaFz1rlhnXWzlL233jJlIC7bvpi3DjxIzC9ftlOtWiAh7Q1utOVPnICU5MME84qYXml7RH48yYeJgw4W74g/VrE9wjBRueK2Lfm60jorKtsJiVMKw5llOw7XqtZZFcs23034HobBF7ese+5GsveO5psR3HAjbBHCAhHiXaljC198AfYGnbFYvhvJ22+HveXWsETIs7fYArYIc2z7cdQ9FuJIXbWDa4K8E7QeH1uKZya5+G6XxpFO3TFICkbfvn1NhrrzzjtxwQUXSN7nOqi6yWAUeG4YVYIPpawN2jGJwkTtCKNl7OWQd1sff4Tgv8+LIPMFCqaMgdWoGUoGfQlr+J+wt94K2Lq7VA4FZidDblhhKh5+wjPiKyU1SFIqzoQjjVt+aPgFsMMCbGAlEXhmB0AKkgF7iVjtiODGksBRDm4YYXrsKABKpc/eoBgz7M0qVN7Bq3DkRSpzMWKKErdN54ibvI/b1vOBqTxozNSArH75TCpSMZs5Gsd3BdG7WekwPbgZBY2UiRcL5Ze7B1KfXrP5ZY/sG99IjUe/cqMM9tinJPwFch+HK9wYRJ4Z++JPacjEuHzOcImWEYAYccZp0ZBnp512Ojp1Wt8IWmn6i+GSR8aIuE/7jDf6gSM47DmOviXygREDGeGiQM84CL0uATNucXt8CTONioNxmpo4Nc+jcLk+ysROYRQuClrcidLEtzRc+S7uvBgTh0usmjQw4aKvxfPyOnAT/MJEUtziu/kuSW9xK0wv+djQPt8lZrmNPv1dHi5qitmELXmNCWLuozjlNU1H4XLFvYT4Nc6HJp8xXOJXpjFHbukw/cnooh0eqs5wsYeWccxn5UhEsX+Bvah0y+RVeR+DzleXh4v5yPiFXl0aL2lxj32JjFOz9b+8IIj8XlW42LvNWJAfkzXEeXnn0nihPt/Cd7EuKxOBhscIGL8bSywfkjskXhgujhTxiISYsHxZSCYYb8uGKy3PEvKSRDKM0/BRRtkWUmKGvcGM0zBc8lp5zlczLzEfxWWb93E+C8PFeGeahf6Iy6YJl4STIwTcfZRupFwJF69NRjGOy3XYMcU87oqFgowEY+cahQm+m26n5P0UbMQpU2fxOAVTtsVeZXUW49mS8s56LZB30y+ZdVZctiurs1jX0K/ywNyvbp3FWGStJc6sVp0llavYErvSAP0ndRbLLnd2ZXle9TqLbov9KL3oL+qkxS+2eRefCuJ+XLbph4p1FjuzWEC4Wy17+1kmGJYwXIxHurW0zmKcxuklphmlxq+Mi8w6y8Sh2InLtqmzRC8jq9CAcdOMkMi7q6yzmDH4NHo3SYtlNqxNIE3csGyHz1dWtuV/45YR4uRaQljuNh/zivcs21XVWak0O2YkbZjtIqoq2xXDRbO857rwmBWVbWLSR/Q5QhKWAdGUR3y8tGwzr8h3V9xZpmzzoZgwa9AlMBw5ouAapok8NAFnnua3s7KyLf+JO2yX0G3zfWQcid7K2iMsf+waSMot/b467RGWT4ZshXWW8XflZZs2+YJVrbOWK9sZ8DW0y7JivpWiIVrm17QLomeMkJIFC+BIOw/ffovg228Q/DUOBdPGwW7YBG6aX3MxL/lD3lIeR/WBvBO0nppYjOfG+xi0c90LWp5Usttuuy0mTpyIUaNGYa211jKZq64yGKd1nTq0BH1bWDh6vSIUyAeyJmCWY6XDio2Vs/vzL8Chh8Bptha8ffeGc9AhsHv2NJUDC7j5AJg4McVXLtnAkY8WazjRlirNuEtMP5AY44egvMCLYsENn0duRAWZFRnhffkzU3HxGT+ZtJvpPp/L/3EaRd6K7cd+rei/0O3QOJE6kcaMvRjzgZb/2SgK/U47NEG3lw0XiZ+G16Ee7/hufqBZ2S5999Jw0T7ftXy45Hepdwzxu087+RR0XL+TOUcr9BldDsMsP2KROrwn1BNN80jSkGGSm8xwhf6O7GcQ+yF8HscJ70UxTiVNwjhm04Z2Q7dMmEWfDXdW0zHmXTRG//Be7POaf8vnlThWVhQuwejxRy6YP+SHHx/mozhfhObNS0PDvJKfzHBRX95ufBrmFTrKd2WkF//4zPiNZmO7fMrnoV36kT4nof3lwxXazrBv/Erzy2LMVBUuE5DIsIE3oSvmefQXhkvsVywDdC/6WJuyJ/9MGCLi9GbZrxiu0F+Z+Sh8+zLxQjeX3pZDLdrgr/EX3ZJrprZxKTRgiM0aT5pHcXrS71E8SMPdaJXnw5AMZ4y5mKXvpl25k/fTHzS1fHqFbsThiu2SOD+Ya2M3NL2yOsv8yg+DZBzjdWS/yjorMiv/QjvmGTVDwvSqos6SX6alSRchfhpeh3q8M/GSUWeZp2LHvE/iidd816rWWaHPomv5F/qNLkdxRiN039wT6tFgaCcMF/Ma353hltEN74xhXslP6G/qkbjEiZ64ubI6KzQb2+VTPg/t0trK6qzQdqZ9mjEeCuEvX88LhkV+VlS2GRZiXOW7jTOhQ3wb/8JwsWzTUfo1yiuijEvG32EMxnZJqMN3y/8m3OHLQvsVw0X98GkM9RkPxmAG5h0mXGFeY3zHT8p/jJXQR8Z144fQbvg2SSPGI+1LPjSvKQ9XSLkzQpXhkvevVtmmhtil9VUt2+YZnQiNR5fUox+W2q+ybEdkOGPsxRj78hvn09AOTSw1ExI+M0/M+02oDQwbOzxMDpVn7LSQoPCJcdNKlcHiFEV5tuToY2CP/RuFF14I/9BDEXAGAo+8MXGZ20g6RCmbJywuS2F+2se6jetujVYMBa3XX38ds2bNwtlnn20KY12yOOVivptG68KEaayyh7UmYIFPz5gOa+oUYMut4UlhS0yeAnuD9U0vGqcSsCfFFFqlzmEVccopImh17Ij+/fXAYkVRFEVRqo+yhQuAl15B8OgjsGbNRvDG6yjo0SMUYHOcvBO0Ji9JYdTiMuzapkmkEzb8Bw8ejOeffz7SqT1cl2PJMAfF1jYHHHAADjzwwPKelvv+LsPgOWV4Y7umNdKYZi9XWToN/PyzGcHCnnubOd48ZFjJXlTQUhRFURSlJuGoHQcgXBG27PXXh/1/e5u2aTwFOJ42mWvknaD12LhiPDvJw3c7LytoXX/99XjrrbeM8FHbDUkmQW2/k+vD1peM/Mwzz4TDvL6Ls4em0aGhhSs3LqwR/7AQpb/+FjjyCAQXX4TkxZfAk9cUOLUvZCqrjgpaiqIoiqLUJJw6GU/99P1wuqTzxpvArn3htGixzBrNXCLvBK2nx5XgqSkuvtlxqaDFKLjuuuvMVusUPPKhIXnttdea8D777LNmpImLX2eWlKF5ATfBCBe0VjcsRCXcBvzUM5DgrkEJW95TM9MTlepDBS1FURRFUWoTHm3iH7I/ElYR8MZr0mbMzfZi3s3ZOmKdJF7csmY2echVzCJGEbcfHO+BZ5LwvrpgI90chmd2zPFR+PXXSPzrEjiOeWtkKjKXJ0pZCkeTK4ujXFcVw5VLZPq7PqpcpbKw1DelZAeVpU19UnEYlewmIe1E5+nn4I35C/6/L4fnuTmZbnknaE0vc/Hj/HhPFCWGuwvdOdpFTQxWcCc4d/EipOQ30boNChIOHDsh71o2+8WN0/oIw8XwKcvCeOGc7PpGnN65OPpHf9fHvJrr+ay+1iFxuPirZAdxvVzf0iQOl5Ib2LaD5Nprw3nySeCh+5H63wuShtHDHCIv12g9M9HH9xnnaDEK8nvqID90LvqNKsP1XcKDgqtrS01uz+7/Ngz+LjvB4knwm24aPVkW+oFq3333xR9//GGu6wvMTwcddBDuu+8+c51r+YtpUVNTB9nAuvDCC/Hmm29GOvUDxtHmm2+Od955J+fS/IknnsCNN95YrxokjP+ioiIMGTLEHKORi3wv9eeRRx5Z79KF6uWXX0avXr1yqpzUZ1jnf/zxxzj99NPrlXDP/FVQUGDKUqtWrTS/5Qg8Y8/lWq2NOiO5RfecW3KSd4LWW1PK8NQEF+/0bhTpqKDFM2EoEI0v8bF+g4TZ2YXnbFQHpoAccqDEaQLO66/AqeJsLqZD586dTWN+1113rRfpwDB9/vnnZhv/t99+OyfDxDDUpKDFnS8PPfRQ7L777pFu7vPJJ5+YDXb+/vtvE1+5lO6sG/7880/cddddkU7uM2PGDHNm4aRJk7DOOutEurkFhfb7778fTz/9dL2pG8kOO+yAhx56CPvtt1+9CFd9gGnDtsH//vc/0yaqLzBcrAe+/fZbsxmY5rfcgGe2Me14khjbpuag8VxCPJ9XpNy0KDe6C5HGXiANyODEE08019WJK++aO3duIA3V4Oqrrw4effTR4KyzzgomTpwY7LnnnsHFF19snnueZ9Qbb7wRdOvWLZBKLjjttNOCu+++2+hXN3F4CYO8MJ0KCt9eELh+ytxXF/R7aoOOQfr77yUu0pHu8jDeqTp16hQMHDgw0q0fMDzSiCgPY65BP5900kkmz1S3/+ke46Y+pjnzci6mOdOZ6V2fmDJlClv15jdXyaxH6gNx2aiPdX6uw3QRAate5TfCsLRv3z4YO3ZsvQpXPuBJeqWmTguWPPRQUJpiOzV30i/v1miNWBjgiYmp6K7m4TQP9tStvfbaZtSMQ/F9+vSBFHZzhhaHr5s1a1be673JJpvgr7/+MlPNOE3ksssuw8iRIyPXaoZA/maVWmia8OWGPQXVN8gZpCWuZ8yBBIzj9pFu7iNlZ4VKqb9Ult6xUmqfytKBKn6m1D4V0yJTKUpNUFlei5VSP7D8AJ6bgnPFFbAnTTDt1lwh7wStH+b7eHpi7c05/umnn/Ddd99hl112MYKUbds47LDDzHVcCVAvFrQy9YcOHYp27doZVZNY8LFOgwCTdy9C2ry7+jJwkEjA++kHJESYdOz6s5W7z7Vnon7++Wc88sgjZlrgkiVLMHXqVK3c6ylMb3acTJ8+Hc899xxeeOEFzJ49G5MnT9Y0ryMY7yxzTA9OdeLUwClTpmh61DGM/8WLF+O1117DY489hmHDhplywjKkKNUN89WsWbNMnfzkk09izJgxWg/UM7iaxW6/DpzNNoP1+ZdmL4FcIecFLRYkKha0VSlULQt8tC2oOoFi9zJVpt6qvCemuLjYCE9soNFebLeiG7xnQz3m4YcfxpVXXokXX3wRTZs2Xek7Y7+lUimMGzfOVDq0Q72VY2NmqYVDf0khYbZcr74MzMJgb7hhdLcscZhXzY/ZAf1MxdHI0047Dbfccgt22203bCaF/4orrjCLupUVE+fJOB5zhdiv99xzD3baaSfT+dG3b19TPrmmiWU816iYFrmWHlRMD3ZiMT323ntvfPrppyY9cikslUH/52I5IfTve++9h27dumHhwoVmdgY7J0499dScLCeVEadLploVMs3/k/TNtL869qqC7tAvuVovU73//vumHmjYsKHZUIuC/cknn5xTYVGqJogOBPLbtoX3yw8I/NypS3Je0JozZ45ZIHzEEUesUqE6sG0Sr2+biO6Wh26wwhk7dqxZLMmF01x8zFGoiy66CKWlpZHJVWP77bc3HxxuiEDo9qhRo8w1if08b9480/sX35977rk488wzccwxx5iP1MqguwMGDDAbC3CTC+7ixgbhL7/8Epmomhkp+ThOl4zLA7WqEW/YcHgffBDdLQuFz4022shMqZw2bVrOVIr05zXXXIOXXnoJjz/+ODbeeGNsKMIkdxXccsstI1NKZTDuuOkFF/ZTWM0F6GcqNh7Z+cFNIhgG1g3nnXcejj322MhkbsEwcZoyBROWv1xj8ODBuPzyy3H33Xdjjz32QFv5AJ9wwgk4+uijzXOGL1eh3ynEp9PpnAvHzJkzcfzxx5tvMhu7TJc999wT//73vyMT9QOOZrPc8Nu7OjA9aZcbtMTCzapCs+xEZZuA38/qgG7+9ttvphwtWLAgp/Ib/cpRbJZ7tpco1DO/HXzwwabjU6lfOJYNa8fe8Ju2QFDNbdWaJOd3HRwxYoTZHnrixImm0bCyHrP3ppbg6ckeXt9uxdu7x/To0cNUPKNHjza/HTp0MMIWza5qzxzdnjt3Lv7zn/+YdVmsBLbYYgusu+66ppHQokULI4xxFxxWEmVlZaYhd/XVV5vdcShobbPNNqZhn0isWED86quvzE59bAyyEUj/nXjiiUaf8cItTTP9zMbVZ599FvYyBhZmpnzcObMpbll3PmyL76mebNF50CC0lHj9UfxSEcYNR4X4sWnSpImJV/ZQcweq/fffPzKVXdDP9G/Lli1NLzrzH2Hc8hkVp4JmEu8Wxm2zaW5V805tQP+yMec4VU/rZCOJgsX555+/XPhWB76PwjXZaqutcNtttxkBlWsXsznNqVg+3333XdMpwlHmOB35jGSmK9P8ggsuKN91cEVUZrcmyXwfrzn1dbvttjPhYZ3ADp6bb74ZEyZMyPrdxi655BLce++9prOtefPmRi8OX0wcr5xeuN5665nvBOvhbIR+j/3L62QyaTpwOGoe5z3WIQMHDqy1/PJP4PQtNnzZ2cf1yawvMvNdTKy3wQYbmPqRZrOJin7OTBtufc4lAYSzGbhr6qqkCe1yR9JvvvnGmO/evbsRClZWp9Ie1UcffYQffvjBXNPuIYccYp5n2uez1YHmB8l3mu0HliO2NdiB9N///hdvvPFGVuc3fovZZuBa9i+++MKMalUMf6bf+Yxtr6+//hqdOnXK2nApyxOnq/nfl3aUE49xZT85L2ixoLEng72bqyJoPTauDE9NdPHjLlVv7069TEGL95wixt4TjkitTmOTdulPErudSaafaS6+52/mfVWNYfYecgtx9pJReKP/KLCwscePAqc5ZfqZ4X3qqaeM0EfM2VnMwoEND9U3lW8Pia+N5s/Hw/JRqAwKhnF8ML7ZMOXIXDY3ujkS06hRI7MVPbfBXhlsdDN9svX8HoaJQnzFfJlJnH9XJ99XBvMyG73xdePGjU0jn1Nls13QYgfGl19+aTpOVpaWTHM2gtixQlYUtxRy2QlCqor/6oJ5t6SkxKQ3z5XiPXvIY9j42HrrrU2acCQ/mznrrLPMiDLTI95QaEUwz7GBxZGVwsLCSDd7YPli+rN8xfmAdWMM04QdchSAs/2YCAqD/Cazkc4ZFivyaxxO1qNt2rRB69atzX22QSHquOOOM+Gg4mgUv630f5xm7KBg59vK0oWdAg8++GB52PlLoYabZVUFzWXajd8TvzezXl7d4wvoFjt4Ga74np1grL943lS2C1o33HCD6SSioMWNxqqCcaeCllLb5LygRe+zUmePTCxosfCx948fpIqMTbTA3406YY8Fy06p+/XXX80UPy6qjj92FQUtVjxcA7Bo0aKsK6A8i4Q9bFwTxoYE/cewnHTSSaaH8aijjlrGz6yY4nO05BOPSYtc9Pl+EUb1aYhEUuxXU0+BJw0h6+efYT/2WKSzFE59oF8ptFDw40eD0/DYu5ntI1pcD8JeSU6TadCgQfQ0rPgpEGfGNRvdbBDyg0WyLe/UJow/xg97688++2zTe8o8esYZZ2R9mnNkgeWGvcrsuCBMS+Zj/mZ2hDDNzznnHCOYVQbdJJzeyymo/PjXBmxQcfozyx3XM/z++++mXqN/GP+33nqr8U+2j2jRv+woorAVdyTFacFnFUf/4xGtO++80whl2QbzF787mQ1mnl3He9aPnEnBkWCuAc32ES1+Szkb46qrrjLn7sXfU4aR/o7DGJcBjmhRIOMITTaFi/6jfyjgcjdgwnt2ZrJjiNexGdZlFBRX5n9+L2g3tsdf2o07ZFYEzVEQoqCV+V7WMRTSMt/LNdqrA93iKBmFSV4fcMABZqSYgksujGhRaOJoHOOGMyMI/cu6gHVyZpli+FTQym3c6dPhX3opHGnfOhlpm83UW0GLU+bidVGZyKNwYVqF9KF9fogpnNANusuPxfz5842gRTgszcW9/JBkWwFlZc3GPHd2Yu8g/ccpiJzyNWTIENMjmunnTEGLYf1hbgq7fFWMhfs3QoGVNIcWVwf+gOfgD/kRCakEK8KKkFMkOQWIo3D0X7zWKZsb3YR5ba+99jIVezwXnB8kruvjOq3MuFZBaymMv0ulkuQURJY3xgWnRWX71EHCjVs4IsIPN6dFsSeZZYtTCWP9GKb5yqYO0l3GQfzRrwtYl7EuYEOewgrrTvYQ54KgxU4lrs2iUMUGIdPjjz/+MELV//3f/0UmQ+IRLc5IyJWpgxyZ4LeNinV6rkwdZL3OjhOOyLGxTiGFwgk7KTkVvqKgxREtNuyzsfxnpgnhNcsI04Lrn/mc4WNHZvy8KmK7LHe026VLF3OMS2bdURk0S7uM0/i9Xbt2xeGHH27sZr6Xz1YHmmd7id+oiy++2Ixm0T3OLMkFQYv+ZxnhDs8ffPCBKStsB3GWE9fPVowbFbRyG/frr+DvuhvssjIkciT96o2gxULFaVwrKzhvTinDgElpvNVrxWu06Ab1KGhxRIuN6uHDh5tRI56Uzrnk2VZA2ZDYcccdTaOf6644JYn+ZW8he0Hp30w/LzOiJWFdlErhofEpXNq5CAVOgl+MyOSa4ZaWwlu4AIWt20Q6lRNnw3i+frY2umNYwVMIf+WVV8zUJZ6Hxqml8WnzmXGtgtaKYbqzBzWbR7RimObc1ZMfc9YH7BxgBwbriYqNnVjQ4qY6pGKax/k9/ugz39Q29APDRL9lNvRYN+TCGi3CETruOMa1kkwPNlzj0a1MWD9ScOGWz9kqaGVCYYWCJNeuxmTWI9lch8T5iuuOOerPkVPGPcs3R7Jjv+danZ8J/c4OFk69jafurUqaxGGO7fK7QXurmp6MV9pl/uB7q1pOsKrQLforDgMV7ylocTlCtuc3wrhkxzpH5rjOjOvp2dnC/JZZtzFcKmjlNv5778Hb/yAkvFTOpF/V3Sg5ABs8XNDNXXjYo8GKKK7MKmNWaYDppVXvdkb7/HBzswMWRo4Mcb0CN4/g1qHZCKcecJoSBU4uDOV0LH64WFmuFCtAY9vBBesXwA48SLUbPVhz7IJC2K2qnn9eUzAd4/xQlarM7MryEQs41+lQyOdGJ9zUIxaylLplRWlOfcLr+DdTrQymLddTcQSO06I4isyNJDI/5LkGw1STeZbxGqdHxXTJLGOZ9/zNfFYVcXpwN0hOI1zZGo1cgXmKUwZrkjieM+M7Vpnxn6kfP6NaETRD/7PjjzMqOHrNDR848lif6kc26Dlt75+Uf9qlkLW6MP7YofBP31sZdKfidPd/SsV8UvE+zjeZ+hUVzVD4i81TVWYuVoRh4BpazpDhdEq2feK1r0r9wl+wMOckl5wXtDh8zuk7HFVg73Jc8FbEti18nLRuMrqrHLpBd9mTw/n/FFy49Sl3/2OBzsaPBf3FaUjsheY0DQqF8cLvlfmX4R1T7KLb56VSk/MkrZU3cFYV27aQrKYPwurCCprnaXDdCdcC8ff22283uylxrjyfx3CqAddvcB0OBfaV5SPGaZwX4uvMe6Xu4GY1cZpzV0Nes1zEZ8vFMP05tY+NdC40XxkV07zifa6R6f+agvHNLbB5iCjT46abbjJlkOtUOM0vLoM0xzLJEXluDc5RqszyuSLiuI9VTYentojDUlMwvrnWmFPDmC7XX3+96VDkd47T6DlCEMNrdjQyXVieOFuiqjjOLBPxNX9rMjy1TRy+TLUqZJqP42RV7ZJM+6tjryqq202OHrO89+vXz8wU4neVm4ewvGfWv3Ee5HRY5jnCMs+Drrl8gPmR667iETcq5j22y956661l3MqMy/g3vlbqF8HarRD83x7RXW6Q87mwYqGK71dE16YOTu1U9XB7ZW7Ebmcz9DN7DZ9//nlTQXG9GT+crKiqwhbBar7nY0ZZYKYRVqegFfge0l7dnJfE9OKuimxMs4HHRfAcgeJif258ws1DWLFzcwAupuUI1T777GPWXnHKqJKbcPrYmDFjTJpz6hXXAHIaE7dh5i8/0CwTjzzyiMkfFMQ4BU2pflgncaoeR3vZicGF+uy4YoOJHWNsjLEMUnGdHjcaefXVV80GHfHRCUrNwJ0luQkF04UN13/9619mfQ7rQJ4bSQGL5YSNZM4a4cYpHDF49NFHIxcUZXlY3jkdlPUvO3yZr5iPmLc4LZn1L8s716qx85rf5MwNPLjujB2kXDfKThkKajTPDnXOKOLo6NChQ6ts5yn1F3u33RC8/VZ0lxvkvKDFwlZRVcVbUwMc9H0qulsxlbm5MrezgdiP/FCy15iV3ErncQc2Nm2SxEvbJCVH0H71ZQvvjxHw/xoZ3dUucdpxnnYMhS2uS+NaG0454igHG3dcS8OpHJy/zTnw3OxAyV0y05xTSPjBpjDFNOc0Y37sOfWvd+/eOVGuc5W4DDIN4h5o/nI6GeOe6cKF+JyRwN5vNujZsGLDjI00pWaI04Udc5kdiNzwiRsicEQx3h2P07C4hop1Iu+5KYyiVEZmvsqEOwpzzTg7tbihB81QaOIZqLyOYQcZzxnj9Ei6wc4YCvqEa2E5ysU8mGlHyS+C0lLg5TcQpHKnczTnBa3VZUEamO1V34hNNsIPZ7ytKVVc+a2IQJ4VWj42bSbmIr3qwnrkISTvvy+6qzsyw89FxBzJoEAV7+LEHjNW7Iw3VuTUU+oPHK3cfPPNTYP+ww8/LG9gZgpkSu0Q109swHPUhJv1cM1JvDMqd+0kvXr1Mr9KzcL6LoZpw81pWB+++OKL5r5jx44mXbh5EtOGjeNMO4pSEeabGOYd1rcs7+xAodBOWAdwaUOm4MRvMuGUQsLOT05F5MZTdDM+SkXzX/7ijBiOxPHHwBqeOzMe8k7Q2m1tG2d1yL4DK+sSK/AxYjHQ44sUXH/pAtNqgU5lYZ0YL0Tm7mrx+px45I+VflzhK/WHzDRX6h5u4MPG08SJE5epcziqxUZZz549jb42qmoXbgLFOGe6EKYRp1lzN1tO6XrggQfKG8aKsqrEZ4XF55JWBqd9czSL+Y0zEOLD1blzpaKERHVPDn0X8k7QWrfQxq7ZeQB9neFbkmHlnyu/7N+v1o9olpYFrstiry1HtzJ394obdo0bL93+X6kf8KPNtOWHXKl7OAWNZZDpEdc5PJSV2+dzgTx7v1fUIFNqBsZ3PDWQO+MRpg13EORUTp5RxHU2TDdFWR14XAHzFzu8Mke8MuG6QZ69xmnFXMvJXZR5zZEvRYnJtc9C3glaL04rw3E/6UciExsOujax8fPORfBFMuJ2GNWGOOVWo3OrAyv1yhThQntW9nvvvTc23XRTc81pTFRsWPAQSqV+EKc7z9ljOnOxv1J7ZJY7wms21DlyxbLG9KAeN8jgtDSuyWAjnwfcVrSr1AxMhziuuekAywnX0MR6VJxCePLJJ5t1rrFgrCiVwfwS55E4/zBfUe+4444r16PKNMPn3LSIGxVxEyOuoWadkGlGyW9MG9XJrfon7wQtz3OQlqRSluJL3eUFNkYtcmFba34AYib+ttvA6113ay3YoIt7X/kbzxHndEEu9t5www3NLoNcI0I9ruHhPHDuxqXkJvwYM50J05z33GmSoyVsxHNHrBg27gkFbKXmYDqw8R6Xx99++82kCXcQo2IacTMMCldcI8TjNXg4PBte2qivOSqWEzZsuYU717ByI6VJkybh6KOPNlMGY3PcCl5RqiLusIxHpX/99VezmyjLOg+npx7zEjelorn4yADWEYTrso488khceuml5lvMZ7QT7w6r9XX+4rdrB2+vPRCst16kk/3knaC1X3sLt3TTBfCZsBIbsbAMh//swbc8VOeWGIlTTkPhCadEd7UPT4rnwlrupsXT4Lmj1pQpU8xZWazwGXYKWZyuxEbejTfeaLbH18OHcxduQ82zWJjm3NGOh6b++OOPZoOTOM35oeZuk9wNj+Z4nhCFbH78leqD8ck1cZ9//jl22mknc1YWz23iFuEUpF555RWTBiNHjjTrMtibzbUcPBOQI11aBmsGNlrZscQdWJn/OZ2LB68zbbitNutK1oucVs1dOvfYYw8zwsANS7gNf9wgVpRMmK+4aQrL+84772w6LXk23mOPPWaOm2F5LyoqMvmHI9qsk2mO18OHDzebXvCcS56jRTvcIp51ABXXdlFYY35lBwBHyJT8I9F+XRQNfB9onTtrgCwpGHk1Fju3pAzDlwTYqVVRpBNWDuxNZQXBg03z4ePOefYMLz+0HNH6fX4ptvuqBMX7NxLpu0DiIDJYS8TZkKMNHHHiYvg1hW6yR42VemaaUj+uvGNojvfxs+psSLzzzjt4/PHHzUGLJPO9+Q7jmyMYFICqI81J3DvPNORvJrEezWSmA/WoqBdvirImMM0vuOACc2wAqZjmsb94nAAbtRTsswXWDRSOWBeuKfGISRx+/q4oTWJ9mmH6VCy3awJ7yNdZZx3TycJzfnKRzHpkTeOFcR13KlSWNrFexbQi1VU3xm5XZ52vVA9MmwEDBuD1119frfwW171xXorzSmZ9W7EOporzIonNxc9i4m90bD5+tjr5ke+N69xOnTot476i1BR51y31+gwL/xpe9QG++YePrk0TGNG3IQI/AakCI/01J/XUkyh77rnornZhJRpv4x1X0FTxfSZsXFM//lVylzgd47TOVIT6cTrHivfx9v5K9cH4zIzrqtIkvo/Th79KzRDH8YrShteZ95lKUVYE80ecp+IyHOe1zPyTqRdfxyo2R/1MKpqPzSn5RXrKZJTtsw/8mTMjnewn73JpwvJE6Qe8IqV+gM9mp6UGDKo1U9g//QLrm2+iu/oDe8YqU0r9pbL0plLqhsrSIlZK3VFZesRKUWoCzWv5gz11GoKPPwYmT4p0sp+8E7SObOfg5a2113pZbIxZ6OHc310RtLinS/VlC8v3kaiHlR6nLnAzjXjuOdctxNOklPoJP94PPvigSfcXXnjBTHeMN9NQape4McW1lf369TOH63I9Rzw9V6k7mC7c4ZO7xbGc3HPPPWYXOUWpKbiLMNcYcg3Y7bffjqeeekqFrXqKbVlIeD7HBHKGvBO05qUt/LxQC+AySIXUMGmjCUTQMrMGqy9+pDmEwKp/2WzhwoW44YYbcMopp5jtarfddtvyHZGqg7ghqR+L7GHBggW4+eabzcGt3ImtR48eZtcspe64/PLLzU5m3KHszDPPNBuaVEXF8pRZzrSsVR/cuZBrYI466iizVjHeJa6qOK6YFrFipxZ/FWVFULjafPPNcfjhh5t6gLtnroyK+YwqzmtUSnYiqQPu15ZLKZR3gta7M13cPFpHHpYlwAYNExi2exO5rt4sYdkWvHooaHGeOHe241kzPFTxsMMOQzJZ9W6WceUdV+RVKZK5QFipe5jm3MGSu2S9//775qO+sjRXahbG/0EHHWQOOOYh4yyPK4LpV1lZo9LGfPXBeGa69O/f32wyNW/ePNMxUVX8crc57m5YUU2ePNkcdKsoVcGdS7kr5l133WXK8kknnRQ9qRwKYjNmzFgmr02bNs0orQeym4D1uCipaCKd7CfvBK1WhT7WdrQBm0lgB1icdvHkhBT8wAt7DKqLs86Fdf550U39oUmTJmZXNm5Pu9tuu5mKnSNaccOtIp999pk58LNDhw6rpLgzErfF1Uo/e+BBrZySMnHiRDOKcuKJJ+qIVh3DqbtMl/POOw9dunQx28SvqMxQAOjZs+cy5YxlkrsRckc/PlfWHMY/BSxu588R4M6dO+Pdd9+Nni4P453Hbmy11VbLKG4lz4Pj77zzzsikolQOd0rdaKONzDeTR0Rwu/iq4E63zF+Z+Y0zFDgKy92YlSymyyYI/vsisGm3SCP7yTtBa//WhXhr+4LoTiFW4GNMcYCbRnpyXb2NjaD7pgg22Si6qz/wDBqeLcOzPziVjGtF2KtOKmuw9erVC19++aVRgwYNWqHi8y+++MKMkPGAXW38ZQ9MD6Y5z3Nh72lmmit1A896YmcHD6LmyAnPgapM0KIe1WuvvbZceevWrZuxuyIBTVk9GI+cKkjhimWkZcuWZr3Wikboaf7pp58uH1GIFbfi56ixoqwMrpXl2V08BJ07EbITrKry/O2335ojHzLzG0dPW0dnM2ldkL0EDYtgHXEYUFAY6WQ/eSdojVrs48mJ1beWpj5gBQ7aFFrYs60NXxr2dnXWMSLEoZqFt2yADbOXX37ZHPTJw1c5ZYnbg5PKKmke/MnzYlZFsQe4efPmWtlnGUxznivTsGFD3HrrrSbNdepg3cAOCCo20Pl72mmn4YEHHjBlsLLOCeqxPHEEq2J5Y3rG7ilrDuORo/0UtjjazwYwp3ZVVZ/F8Z+ZDvGvoqwMngdKDj30ULPxCuvlleW3+DdTZeop2YotbdZwzWeukHeC1jdzfTwzIbpRQqRSaV/kY+DWjmQIH141VjLWdTfAu/nm6K5+wd0GeYo91+s0bdrULMJV6jds2D/55JP48MMPTZpzt0ml9okbUZySy01pOAr80UcfmWttJNU9nF57/vnnm/Th9E5O/+PZR4pSE/CA9SuvvNKsl+YoKr/NesZWPWXs3wjadkAwIXemeOZdTly3EFingVb4yxJgZsrBUUN9WL4NqzrXaM2YgcLJk6Ob+gPncrOndv/99ze7HbEBzl5b7Q2rv6y//vpmqhl3uON0M/baM82VuoHC1scff2waWEwblsHtt99ey18WEB+DwHUzTJ/jjz++/LBZRaluOHWYnSzrrbee2fFy9913j54o9Q1n/gJYc2bCnlP1DrPZRN4JWnu0SeDVHtUfbH70OQc9VryvqFb0PL6vzF5tIG/G5NI03poifjNCVt1vFlIxHrJNcWoCG9ktWrQwlXvmtMGKimgDY+VUFnfZpJjGTHNuvsCNFNhDz3StzCzJ9TSvLFzZomIaNGhg0oSCVlFRUaVmqUh9KoOVhTFbFOOZacFfTtXkxkEUsiqai8OhZD8V0y7bFPNbYWGhqQe4+2hc1iuaU5S6wJLMl1e574d5ZXhvqofrN20Y6YSFkbskcbcZ9lL/kw8y3aCgxB7WX3/91exGVpk7bdq0MaMgXCjMLUVpr6I56rHXnDsu/RO/rArcpYfh5dxmP/Axq9TDpSNK8MzmRbATDmyrekb9vDPPMptt2I8/HulUTpwNuWbi6quvNj1SNRX22oTh+vTTT/HWW2+VH6ZaVbjieFjT/JgrMLzcAYq7+HE9R30Jazyl7e+//zb3FcMVpzN3l/z6669NAyFbYN77448/zFbJ9QXWtb179zZTjLjLYEyc/7i2gwvoszn/cWfE+++/30xdrQ/lJC4DO+64oxn94ncxJn528sknm9kD3Cq+PteD2Qbjf8CAAebAaW74U1+m4TFc3JiKm2EwX2XmKT6L6+OKz5TsIfjpJ3jbbgfnpyGwttkm0s1u8k7QevzvJXh6UoDv+zSOdMICVh0N2zgq77vvPrNdLeGcYe6MxV3qOLXlt99+w0+SUSiUbbnllqZBw0YmF9dz55y//voLV111FW655RZzPkxNFfZMQYv+9rwUXPGT7Thw7CScanpv+sKL4Fs+Cu+9P9KpHPqBap999sGwYcNM/NQX+JFiQ475gulZVZrGeShfBC0umGdZ4W5wcdjrA0wzlu/33nuv0jSPw5qNgtbjjz9u6of6VAYJN6Rh3cuNZmKYDrkiaH3//fdmN1LP8+pNWYnLBjeZYQM4jv84fCpo1Q0s+5988omJ//pUDzAPcfTrxx9/NLthZgqQzHMqaGU/6aG/IdhmOyR+Hwq7a9dIN7vJO0Hrm9kleG9mgJu7Ve+IVgzdYi8Q56STSZMmmR5UVlZUZ5xxRvlOWbvssosRxE444YTyXXNohmt/lixZggMPPLDGCvuygpaP0YvS2Pf7Jfi9bzMUJeSd1XTIcGr2LLiWg4YtW0Q6lcN4ixXDXJ8quYrhqipsNEfyRdCKG431baF8nI6ksjSPn2ejoMU0IfWlFzuGdSvToWLjKlcErfgbUh/LChXTJY7/uHyooFU3MJ+xHoinxNcX4nxVMb8R6qmglf24XgB35O8o2KS7pGFupFH9+pKuAj3XSqD/xjW3gJ2Fs7ICykX01D/33HMjnWVhIWflxrNduKCbh2/yvrS01EwzvP32283uTZwCwwqQz6oPC/NcC+NLbCQsHlhcfdmioNXaKxWyCOOGFR8bEXEFWF9UxXApS2G8xFty1yfFtI4V73MJpglVxTDluorLYK5Cv9fXshLnNyU7YJpwHXLFtMp1xXBpfsttEo6Fom6bSzrmTvrlnaA1ttjFkT+VRne1w4IFC8xZSyzgPIF8RXD6BE8057kuFLQ4Gta9e3cznXDPPffEBRdcYIQwjnZVJ+zj2aSRjSs3jrPD0t74NcUXv6ejdSqKoiiKoiiK8k/wy0rhvfkm/GjmRS6Qd4LWItfBlFqUs3jODoehhw4danpQKutJ4VD1DjvsgKOPPtrcx70v3Fhj3LhxRvjabLPNzBoDLuYeMWJE+RB4dUDfNLIDXLFREezAFjGr+twOHrgPfj1aVK8oiqIoiqLUPsHvw1F21BGwfv890sl+8k7QWrehhVM71F6wuWMPpwNym9sVwV2XuEsZ56FnClCHH3642SSDB+E+9dRTKCsrM/rc0ZCjY9WGvHJsqY9NPimG5yy/C+KaEHgBHDe3TvFWFEVRFEVRsgue81rgetK21BGtrKVFEiJo1e4hozzQ9rjjjovuKoc74fznP/8x278TCjs8r4c7MZ133nno2rWrOTOmRpB3LXYDTC3jSFqkV01YIsTlXSZTFEVRFEVRqhXTRPWj3xwh79rAY4oD7PdDSXRX/XBEquK0Pt7vtddeK5zuF08V5ELn2BwVN9Dg2ULbbbedOQMmhhthrMitf0aAzo0TuL6rSKHsJKhGp30pDV417WCoKIqiKIqi5CfcBs6rzhldtUDetYCL0z7mp6s/2LFwRLhTYAyn+1GI4lla/CWxWZqjXnFxcbnd2ByFKa7R4tlaX331ldmOnbsN8hnXbM2dO9eYrw64JquBY+HQ9o5c0Y/Vt6OhvcUWCHrkxqFyiqIoiqIoSpbSZm3YfXcB2rePNLKfvBO0Nmzk4F8b1cwBfBSOPvjgAyMY9enTxyie4v/777+bNVWxoMUt2rlVe9OmTY2Z+fPn47nnnjNrr2Iz/OW5Lpw6uOGGG+Koo47CDTfcgG7duhkBLfPQzTXFkr/h8zxs/uUSeS+zRPVlC+fss1Fw+unRnaIoiqIoiqKsPs56HZH89DNY7dpFOtlP3glaDRMBejRLwg/caj6LKhSOOPWPh8zy0GGqm266yewYmAnXYfHgYo5Yffrpp/jwww/NocUFBcuuHeMW79yR8L333jMC1jnnnGN2L+Rarlggqw44lmZbHhzfk3hJVefMQYljD141x7OiKIqiKIqSX3D2V9qTNmV1NlRrmLwTtEYsArb4MiWNf06Yq76UouATH4YXj15l6mWSaSa+ju8r2qtKVSfdmhVgSJ/GkiGqd6MQ74cf4f78S3SnKIqiKIqiKKuPt3gx/PsehFdWc3stVDd5J2i5noe0CMOWCFpWNa5Fym0C+IGPScXy63vV2lFgD3gO9lOPR3eKoiiKoiiKsvrYo0bBvuwi2CP+jHSyn7wTtLo2cfBmTwe+zYN58y74lRKIkDV0vof9f0xzwVb1CqBBAEflWUVRFEVRFGUNsKRNabFNGW0glwvknaRhOxbWK7RhG4FCBS3CuChIAIUcyzLxoiiKoiiKoijKmpB3ksbw+Wn0HOwBvgs/yJ2TpWsWC10bO/ilb5FcSpYIqlPUCsxZWoqiKIqiKIryTzG7K+RYmzL/RrRsB47tSkI5sFQAMFiBjVQADJqTljsuYKu+iPH79oW7197RnaIoiqIoiqKsPn6n9eEfcSS8DTeKdLKfvBO0Nm3i4Lc+hbDgyJ1KWsS3XPy10MO5v4u0JXJWUJ1rtA4/Ata++0Y3iqIoiqIoirL6BGs1h/Xcc7CaNI50sp+8E7QWuh5en8oRLQ+Wn3fBXwE2miUttCtIyxV3Y6y+eLG4apGLwBRFURRFURTlH2ImXDlsp+YOeSdpjCu2cNUfXJ/FHUtyZ9eSmsVGp0Y2Ru7eFL5FUasaufk24N77ohulpuFhfjyIm7/5ohjeOMz1nTi8mb/5oDLDnA3QH/kU/1Se55nfXCDTv/mi4jyp1C7MZ/lYF9RVXrMmT4LfsQswfXqkk/1YEml5JW2MWFiK//suhTG7FSJpJ83Bv4yC6667DuPHj8czzzxjDgyu71x77bUmvM8++6w5vHlBKoX7x5biyo0bIuEkYFdTHLhnn4nAt5B87NFIR6mKuDj+0/y4YMECfP3118ad+p6P47jaYIMN0KVLF1OWcyXMsd/XXXddk17rr7++uV8ZtMcP3AsvvIBx48blRV3FMDNtTz75ZLRv375aD2un2wcccAAOPfRQnHjiiascn2xoDBo0yKRdPrHvvvtim222ie5qjrh8MM07deqE/v37r1Ze//nnn/Hee+9Fd/nBjjvuiF122QWOw2URyurCPBfXx8xzq5rfWB8PHjzYqHyBccOyyfiqbdyffoK/fU8kv/8RVi3URdVB3glarkcp3BdBImyUUTEK8lnQEjkLv8wtQ6+vSlG2fyNYtlNtgpZ35lmSySS+H9dDi1eFuDj+0/z43HPP4eyzz0arVq3K3arPpFIp9OzZE2+99Za5z5WyG6fNPxG0SOfOnY2duvjQ1QWff/45Hn74Yey3337VmsaMz38iaNHeKaecgl9//RWbb755Xnwzhg4dioMOOsh8O2qaOJ//U0GLfmRnRO/evSOd+gvjatiwYdhqq63w9NNP50VerAkYj/9E0KI95tPffvsNW2yxRaRbv/niiy/w0EMPYf/99490ao9ABC1v2+3g/DREBa1sZWZpCo+MTeOqLkWmZ5QCBaMgnwUthv/vJcXY43sXY3ZtKHGSlDiIDK4h7llnSiYDnMcei3SUqoiL4z/Nj0zP119/HQMHDox06jfvvPMOnnzySbz99tvmPlfKbpzOayJo3XvvvXXyoattGGY28E8//fSsE7Q6duyIfv365Uy+WxNYJ5FcEbTi+rO+w7i6/vrrMWHCBBW01gDG45oIWnE+zQcOPPBAUx/XxffHFwHL3a4XkkNyZ0Qr79ZoTSwFrh/piTAhN4HOZyaB/HVqkMSYPg0lFztyV33xEjgJpLXerxP4ocgHFTfK8gmGubK4qK+K4c22dI79U5l/66OKw5oLZPozMwz1VZF8rAezkcrSp76pusS3pI2alFaq/OYKeSdoNUpY6FAkicU6aQUZJhs/6jWJFB3MSVm4emQKgV29u7k4Z50F58KLojtFURRFURRFWX2srpsg8eyLsDbrFulkP3knaG3UwMZfe3J6XChgZPL999/jwQcfNFMO8qt3yMKUUg93jnbl0hdVfaKW3b07kl27RneKoiiKoiiKsvo4DRvCOfpI2AUFkU72U+uCFhdt3njjjbjpppvwyy+/mMXEnPvNOdVcTMgFtzfffLPR4y4unC9Lxfvbb7/dmLv11ltxww034I033ohcXXVml7k4Z2gJXCy/VW27du3MvNMPP/wQt9xyCxYuXFin21jWGhIP6xRaOHo9B4EncVKNMmbac5HyvehOURRFURRFUVaftLTH034ZAjMtLTeoVUGLgk23bt3w5Zdfmq1XuVsTFQWm//3vf9hss82w6aab4tNPP8Vdd92FHXbYAcOHDzfqyCOPNPdc9Mk5olx8+NNPP0UurzoTyyw8O9E3y7MqDlrRf4WFhTjjjDNw1llnmR3cHn30UcyZMycyUU+xArQsdPDMFgVwrET1nqN1dX8E/fJjgaiiKIqiKIpSM1ijRsJr2R7BuL8jneynVgUtCkg844G7/SUSiWWuk8mkuaeKF9zxGXeDotp4442NHoUh/vI8lQsuuCByeVk4ArWiUai1Ez62bMrpceJOUPkUOfqhZcuWOO+883DsscfiqaeewgMPPIDi4uJ6O8I1rTTAll8tgsSc3FXj1MG5c5CcOTO6UxRFURRFUZTVx1m8BIn582DNXxDpZD91tkZrxowZRoDhdqRz5841AlRltGjRwqiKUNhq3bp1dLc8nJLIUbOK6vcvP8W1Swbj4w8+xQcfLNUfPXp0ZHNZmjVrhn//+99mO0tuI/3SSy8hnU5HT+sH3HVwaqmPkQsTIkR6ImblzpCsUjUsV3HZiq9XVNayiUy/5oJ/65qK8ZUrcZaLfq6MiuHIVNlMZf6lqk9UFr5Mla3kkl+VpVSWbrHKVirza6yUNafOBK21114bJ5xwglHNmzc3glNlmLOuIpVJPOJVGRxxevnll/HII48sp+56+gUc9kPKTAl85LFQj9c8Sb4y4vess8465vBDTmP8448/oqf1A24K0rmRhSs2thFYCR6uFj1Rch1WlCwPcYWZCxVnpp+p8mKd5BoQx1EcX1S5EF/08+LFizF27FgsWbKk3O+5RhzfsYrDkSvhYcch0yDu8KyPZS1OG5Ir6UP/8kD2cePGYebMmeV5S8lumEZxfovTLNvzWuxnztr6+++/zW/sf2XNqVVBKzOzUXiJpw9SmMnMkLynis2S+Jr6hPcrygR0mxtm8DDTiuqOpwbA7/F/ePvNV/HWwIHl+kcddVRkOyT2C9/x559/4vLLLzcHAnIjj6233joyVV+wsFYiwBWdk7CDNLxqzBVBgyJ4TZtEd0p1sioV4YgRI3DIIYdg3333xW233YZzzjkH33777Urt1QVxeZs/fz4uvPBCs/HNf/7zH6NKS0vLy2S+EcfLisLuui7uueceM/2a6cz42nPPPU3nUTbGF8PCxj3Tl/Uu8yinaF999dVVhrMuob+oKiP+Xn322WcoKCjAFltsYTZ72nXXXc1B2gxPtoUp9tMrr7xi/MnOQ/r58MMPL29k5QoMR5xvVhTPLAs8jLZNmzZms63dd98djz/+ePQ0u4jD8+qrr6Jv375mkzB2Bh999NGmYyKX0qa+wbhfWV6L62Ou9+cB61dccQX22GMPM8sqtptt0M+sj4844gj89ddfJq9dc8010dPswissgO9II7VJ7rQra1XQIsxo3M2PPZjs0WQCL1q0yFTu/PjynpUJe3JoJoaZc8GCBeaDxt+4B7cyKGhRxR/AZRXQLElDIuDxjxorgA1SFhiOYlFwO+igg8rdrU9I1YG/lwTY5PMyCVv1jmgF/fvDvbpfdKdUJ+zlnD59enRXOdx8huWFDanLLrsMp512mmmEDxgwIDKRXcyaNctsesO6gKfsc/dPhpENDtYb+QhH5xkHK6rv2GHVp08fU7dy1J0Nyb322gv/93//Z0Yqsg2Ggx1WrFMfeughIxy+8MILZmo2ha1sbIgMGjTIdLhV9c1h451p0LlzZ1x11VUmLBQk33zzzawM01tvvYXjjjsOl156KQ444ADceeedmDdvnkkPfoez0c+VwU2xhgwZYuJ+RfTo0cOs6+ZSAHZEXHnllTj33HPBtdfZBuOdAvrxxx9v6my2O/r162fqxn322afeLV3IJZjH2Dkxbdq0FZYPdrZk1sf8hrE+puJoUTaSWR8zj3FzOi7tYTnJNoJum8IdPQrBhhtFOtlPrQtalJaZoHfffbcRYLg2ij1LbPiNGTMGI0eOND3vH3zwwTLrpli5NGrUCJ9//rlpQLDXmx+31aWNCFmndHTgUBirIDBxdI2Fg/7gh5IC4CWXXGI244g36qiPMFRz/QDTS/1we/dqXKNlN2sCp3Hj6E6pTtjw22STTUxPFIUp5t3KKv+lnQyWGY3t2rWrGTGKR4myBfqFO32yjuBHKe7U2G233UxDqqrjHGg3UzEuquqMyTYq+j9TsX6kwMwjLlgnxeZXBOOMjWVOBeOHM9ug/x577DEjkHTs2NHcs27nrrPcbZYdbSuiYtxQ8dvA3+qgotuxoqDFkSrudjtx4kSjVxUME0eK2OhiI4b32cYTTzxhygg7Ngj9uM0225jjVHimZEUqxkmmojtUNUll76XiSMH2229vvtNMm4rlvmLcx2nTpEkTM1K0onqzLonTZscddyxv51BY/Oabb/Djjz+a+8rIjBeqXKsH65qK8VdRMe+w7uI3lDtg87tLKrZFaTaGz+L6mEtVsok4XCuqjznQwA7OzPBkEtvPVMxvzHc1hhTngvU6mt9coVYFLSYgE4/S/i677IItt9zSbOfOeyped+/e3Tyjypyix2HYnXfe2ejzt1WrVstVoKtCuyILN3UtELvhlMVM2Gt8//33mx4y9iBxuJfQ3D95V64g1Qc2aZDAdV0TDKzoVF+28EeNgT82d7bhzBaY33imXHzGXGWKQgkbpTxTjhU/G6lxQzyG7sQVYJyPOYWG9jj3P5ug3yhk0a/c6Ib3hDuAUo+CZSbUYyOb5fXggw82ir2/VLyOp9pkM/wI8+w+jiisSP3+++8mXdlg5+6rFJ7iuCFxumbCda+EnUbZBtOMo7GxH2O/s+HLZ5WN0nKE5dRTTzUNgfXWW69cdejQwUx5+6fE5eK+++6rNO5j9eKLL5oGxPPPP2++YdwgiR0VmcThyEyLtdZaK2t7sadOnWrCz3gn9HfjqFNsypQp5jcTpg0bXpnxHyvWP+z8rG7oJ25AVVmaxOrhhx825gYOHGjS5uyzzzb5KxM+j9OFvyx3XCc+adIkc894yBbonzj+47QhcdpMnjzZ/GbCtHn99deXKx+dOnUyswGUVYNxz+N9+A2pLK9xGj4HCOL6mB2drI8r5p84r8VwQzcKHyvadK0u4ewxjpayPo7DQf9XVR9T/5RTTlkmr8WKQmVNlierLA3/7TcReLkzhbZWBa1sYNhCH/v/UBbdLQsrafb0c7pHUVFR+fqx+o+FRgkfh7Vz4NssINUXZvvee5G8+67oTlkVWCFzbjfVqsJptiUlJVX2JLHyo+I0XU43iwWYbIJrKNgIypw2zGvqtW3bNtIJYdlkONjYZqWfqfihfO2117J6uiHTio1I1jn8uK9I8SB1wrBypG///fc391XBs/8YZzynMNvgKM8GG2xgPu6Z+Y8NdX7sufFQRRh2Hlj/3XffmdGWWHFNwfjx4yNTqw/fT0GNHReVxX2sOJoQfwt69eplhPgGDRqY+xVBwYw93tmYBmSjjcKpN+xpj2EaMJwU6CvCdOPU48z4p+I0NwqTFQXP6oAdnpwBU1maxIojckxH+psjW1zvRyFqRdAsG4qzZ8/GhhtuaPSy6TtP/8Xxz6mcMVWlDddn7r333ma5Q2bacNpxtgr62QbrY8YX62N2flWW15j/+R1iOrB+jevjzHqsMljX0TwHF7IJhoODGOuvv3555wTDwrhgvcD6mB2zFcPH/HbHHXcsk9dYN7PTl7PSGNaawhnxB2yp961hQyOdHEAiMK94bmJJsP2Xi6O7EMlUQf/+/YMTTzwxkI9jpFu/icNLfN8NfplTEjQcOC8oLUsHEglGvzpwzzgjcE8/PbpTVgbzIvMgf2O1Ij777LNAKrTgyCOPDCZMmGDsPf3004EIaOX2qLfLLrsE6623XuC6biDCWNCqVavghBNOWKn7tQ398ttvvwVSiQe33XZbuf+uuOKKoGHDhiaMFf0rjbzy8GY+mzJlSiAfEfObjdCvTJuKaV2Z6tu3r1HDhw83aUg7nTp1CgYOHBi5FgQ//vgjv4TB9ddfb8zcddddgTQIAvl4RiayB/r/7rvvNnl31KhRJozyUQ8aNWoU3HPPPeZ5JnzONGZaV4yvuB7j9T8hjs9MNytTIogF0sANPvjgg3I7LEN8f2yGesxzBx54oLn//PPPA2nEBF988YW5zyboH/qLafDiiy+Wh2GrrbYKDjroIBPGin5mWDPDG6vJkyebcPO3uojdZpyuLH0effTRoE2bNsH//ve/cvOZ+SJW22yzTSDCpQlbXHeyvuQz2skW6J8vv/wycBwneOmll8r9v/XWW5u8Rf9nwmdxeCvG1dixY4P27duba6Vq4jxflaKZzPo4zm+M+8yyMWTIEFMmWB/zOetj5lHWx3yebbA+pn9ZH9O/c+bMWaY+ruhnES7N9ycOLxXNUY/fppoMozfkxyAt3zr/p58inewn70a0Dm7t4JUeiehueSSzRVf5g2mhWTY8PwA7IqTEhQ+qBSuXptLWOcx/7A3ib6xWBIfpBw8ebDYSYK9TbC8TTg/kwl2O7Pz3v/81OyDJR6F8uk1V7tc2Uh+ZUWWORL3//vtmnSavuS6BZ90xjBWpyv90L1uhv5leFdO6MsXpWh9//LFZp1VZGrN3nlMuOerCaUXPPvus+ZWGdKVnENY1TBceBs8pN9y448EHHzSHz3PROH8ZxhVRMW4qxsXqwlkLq5IGHMH65ZdfzPrgeKYDFZFGhVE//PCDWeNEWCbfffddfPTRR2adTTZCf7GMsazde++9Ju65HpJTklc0myMOd0XFNOVvdRG7uyplhGnCXnSmUab5TLgZEJcbcMSc0z+ZNlzzyeNlaJZ2sgkuj2C6xGnDTTGYNvR7VWTGS6yqO23qK5nlekWKccn9BViuOW2wsrzG+pj5jfUxp6Y+88wzWV0fk/PPP9+0CVgHc/kM73nNDWMqC2NMZtysyEx1I28y/+cUknHyivmlqeCVicWB66UDzw97sSh9Z/aA5QNxeAmDXOq6wUuTl8h12txXF+kzzwhSZ+iIVk3AHqRYxflWKvXlRrTi55nmqbKNiv7cddddgwYNGphRKfYkxs8zYQ/aika0WL1l64jW6hDHSXxNlTmiFT+Pf2MVm802Yn/Rj+zhlcZHsNdeewWlpaWBNFKMfiY0G49oVQwPR5pqo96O/Ry/h7+ZvdhxfGfGfXxNlW1U9J80CoN11103mDFjhrnnc6pMGFbGd0XquqxV5tfMfEEVj1bEYYvDXdFeNpDpZ5YHjp5wdDpOG+pnQrMrar+MGzcuaNeuXXSnrClx/GfmHf5m1gVUcf6K812mHq+zjdh/zGMtW7Y09XFZWdlyeS0mHtHKhG7UzojWD0GpZeuIVjYzstjDJcNduQrXqyjslQAKHQdHrtNQrhPmvroIttgS3jY9ojulOol7b6vqccp8nmmeKtuo6E/2BHINDufGP/3008usJckn4jhZEfHzimnMe6psI/YX/chRBvb0cr0Qz23h7n7ZWC/Hfl5RfFaM/8xrqmyjov+4zkoai2bzHa5TYa98rlBVuhA+i0crGNbMsFdlr66gn2I/U/F4gPhcQa7plAZxZFKpbZhnmCZV5Z3M/JU5ShbrrcheXRL7kSNuPA+QOxCyPv7yyy8jE9mD37oNgl37AO2WXbOdzeSdoNWpyMFJHSSxTF2VfRm+LvClXeN6KZS4Kfmt3q1gE2edhYLTT4/uFGXV4dRICls8UJyLkLl5RzZ+pJQ1gzvNcnoUj/XgtttsjCi1Czdc4UJ2TuPkZlBc7K5kB02bNsXll19uptpyeqSmjVIT8NtKwZCb9/B8OW5Cw/o423DW64CCTz4F2i+/aVK2kndftBZJB9dsVATbsfMv8CvADjyMXuzhoB9KYFVzZzILb8XzyhRlVYh72TKVUr+I0zXu6dV0rhsy4z5TKXVLZWlCpSg1QS7kNfqJbcpcKgX5J2tYaXT4rASjFqWRO7vw1yyeZNrFroV5aQd+NUta6ffeQ+mHH0Z3iqIoiqIoirL6uLNno+TSyxDMX3r0QbaTd4IW5eCWhQ4+me7riFYEewY2buzg8g3TZkQrMPsQVg/WuwNhv/l6dKcoiqIoiqIo/4DxY2HfexeCv8dGGtlPHsoaDt7tYeOEjg48HdOKsFDq++jYsAjcHqU6h2Qt30Ii0KkOiqIoiqIoyj/HEbHF8aq3nVrT5J2gxbUADZJJnDK0GCXcfFAxPDmxDP+b7ML3q3M8i1S3e4qiKIqiKEq+kYstyvybOmhZaJp08OlsG1/OVkkrxIITOOjRvAAFliN31ZgtuJhSB7QURVEURVGUNcBsgyH/ckncysOpg0CRHeCJLRPo3tSG6/nLbWfO+/quliXAhRs6OLJ9QnIEs3H1ZWH/0EORPvKI6E5RFEVRFEVRVh9vg87wrroC2LhLpJP9WNLozr1xuDUkCHyk0x5em+5iuxY2NmiUxPXXXY///e9/2GmnnSJT9Ztff/0VW2yxhTmnaF6pj55fzcNvuzZHQ6d6ZW/Pc+H6FgqTTqSj1CTPPvssXn/9dQwcODArt2atbnjG1uOPP27CS+IwT506Feussw6mTJmC9u3bG736QFxdb7DBBrj//vux//77m/v6DMN8wAEH4PTTTzfhzczXPGB33Lhxph6rzfxOP5188sno1KkT+vfvnxdljQfmMpwMbybZWNbqKl/UBcyLDO/48eOXCy/1evfubdJIqRnysS7IrI9jGA/vvvsuLrjgAowdO7bG4iHte2btv2VbcETlAnk5omWQkL89w8Vpv5bClwzCDMPDANddd928UPvttx9OOukkpEUQ+u/kJShykiisgcFYngtNwVZRFEVRFEVR/jmWtCtTnD2YM+TniJb8+V6AmWkXT49P4/LOBewKRyKRiEzUf3w/FH7SnodiEbZmpixs2KQAjlW9srfb71r4BQkUXH11pKPUJDqiFYZZR7TqDwyzjmjVPTqilZ0wL+qIVt2Rj3VBXY5ouaNHwd2pDwp/+A5Wx46RbnaTlyNaXIXkODbaFibw742K8MCENIYt5NhL/sDdF6kGzvBw+YgydG5cIJmh+guGNWM6EhMnRneKoiiKoiiKsvo4CxYiIe1KzJ4d6WQ/+Tt10CACl8gWayUDnDM0ZbY250gPpxJSOq/PmHCKumNMKbo05UgWhaz63xOjKIqiKIqiKLVBXgtaHNq0bQfHrluAOzZzsCSVwuglZUDg1cBqpezClxB6gY/7NyvEBesnTVzkwYi3oiiKoiiKotQKeT6iFZK0EtixVQN8PC+N7b5I4fbRZfDNbnmuGd2qT3AUa0ZpGif8vBhX/5nCdi0LkbCT0dPqx08m4RYURHeKoiiKoiiKsvr4CQeeqEDalrmCCloCt4nkiM4Baxfhg+0L0L1pAiOLPdz4Vykml3oibPGsLSpJZDOtMFz4x79sxvjRp3/Ds8IYjjLPx/glaawtws85G9iwLbtGR7Ksa/sDN1wf3SmKoiiKoijK6uNv1h3270NhyW+uoIJWBslEAr3XboB92xXCQRKD5wQ48+fFKEuXYch8F/PTpQhEUPECF57nGSEmm/F8D66fMgLWmMUp7PL1Iuz8bQl6NCvEPVsUomPDoshkzZFo1QoFzVtEd4qiKIqiKIqy+rCdntykmxkgyRVU0FoBXRrb+GSHBnitZyPMSdk4/ecybPZ5CUpFeHlqgofb/07h72IXM0o9PDGhDK9PSxnBhlPzSlwXz0xI48nxacwsc7HI9TFgQgqvTik1ZkYsTOOJ8SV4fYrY8Vz8MCclZsvw9tSUCEYePp+VwuNi/hvRD7xA7sWtcWVmJKpM3PrvpJTYT2FySRolKR9PTyzFkxPLMGGxi+fk+rmJKSxJp/G/SWU4+md5Pr4UBZaFHVsWYsBWIlyZVK+dTBrMnQdv/vzoTlGUfMCMoEtdqNQNZjZDpJTsguVC00epTpiPVlTfZua1FeW3qp5lGxzk8EeOMvsM5AoqaK2A8NTpBBqK9LxOowL81KcI4/doiEIHaGR5+Gl+GqMXufhbhJsXJ6Xx8qQSc2K1J5l1sghEZ/9egrOGluDHORSAfJw9rASXDSuW5x7enOri/F/TuGDYErFTigdEEDr7t1JcOHSx1MIu7h8t978W464x4h7SuH1MGc78PYXPZpZhigh2F4rZc4cW43txe+ziFM4bWoZzfynFWzNKcMUfZXhWhK25aQ/tCoEtmgF7tUli3SIHt3QrQremSQmXIwlfO4JWun8/Ucueu6IoSv0mlz7c9ZE4/jUdsos4LTRdlOokFt4rI35WVccXn1GAyQWC4cOR7t4VwR8jIp3sJy8PLF4dlokeZlb+iozCs7jMM1G2ZRl90ZE/CjBc8xVeeWJEZDN4co9AhDcRtHxzKHB4H9Bc/GvEH24vH64Zoxs0Fh78Zhm3bPMOQnnehs31VzQrd2ExCl2hGVqXS/OfL78J407t4p51lomn5GOPRTpKTVJdBxYPHToUv/76K1KpVKQjuUjci8vDWmutZQ4r/PjjjzFz5sxy/Zj43dtttx0233xzU5F/+eWX+Pbbb9G8eXOceOKJaNSokTnLbU3QA4v/+YHFZWVleP/9900aMn0KCgrQoEEDuK6L4uJiE5eHHHII1l13XXz44YcYNWqUeX/Dhg3hOA5KSkrCKdSid/fdd6OoKJyKPGvWLDz99NPYcMMNcfjhhxu9NYHu18cDi+O0HDRokMnHixcvNuWhadOmJg2WLFli7rfZZhvsu++++Oijj/D9998be0wrxndpaWl5Gb344oux0UYb4ZdffsGtt96KadOmYaeddsJ//vMfNG7c2Li1JnGUbwcWM56ZNu+99x4WLlxo3GE8sqww7xOG++yzzzbp98MPP5SXI6YNy1ecNmfJd5D1IA9yvfPOO/H777+jY8eOuOaaa7DJJpusUbrQn3pgcd2xqnUBzfH798knn2DGjBnmnvmJv3F+WnvttXH++eebb+Vnn31m8lMikTB1LusEmqP7rJd32203Y4d1APPfN998Y74JMXR3yJAhpk1QWFho6uzLL78cLVu2NM/pDs2MHDkSj0n7jHX1DjvsYJ6tjLo8sNj/6Seke/ZEwY8/wpK6MSeQyFGUGsM948zAO/306E6paeRDG+y3336BVNCRzj9DKvXg7bffFhneMkoq/eDPP/8Mfvzxx0AaXEH37t2NmXQ6HfTq1SuQRlzQt2/f4K+//gr++OOPQBrwgXwIAmlUBNIYD6ThF8hHJZg9e3Zw0UUXBV26dAmkIRi97Z8jAlZ5eDPDLI0+tmLNb30iDqd81E3Y1wS6Iw1Bk06MK2nMGz2m6/Tp04PzzjsvuOuuu0z6SeM9kA+1yQvMFzQnDclAGqLBxhtvHMyfP9+k+1VXXRXIR93kB/noR29aM/gupnH83kyYF0VoX06/puH7+F5pWP3jd9Me45pKGuImDdq2bWvuGecsKzfddFNw7LHHmnvGN+OWadCvXz+jR8UyueWWWwZffPFFMGzYsECEnWC99dYzaUDVs2dPk85rGkcMK+O7ItlY1qojX8Tpc8MNN5TXg5MmTTJxLoKXyd9bb711edo0aNDAmDnhhBPK7bLO3HPPPYM33njD2N1rr72CU0891aQRzYpgbMytCXwX06ay8IqwGbRr1y66U2oCxvmq1AVxnnjiiSdM2rNsMk9Qf8mSJcGLL74YbLvttiY/sbyy3Mb1MvVojul51FFHmXp5zpw5xi3Wv6yb+U3O5Pvvvzff3HvvvTcQAS0QwT7o0KGDeSe/2yKEmbxKu/TLBx98ENlcOSJgLff9of+ox29TVfGwpvji7zSsQASuSCf70amDSo0S2AE8m2N6Si7B3i/21kodYe7ZWycVOrbaaitcffXVOPjgg02PlVTQphdOKlYzQiUCFLp164bdd98d8uEoH/m4+eabTQ9uixYtzHOOjjz11FPGbaVuYPrFvaWZMM1btWqF22+/3Yxw0Rx76OVjX54fqMe0ZW/5v//9b6PXtWtXSKMUm266qckPStXEccgyFI8GEt4znjlqzB5oaXwZvWQyadKLz+Kyx1+WSfZkM85Z5n7++WfTo3zRRRcZsyKImZENZfWI04flg/EY533+slyce+655aMKTBuqOG1i1blzZzO6SIYPH4633noLTz75JF599VXznOmiZSU/iPMT8w7zSZzuvOaIE0eUjj32WKPHvES9TGiOsws4W4Bu8FsqQjvOOOOMZfJQ7DZHoDlKzu8u3RLBDSJkme8u/bH11lvjwQcfNOapcgVOcPQTuSW6qKCl1Cyt2yJYb93oRsllWHl/8cUXZkrTEUccYT4cFYkrbU4h4BSFPfbYw0yVWLRoUXmDnpU+zXBqhJJ9MF0feughk04UqCv7CFOPU9nmzZtnpo/EAhmhgKCsOS+//LKJU5a1isTljFOQOM2Iwlj37t3NVDR2fNDeFVdcYcyyUaVpUn0wbtlAJRS2KoNpwynVb7/9tulY6tWrl+l8ioUxdmKRY445xgjMuUycF6nizphYrYxMs5l2V5XK7K6O/WwhLutVTbVmuCigs14+6KCDIl2YqcYVw8x7Tv8nnL7K+zjPcfoi4fvYOcrfXMJuvhb8Fm0QtGoV6WQ/KmgpNYrV/xr4l18W3Sm5RGYFHPeY3XPPPeaajQc+zzTDypyK6w8okPEZRze41ouwN57EDYs///zT/CrZAdOL6cc1fhwRYTq1bdt2mYYgr2mGH+94PQAb9lyXEucHPlf+OSxfXDfBdXGM73bt2kVPQuIyx8blvffea+7Z+GI6UOClYEU9rrOjfa7vYu+3smbE8c6RKY4cMm47dOiwXPkgTEPWlYRlg2kYp0s6ncYtt9xi0oqjEblcXuh3Kna4PPzww7j++uvNeqFYf2XQzNy5c41djobHdleVOXPm4JFHHim3yzKRKzAvMKwMA9dR8Z5rHDPzE4nj49FHH8XkyZPN84p1QkXoFgUwEo9mM78RrjckNBP7IZfwOq0Pa8pYBOutF+lkP8umqKJUMz64AUh0o+QkrIy52cEuu+xiNk6oDJoZPXo0zjnnHOy1116Rbgh7dgk/EJmV+oIFC6IrJRvgdE4u2j/ppJPKBevK+O9//2s2WeBIJdNdqT441YdTMfv27Wsa5CuCo1iHHXaYmd65Il555RW0bt0a9913n6ZTNXHjjTdizz33NBsQVAbrt99++81MAbvrrrsi3aVwgwxOB2UZ4pRqCsETJkyInuYurAu4CQ7zGaeusrNtVfn000+NXUK7f/zxh7muCsYz1eeff16+scRPP/2EESNyaCc6iaubbrrJTOGramov62XmpwsvvDDSWTl0+8QTTzS/7BTgLBQKtIR1Qi7DmswOcms5igpaSo0S/PIb3BF/RXdKrnLJJZfggQceML3mlcEPHddwsVHHXtpMMteVUPGacBqNkj0w/dhrygb6imDa8aP/1VdfmekrcVoq1UOTJk1w2223mR3E4h7oyujTpw9ee+215XYAjGHDle488cQT5aMuLHvKmnHVVVeZvM/d4iqD5WHLLbfECy+8gH79+i0X5xx55K6DFBA4bYujC9z5M1eJw5fZaUY9jtKsSn6jGdrNrEdigaAqYrfnR2d08p55fPbs2eY+F2CYmZ8olLLuXRF8xvzEHSVXBcYFFTtsuBMpO0C32GILs3sm4braXCbgVMjHn0BQRWdgtqGCllKjOE8+icSjD0d3Si7C0Q1+xFhZX3nllZFu5XCaDD8ebdq0iXRgtpxmxc8PCxWnd/CeDUAle2DaMF323ntvk2aVQTPMC0zn0047zdxXpDI9ZdWI45fb93N9Y2XE6cSpaByBzIRllYqjJhxR4egyzXN7b02XNSOO9/XXX9+sm6s46hvHL/VpruK0wNg805db9nODID53Xdfo5yJx+DhFnDCM3NiF6wVXFdplfBF2LsRuVUX83s0226zc7uq+t65hGOh3dq5wrR7v43BlEofv6KOPNpthrIiKdpnP7rjjDiPIcrorR1PZQUB3chlnxHAEF5wHZ9iqj5rWNSpoKTWLFH7Hy52eB2V54oqev0ceeeRyu9RlQjMcqeK0hRhulsBGIacv8Hnc4Nh5553Nr5JdMI24m1VV0Myuu+6qmyzUAIxbNpoyF7yTWD+G95wGxB7qWJ+/3MiEIwqchsgRSo56cd2dUj3E5YO/lcEGLhU7m9hpEcNpbRytoT0qCtI0x00ychmGZfvttzdnSTHPnnnmmeVnNa0KsV2ezUS73PF0ZcRxyE1GONWZ3xja5VrEigJHtsNwcNOhlcG8UlmdsCL4jHYIZ6Pw+8tphJm7CeciPB/W8eW/QEe0FEXJYTjqxB6w+IPGa1bO/AhyNCM2Q6GJPbI0wzUl8WJk9rzFHwGOXPEDwa1laYbTOyh4rawxr9QsTE+mF3eEJEzjOE3j7cbj9OVHmmnGDzc3WWA6UqCON8GI3aLidB6aY09qrKcsTxxnjGPGL4nTgHEapwHN0QzXBTEtGLdc38NrPounGNIet3LnaBZ3/TzvvPOM4joQHrugrB5xvMflI4536rGzKc73vOfmMCwT1KP5OG0yd3XjujsKxRS4mFY8ZJ2H03JjoVyFYaNi3HAbca434oH0vI/DXRWV2V0VezG0y6NHOEJIu3EdlY0wnzDd2QESh5vlnnqcUsr7OD8xL7GeJfylHu3EZZ3maI/6cX0b5zvqx894z84WrrHmDpgc4WYc0S0+Zx3Nayp2ztAe3VaqFxW0lBonYBeEklNwQfIbb7xhPn78iLEnrOIugfwYcKcnNj5oho0NVubxvPlM2KPGhgZPjR80aJA5T4ZTEZW6g416ztvfZJNNzDQnThdkA53rRjI/tpzj//XXX5upglS854J/fpwz4Y5Y3H6Yvcynn366+fBzobtSNfGaH6YBt3d+7rnnTFxmpgEX/HML6JNPPtmYYyOJcctfEjecmH4nnHCCMZOptKz9MwYPHmwaxoxD5mnuBDllypToaQhHqV566SUzik8zHMniuquKDVZOFeRoAssQzzhab731zDo6JT9gGf3hhx/MNF7mE+YDbiKSuRFGLPBQCO/Ro4fJd6yfP/jgAyMEZcLvLu0z/9E9ClFcyzVt2jTznDv/UsCiEDZs2DCzrjOus5k3WY8z39IftM/vO/2X7ZhSteqyeFZgSYRrK1ipMdznn4ObKETR0UdGOkpNwm1iOU2IFXXFhnBdwmoms6qh3/6fvbMA0KpY+/izu5SUIKE0iCCKDRhYYDd2IorxKXbrvVdFvTbYnSgY6BW7G1BQAQEJlW4kFCUU2Djf/GbfWQ+vm/Dusgv/3zK8J+ZMz5x5Zp6Zk4rwIeg9+eSTPr4Q3ORlRqeGThFb5m4ohDRkDQ/bq6Mys6FDnFErojNAfOPl5uabb7bp06f7heJlWd4JE0IPo+mo5pWl3+sLhAPimbwBR3msa+urXKwPKIvElw57cny5xiwaeSRKh42xLYi3xwHSgYEeBlP5PEhppUPWL/Mt+/yLrcrTj1taBfmWlma0RKmSdtpplnHi8YkzsTFDwxuMEEIIIURJSG+4haUNetWsnj5YLIQnIz3DKmdUrG8eiNQTF7IkbAkhhBCipKSnp1mVDNYAJi5UACRoiVIle8AAWz1wYOJMCCGEEEKIkpP9yzzLOu54y/m16O+tlRckaIlSJfr6a7MvBifOhBBCCCGEWAvmzLPst960tBnTExfKPxK0RKnChoOVIm3vLIQQQggh1h6Elor2bVYJWqJ0cZKWtrUUQgghhBDrhutTVrA13hK0RKkSpWfY6oxKiTMhhBBCCCFKTlZauuVkpLm+ZcURXyRoiVIlvfeNVunmmxJnQgghhBBClJy0Hbe3yt+MNNup4nyEXYKWKFXSN9/CKjdsmDgTQgghhBCi5FSqVMXSO+xk6Wma0RLCk5mdZasysxJnQgghhBBClJzsKHL9ylWWk1NxVv9L0BKlyy23Wc6dtydOhBBCCCGEKDk5kydbTtMtzWbPSlwp/0jQEqVK+i/zrersOYkzIYQQQgghSk6lpUstw/Ur0xYvTlwp/0jQEkIIIcQGQxTpoyJCiPKBBC0hNkDU0diwSU9PVx6XE5QP5Y+0tDRvhChLcnIq1od0RdkgQUuULpUrW3a1aomTjRc6Y8HQGIffcJzf+doybtw4+/TTT9dwT5QN8bwMx5js7Oy8/Ei+tzbw3IABA2z8+PH+WPn8NyE9QprEf+P5wLVg1gY68m+++aY9++yzlpmZuU5ubSyENIrnSX4mbmdtGTVqlP3vf/9bw02xcUGe52fiZSxePjBry8cff2xffPHFGm6ti3sif3JcnzLKSLeoSpXElfKPBC1Rutx8s2XdpO9o0eDSAM+dO9fefvtt+/DDD2358uU2b948mzlzpo0cOdIWLlxoU6dO9cdLly5NPFky6Pw1aNDAatSoYffdd58NHjzY+yvKBvKZzvx3331nr776qn3//ff222+/2apVq2z06NE+b+mUjxgxwiZMmLBOL+JTTz3VJk+ebPfee693W/mcS6hrpPWdd95pTz/9tB94+Oqrr3wde+qpp2zo0KE2ZcoUe+KJJ2zs2LGJJ0sGdW233XazffbZxx555BEbNGiQz1tRMOTLX3/95dPq7rvv9oMFP/zwg68L5NeTTz5pixYt8vlFPq1cuTLxZMkgb3bZZRfbeuut7YEHHvACsfJm44O2gDr/+OOP+3Lw0ksv2ddff20rVqzwQvgzzzxjq1ev9tdfe+21dWqPDzzwQKtatareu6VMTvv2ljbOvTu3a5+4Uv6RoCVKlahuHcuoXTNxtvFC5/uaa66xY4891ho2bGjbbbed72jcc889/h4dtnfeeccLXbvuuqsfjQ0dxpI22DzXuXNnu+KKK7zARUf8jTfesKysLO/WurxMRP6EfJo4caLtvPPOPr3JA9L6yCOPzOtccq1y5co+37t37+47hCFPSpIv2K1UqZIdffTRdvnll3th7v777/ejquQzZWpjJKThVVddZWeffbaddNJJds4551idOnWsd+/etvnmm3vha+DAgda4cWO74IILfKee50qaD9iHNm3a2KWXXurzHYGrX79+fhAluCdy8wXz+++/W9euXe3999+3Cy+80E455RQvAH/00Ud+gKhXr15+MIqBCY6pN6RjSdMy2N1hhx183uy0006+s43Q/ccff+TlndhwIY8/+OADa9u2rW222Wa+HBx11FF21113eeGKtpr6X6VKFd9u3n577u7IobyVtMzRlu+11155713aYwZVQ3tcErdEwaSlp5m13coJLxVHNViClihV0hYutrTf1m52ZkPi+eef9yNq//3vf71QRSePjt8222xjm2yyibdDQx2OYfHixTZ//vwSjerSmIcGPYzq0vC3bt3arr32Wvvss8/U4JcCpDXpeu655/rjW2+91Zo0aeI73zfffLO/V61aNX8PyGeuMcpOHv/yyy9rlS+4h+nSpYvvSNSsWdOuvvpqP2q7sULn6qGHHvId+RYtWvhrHTp0sH//+9/+OKxvi69zYyb5lVdesUmTJvnz4hKeJw9atmxpl1xyiR188MFemHvxxRfVoU8Qyj1tEKrNtIXVq1f3gwUIVHRQyY9AyBvMkCFD7PXXX7c///wzcbdk4Hfz5s19eejWrZv3m9lmsWFD3SPPeQeeeOKJvhwgAN12222+3IXyxvVQ3pjpYmYLjZO1Bfdoby677DLfJlDmUSkMbYVYN9KyXbswNldlvqIgQUuULre6TuZ/b0mcbHzQGNDg82LnFyErIyPDG2Y2/u///m+NDl8c1Jsee+wx/xyGUTE65Kgb0jnPzzBaGzo1wAsFvxjZ7du3rx+9Q7UBt3FvY535KA1mzJhh33zzje27774+b8lX0h6Vkvr16/t8IZ/j+cM5L+Sff/45L48ZaX3vvffyNcwE8BvvdOIe/pHXzJiRz4zYMmvGbEGYydwYIJ7MjvDbvn17n/7kA4Z8CGnPbzwfOGYmZauttvLPcsygyC233JKv4R4qb3FCvWYQhft0thjVRkWJwZKNua5Rzok/wiydz9q1a+flC2m2++67r5E3caZPn+7zhcEJ3Jg2bVq+eRI3qG4FcC+0g8yaXX/99bbtttv6eoLKGLNnG0v92Jj48ccfbdasWb4eBihvvAspf8lQTrhPG45wxjHQ3uZXxoLJry0I5XrHHXf07TDlL7x3VdbWkQk/WLRrR/c7PnGh/CNBS5Qqkevkpa+Wbvyvv/7qfxF0glDFbzDJ0Llg9omGnJFfYJaCWZKmTZv6zlx+BjWy5I5K3D9GjunYs2aB9RAidTADSdozcxXP1/hxHOwy8/Kf//zHr/PhHPPcc8/5Uf78DKouF110UV55ihP8wQ2EvdDRR62QaxsDxBMhk1865fG0zy8P6BDRcT/uuON82oZruMF1ZrpYy5VsuL5s2TJvP5ngT7t27eyII47wszGsQdrYIV1IVzqa8XyB5Lwh/zAIZqQdneNwHTcY1MgvX4KhzOdH8AchHLVFZsvoWOOu2LBAWyCUl0ByuYvDddSMKRcI5AHa2vzKWDC0BclrqoM/wey9997WqVOnvPZYrD1pWdmWHjlhtQL1KyVoiVIlLUpzlWLjHckNL3BGtjgOMxeB0BmMQ0ePGTAW6tIJAJ7dc889/RouRulmz56dr2H0LD/wE8OMCKozdCyZTVMHI3WwVgehGNWo8IIF0p1ZpeR8RjBDvQxVP+4D+cEaAjqS5HWy4ToCAKpQyeA+7qD2ggCHW5Qj1gRuTPmMGiXxZZOLUNdIG9SCkvOAczZfIG2Diie0atXKr7VC5bd///7/MAjD1Mf8wE+EA+oZYcAuI+SMcG/MEH/WK5LWlP2Q1qRXsnp0uEd5Z20Vu2tij7YRAZadHvPLl2COOeYY/3wc3MQN2uAHH3zQPv/8c+vTp48flFA7uOFBOaHtY2OieFlj3V9+IAAhMJ1++ul5ghPlokePHvmWsWCo3wxg5gf+Uc4QsBD4mN2uV69e4q5YG9JYm5UTVaAVWhK0RCnj5CzLTluzc7MxQQNPY33DDTf4dVJsgEGDy3VmrHgJhA4EQhfHcOWVV9phhx3mR9iCmhh2mNEKs1r5mbp16+a9VPjFTTqY7O5F54IwMKO1xx57ePfUwUgdpD1rc9DHR92E9Cfv2D2NdCZvucYvhgXadOSHDx/un4sT8oXfuAmEPA5uoTLKC//RRx/1QgIzm2GWbGOC+B5//PF+XQTlnUXuc+bM8RuRsOkFgij1j85W6HAxW0I+sGkMMxwlJeQpI+ioLaIixGDIxRdfbCeccIKfxRa5ecMuj7Q9bASDutVPP/3kyywCFTOE2KHOhDaP2VuEpp49exbYQS6MeH0jbxB+0RZgLR1hYE2j2DBBs4A2EcGedVnUSXaBZQCT8oBwT/ngF8MgGVoeDALwjsxvcKw44DblF7VUBCw24mGd9P7775+wIdYFV5tdZ6hivdckaIlSJdptN4s65z/aszFAxwHDovwxY8b4NTS85G+88UbfsLNmizVXCGK89GnwOaaBp7FnEe+wYcPy3AmmMMLLgY4fnXxmSGjk2SyBUb6SuCWKR0jL888/389Cfvnll37nu4cffjhvIfYWW2zh85bReWY42BGPl/BNN93k76OiEtwJJj/i1+kMICQwg8VsAZ375DzemCC+zJywboKBjAULFvgZPtR2SB9mrxiFPvPMM/22z9hhF7yOHTv6jjjbM68NbK/PZhus/UDIPeSQQ/y6jI01H5IJacBgBMIvGwF9++23fj3iWWed5XeGQwAmP2rVquUHjThG+GLGl5knBOaSQqeX/McNBjaoH4ceeqgvI8qXDRvylnWZqPZtv/32fldfyhMq2JSLAw44wNd5BDG0O8J6aGadaB+WLFlSYkGL5/Hnjjvu8O962oKgzYLR4Oa6k7NFE8s6sptZk8aJK+WfNFeQSi6yC1FcXOmK3N/G3rjkV824Vtx0Ka49RvBY5M2MGLMcrBHZcsst//H8hpIfvNQYhWQbXQjxQnhl5o9NDVi7Vlasa3NaVL4E95mZpBPBrpXMfKK2GGdDyV8gzmzLzI6OCEvxuKHuxwwFan7h+rrmARQnHxAQmIkhbOQHdS3+3IaUBxAGBBCS4pSkrhUnb/Aj2ON3bdKUckEnmkEOPpfBLFqcDSlvSCPiS1mM1wPgGh1+8mhjozhlrSiKU07whxlXBnEY0ESlmDIHPJ9chjcE4u1xgHi+++67fiAZ9fbSinNutrr/nPsVJVU1oyVKF1cTNrRGZm0gDZJNGN0qjiku2EVViRF1Rm9RIwvX18Y9UTKS07mkprgwIh/ymB3Z1tadDZHktFgbU1yYKWOm+PDDD19rNzYmktMoPxO3l9xGlgQGmNjeG62BuBsldUdUTJLzfG1MSeBTHggZbEIUF65K6o4oHJLT50/ivCIgQUuUKpmffGQrv/g8cSZKGxp4RpdRU6MzjqGzIjYsUBkMW1Yrf9cP1DXUf3npB1U0UX6gfoQ6IkRpE8oav2qTS4/M336zVTf8y3KWL09cKf+oNIhSJW3Qm5Y28OXEmRBCCCGEEGvBtKmWfsfdZj//nLhQ/pGgJUqVtCiyymw9KIQQQgghxFpSydIsLTuS6qAQeUjGEkIIIYQQ6wzr3xKHFQQJWkIIIYQQQgiRYiRoiVIlOvJIy8znK/1CCCGEEEIUl5yWLS37yist2nLLxJXyjwQtUapkHHKIpR94QOJMCCGEEEKIkhNtVs+iO+4wq1MncaX8I0FLlCp8Wy4nUjETQgghhBDrwPI/Lbr/fktbtixxofyjHrAoVaInn7T0fk8nzoQQQgghhCg50Yzpln7dtRZNnpy4Uv6RoCVKl7FjLWPkqMSJEEIIIYQQJSejTm1Lj9jQuuJsPShBS5Qu6A4KIYQQQgixLtSqZTlpGZZTgTqXErSEEEIIIYQQ5Zqodi2LqlS29MqVElfKP2mRI3EsRMrJfOB+y65d26r1PCtxRZQmzz//vD322GN2/fXXW1pF+6pfCaHp+u6772zs2LH2xhtv+PiGOM+bN8+aNGlic+fOtcaNG/trGwLEGdO6dWvbc889rW3btok7GzYvv/yy3XXXXXbEEUdYevrf44M333yzTZ8+3fr161em5T07O9vOOeccmzVrlu27776Jqxs2X375pY9r7969E1dyKY91jXLx1ltv2dFHH524smEzePBga968uT399NOWkZGRuGo2Y8YM69y5s88jUTrk5OTY2WefbTNnzrQuXbokrm7YhPb4qKOOSlzJfTe9++67dskll9i0adNKrT32Esu0qWZbtnR+/F3WyzMStESpsjorxzdE1apUnNGHisz333/vOxl0BDcGaMwPOOAAu/jii/3xxiJovfDCC/5ltrE03whX5557rm2xxRblQtCiTRs6dKh9/vnniSsbB926dbNddtklcZZLeaxrtIMIWhsT++23n+29995r1A8JWqUPbcGQIUN8W1CWbdD6hDLGQBP1PsC7qGwErRxz/3LLeQVJbglaolTJysq2bIusaiUJWqLs2FAFLbEm60vQEn+julZ+kaAlyoqyErSy5v9imbffYlUffMTSK0ibrzVaolSJHn/Ect57N3EmhBBCCCFEyUn74QfL6P9i4qxiIEFLlCoZk6ZYxvejE2dCCCGEEEKUnLRp08zqbVZh1AZBgpYoXXbc3tImTrSIP2mpCiGEEEKIEkDvMTsnxzKnTbWoQT1Lq0DdSQlaolTJ3qOzpQ0ZYlE2opYQQgghhBDFx4/TO5Neo5ZFRx6fK3lVECRoiVIlarO1ZZ50skWrVyeuCCGEEEIIUTzS08wyMtKt8k03WrXrr7M0LlQQJGiJUqVSRppVvvdesypV/LacQgghhBBCFJvILMdv7R5ZNn1JzWgJkUt6eoZVqpRh2b/Mt5xFixNXhRBCCCGEKBoG6rMeeNBW9O9nOdnIWRVn4F6CligTcvr3t+zzz7dsV0M0syWEEEIIIYqCmaycFcsteugBq9pqy4TkItVBIdYg7dJLzCaMt+i8XhatXJW4KoQQQgghRP5kZudY1tVXmLVobel7722V09Mr1AfqJWiJMiGj6iaW0e8Zyx440LJvuMFVnGzL0XbvQgghhBCiAKIJ4yznmef8gH1aBRRbJGiJMiE9Lc3SdtvL0j9+36IOO0t9UAghhBBCFEp60xaW1m+A2SEHV6Q9MPKQoCXKhPT0NKtUKd0q77GXVTnlNKtSqbLlvPii/fXh+5aVmW1ZORK8hBBCCCE2ZjKjHFudlWVZS36z1YsXW5V6m1m17qdYlapVLaMCbesekKAl1hs5Cxda+indLaf7SZbzzrsWZa3OXfQYRRY540UvBDDNfgkhhBBCbLgktnCvRL9v6FDL6rSbZd18S+JmxUWCllhvpF16qaVPHGc5dTezrIsusFUDBlpWtllWVqZlrlzhZKwsy3ICV5YELSGEEEKIDZasKNuy5v1iK8+/yKKTT7S0iy+0SnfflbhbcZGgJdYbGWnplr55I6v06GNWbeZMy+hxmpO+si37h/FmdRtY2jbbW9rxx5r960bLmjvXMvlQXWamE8YyLXIVkpGP7Bx37gSz7Ozcj9ihgpjFRxYcrAPLdMJaTpSVOyvmTOTu+x1sEvZynJs5iVkz3My9livYZbvf7JzViXu5Jifbhc/Z8cYdh+u5dpyAmI1f/nEXzlx7wd/I++vCiQDpf3PvBZPj4pKZ8JswEN8oYSfbhzMRL551/hD/vGex465lI5gSNu9+7r3cdMiNK5BOmdm58cp73oUVv3mGcONeiBfp59M08Xzu/dw0DfHPTRP8yXUr7jZ++Q8MOggDYQlu56Zxbl4Q9oLiRfrlPp8bt9x75Fci/xy54Q/xiiwtLSM3TK5s8Bx2yQPvlrMTuThku7LjcU5mZeG3O/f3ck3IQwzxCtexE4+XT3fC6cLEPcKUmwe5arGUueBvrvvuuo9XIk8S9vyzpAP+ce7IyuL47zKMoez5MuTc8emHm4nns8kv5x8wL5zrdlJ+kYexuMXjleXSMMelGZBfnMfjlXstN7yrE2nCPe+3L9uJaw7iHcLu4+Xt57odvxcM6Z/NaIsDez6c2Oees8szufcoa9zjOVRJcu2QX8l1OzduXHfxSqR3bv78Xbfdf2ukR3LdJv18OiW+3UL6ks7+efxzv74se39yw829YPygUSJeuX7/HS/CyzlQHuLlCIP7oc3KDV9uvPw9/HP2KX9AemS69jH3Xq4pLF75tlmhDjg/itNmMRgGoVxQL7lX3DbLp4MjN5whXIn8dc9B4W0Wv84vdy3Ea402y5nccP1dB7Ab6jZpyXHc7aLbrOAm+fX3PUyIV6jb8TaL9tyHlXg6fHvp0jA8iyFM8TSPt1n+HmEF5yR5Rx5yjzBgQry8cce0g3+H3cUr4XdJ2yzSj/epd4vnE/Zy7+U+F+KVX5vl6wBhc/6VpM0Khg20Qvh4PsSXe2vWbfImt80KdrAf3gG4E3eXdMZN/IV4u0T4CCftoa/b7tl841VAmxXaotx7lGnK+9/P436o2748ufDF63a2K4chTXPLXfH7I/SNfDkkLI5QLoK/Pm4+PXPLWXKbRfr7/HUQhsL6I5QjX//csS9v2Hfxot74ttPnRa693DKf6yfpRJyzZ7n+3apVlu6CmjNyhKX/Mssyvh5u6RddaGlVq3p/KjIStMR6g3VbGenpVik9w3/YuHJGhjuvZJW339bSvvzcrPeNFnXazXKWLLLsXxb6F072u+9b9ibVLadSFYvSK1vOJjUsZ9osyzzhGMuuXMVyKlez7G3be/fpK+b8Xy9nt6plObe9qVrZ0p561t2jgjs7RxxqWVVy72VnVLbMTTaxnA8+8M9HUyZbVu0GiXsZloNp2co3Ppmuc5fzxlu515zxbldy4TrxpLyGLfOE412YquXeq+xMtcoWvf6aa1zSfUOT06RF7r2EyaxR16LZs/yz0UcfWk5VFxcXT3+vShXLPqqbv0fTl3n9TS5MlfKeJXyrb7/dN7x0dLLbbWPZ7pnce5Usp3otiyZM9M9nT5lqUc16ec9iMlu39Q0oDeXqF19wafZ3vHIqVbNVPc7I7c86Vve+OS9NsZPt7Gbedqt/FjdwK+42fuEnRNOm+bCEsJNn2a1a+zATduJAXMKz2PNxTXwzgzQgLbiXU6myi2M1n1ZA2mXWys2vhs2b2aq0HNt81z1cfrjGnvsu7ckDnxe47+K1+vrrc5/lJXDBBS481XPdTpjo6Wdcfqf5PCfvfXx5lnsNW7iXk+vkgCsrmZtu6u4597nvylR2C2ffvVQpa5Q5yp6/hxsu/TIffybxand5esKJruzmpilxznZ5H739tr+XSfi3WLOsZLdq68uQL+Pvvev8q+rczHU/h3J45JH+2Yiw39jbokQ5DPGi7LpXtnPD5dc22/o4hXhlb1LHsn4c75/PdvmVVaPOmvFydYa64yJn9sJAW13l73hFLk1zXFnJThSWnB498tLU53nNWmYTJ/h7dBpWt2qT96w3m2xqmVOm+fvYw35Wwm/cwT2Pcz/rttvt+v/eZk+/8Fxe2KPet/yjbufGzZUZV7+yp+WWwxxXVuJ1OzvD1cnGTQqs2z79SEeXnv55l76ks3+edHfpTz74/CBfXP5wL8+4/CMfgXwlf0MdIN/Jf/B125ULykfes/E2i/LkytUabZYrd5Q/oNOU02TLxL1EXpegzaJuR5U2yb1X3DZr1kz/rK/bNWrnhb24bVaeQHJmT5+OufeK32bRUYt+GOPyw9WbxL14m4VZ1eNMd+3vNov2jXYucvHyHchDD1vD7TXaLBeGNdos4tVum9w2y6Vr1v/ecOn497PYI66hbsfbLNpz2vU12iyXhuFZDGns09qFLbnN4n3Ce8U/S3lweUce+ucSJt5mtei6n81cMM/5m3DflXnea54StlmkH+/TxBhMidus1bVdPGfOyK0jJWizgsm+4y53j/x2ad5qSx/XkN+0WaFux9usUAewnyt4uz6EcyfuLm3WGnU73mYl6nb2C/3coy5cLvw+HrHn43U7tFmhrJA+69YfcfVpam5+lbQ/4uP17+vzymG8P5Lt6kqm8ztet5PbrJyGTd31RJuV1B/JquzSNl63eZe5d/Ghxx5tP8+c5sJdLREvd//Qoyy7oWtb229nmW++YWkIX3MXWNZunSxqvaWt3qKhS6OtLevbbyzTibuVDz/SMt5426JWrXL7g66PWNFJc5XVJYUQ5YNQHNP8EKt70bgutmvy3Q33z383IbL01ast+u0PS1uy2HKWLrW0jp0sbe5ss+kzc+023sLS227t3YoWLbS0iT96NwE3cnbZ0TJqus4Jbk6fYjZ7ru/G42OE0Lerc6+a6zDy/LffWvrKlbnP8l/9zcy23d6PUGT/tdzSRn7vbnhfc593jUN68xZGULNnuA7IzOl+lAZyXIORvsvOFtWoiU2Lxo619N//yL0JrnHK2XVXP9MXrVpl9t23TrjEbWfXuZfWtKmltd4qEa8FrlH/yfsbyNlhe0urW9dVavfE1J9dmvySuON8cwJNtMduruFyDahr6Hy8VtHVziWnfj1Ldy8EH1Tv93drxCvNNYjWrLk/z1ng3P0x129vn4PttjfDb+67l0364l+548mpWsXSdtvNC9N+tHvYt5aW+bffUYN6lrbNdi6OLl5Lllj6D+MSdxLub9vO0hps7r+bEU2dYtGcOS6O3HDnTljHbUa9GIFOHznKbMUK+/XXX+3444+3Vz/9xOrvt5+3m7ZiueV8P9rSeaM5vBNttrL0Jk2JquUsXGBpP/4Yi5c72nlHM8oKTHThWvybvw85tWpaxs4dXDF1ZSpRVtJcWcl73qWpuTQl3NnL/7D078fS4HIntyzvspOl1aydGy/XWY2mzSBG/r65MmCdOlha9RrObRfeH35w5f333HsO8iutvXuBY93VBxvxnaUlRoQJd3bTJlbJlRXu57iyErl4UQ6xjn85HXexjE1qmu9bTJpkNn9+XrzMvUQpK+nuJUdZSfvm21w/HD50zZpYWivntnsg+muFmasDabE0jUjTxq6suvvZc2Zb2pTpzmriviuH6Xvs6tLMdczctTTXiU1btNjfg8h1amz3Tt5vcy//aLgrh4my4mq+RVu5l2/TZu7EtQyurPS/8kr7xYX9uuuu83ZyXFlJd2WFgMTrtsd1dqPdQznMza816nad2mY77JxXt9NdvKhrPE86pW2zTa7b7jjLlcOMOXN9OCBygpp1cvFyfvh0mbBmHYjq1nFu7+CKiovDny7NRrhySr5yzz2QtmVLS3Pthq/by5eafT9mjbIS2izfPiKoOrcJFzYi11b5+kU5cvdzfnDtSqKseBdK0GbF6zYUp82a6/KjmWubZs+ZZY1mznHtc+53EovbZqVvRrvh0sWVlcgJN+F+cdss/wCj8cOG+444p8QrtFkeJ9BEU6fl3fORdW2tIRy4v7TJkyxt/t/tZbzNYhYgbXhSm9VkC+e+e8c4Z6Llyyx9lEvTBN79Atosn9cZ+B1rs2hr/8oth5BTZ1NL29G1O9hNarN8fXXCUEZLyoo7d+1G2nTqVyxesTZr/uef2MUnn2qDXnvNn+fEykpJ2yyItt3GxathbrxK2GZZ9eqWvWtHFxd3XII2K5CzfXtLr1svt+109csWL/bh9vg2a/fcup1fm1W/vqX595v7W/KrpY/LHewBf9/FK9Ttf7RZrm6ndejo6tkmrj5ElvHdSLM///T3IF63/9lmOQfXsj/i7zuhxoiXE/iK0x+Jt1ncT2vbxtIaNcmN1z/6I67W7bLL33U7uc1y7zfbeReXpvn0R9z9tGaxup1os4Z/Pcweeughe+nlly2nQ6LNcuXf5s51YXRx3XEns03de2d1pqUNdfnfyJU34rBZfRfXSr74/g0tvovZGtcqJhK0hBAbHPPmzbMmTZq49n2uNW7cOHFVbGjcfPPNNt11NPv16+c7f6LsUV0rv8yYMcM6d+7s80iI0gRR4t1337VLLrnEpk2bVmB77MU0J8MySIHAvzGAICyEEEIIIYQQpUYaf8ymbUQDYxK0hBBCCCGEECLFSNASQgghhBBCiBQjQUsIIYQQQgghUowELSGEEEIIIYRIMRK0hBBCCCGEECLFSNASQgghhBBCiBSTcZMjcSyEEBWeH3/80X7++Wd76aWXbP/997elS5dao0aN9J2lDYhly5bZ888/b4MHD7Y5c+ZYdna2Va9e3Ro0aJCwIcqCjz76yD755BP7/PPPrWHDhjZz5kxr3z73g7di/ZGTk2MvvPCCffXVVzZ06FCrU6eOLVy40Nq0aZOwIURqoKxheN/SHo8ZM8Y23XRT/95t0YIPoast0IyWEGKD4pVXXrHDDz/cH/PLl+rFhkXNmjXtySef9B/I/Oabb+zaa6/1HX1RtvCx6H/961/+Y6X8Tp48OXFHrE/o3H799dd2ww032O+//24XXHCBH5AQojRA0EKof+yxx2zx4sXWq1evxB0Baa6BjBLHQghR4Zk3b561bdvWVqxYYTVq1LDx48drZG0Dg9fWyy+/bN27d/fnl19+ufXp08fS0zV2WJYsX77cz5IsWLDANt98cz+bzGi26tr6hfoxceJE22mnnSwrK8uaNWvmzxmgEKI0oHztuOOOXruga9eu9vHHH/v2WG2BZrSEEBsYW2yxhZ133nm+gee3efPmiTtiQ+LEE0+0bbbZxmrXrm1XXXWVXujrAdQ1Q9rzS16I8gF1g5kseOCBB3xeCVFaUN5OOOEEf8xMqga9/kYzWkKIDQpG1ObOnWvt2rWzn376yRo3bmyVKlVK3BUbAry2ME899ZTNnz/fevfuLUFrPYDKEOvldt55Zxs9erSfzRLrn1A/UBs87rjj7LPPPvP1Q3VElBaUtxEjRng1bsqbBK2/kaAlRAmgutC5UCNS/hk2bJh17tw5cSY2RFBdQ7BWB3/9QZuIui4DGurIlz8WLVqkTWJEmUFbUNTmU/ShuL+x9KMkaAlRAujUvfjii/bll1+qU1HOIX/UvAkhNmZoB0PHVoiygPduQeWNe5tssolfU7uxqLNK0BKiBFBdjjrqKD8Sw8JPvbyEEEIIIYrHfffdZ2PHjrVWrVolrmzYSNASogQEQevYY4+1M888U4KWEEIIIUQxoA/VtGlT/323LbfcMnF1w0YLTYQQQgghhBClCoPTCFsb0zp3CVoVAAolOtbx36IM9oIRQgghhBBClC1SHawABGGJbXSZbmUbXbatZncXIAsZHcAeuwvxsdZddtnF9t57b6tfv752yEshpLVUB4UQQgghSg47lLIrcMuWLRNXNmwkaJVDQpbwy5f233rrLZs8ebLfoQUBatttt/W6rQhVyR19vpsxffp0/5VuFhsuXrzYmjRpYkcffbT/1gnwTDCiZEjQEkIIIYRYOyRoifUOWTJ48GDr27evF5LOP/98v8NdnMIEJZ4PBhDSnnjiCZswYYJddtlldsghh0jQWktIUwlaQgghhBAlZ2MTtKRTVk5A7S8rK8vPQvXs2dO++uore/rpp72AxEwU6n9xU1gHn3vYycjI8KZdu3Z277332ssvv2yTJk2y008/3b777jvvnxBCCCGEECL1SNBaz4SZp19//dUuvfRSGzhwoD344IP273//2xo2bJiwlRrq1q1rl1xyiT355JP24Ycf2oUXXmi//PJLXhgwQgghhBBCiHVHgtZ6BuGGjS1OO+00O/vss+3WW2+1mjVr5s1cpYowy4WpUaOGXX/99V6NsHv37jZu3DjtTiiEEEIIIUQKkaC1HkG4efvtt+2WW26x/v3720477eQFoWS1QOxlZ2evMfNUXFOQAIU/qBS++OKLdvfdd9trr73m7WJ4TgghhBBCCLH2aDOM9chnn33mVQUff/zxfAWsAMIPs0/MPJUEsnaHHXbwqogFgQCH+5dffrkddthhduCBB1qlSpUKXQO2MUOaajMMIYQQQoiSo10HRamDYDNixAh77LHH/GYXVapUKbTDThax8yACWUnhOfwoiJD9mZmZdt5553n1xc6dO/vrbKQh1oR0kaAlhBBCCFFytOugKDXopGNGjRplffr0sUceecQqV65cZGc93Oe3pKYogh1msR599FF74IEH/I6EQgghhBBCiLVHglYZwkzWypUr/YYXzzzzjN+UApXB9Q3CFuGoWrWq9evXz+68805btWpV4q4QQgghhBCipEjQKgPCTBYCDWuhMLVq1UrcLT8QvurVq9sVV1zhw6iNMYQQQgghhFg7JGiVEQgsgwcPtmrVqtm+++5bLmaykgkzW3vuuacXBD/99FMJWkIIIYQQQqwFErTKkKefftpv5V7eQdjq3bu3Pf/884krQgghhBBCiJIgQauM+OSTT2yfffbx67LKO8xsMaPVpUsXP6slhBBCCCGEKBkStMqIV155xbp37+63TEeQKQjWRfFtq/B9q1SDm1lZWcVSCTz11FP9d77Cx5KFEEIIIYQQxUOCVimDgLJo0SK/yQSmOLDN+oIFCxJnqQV3i/s9LtaT1axZ04dfCCGEEEIIUXwkaJUyCFovvfSSHXbYYYkrhcNs16+//mqrV68udOZrbWHb9sWLFxfLbdZqHXLIIX5WSzNaQgghhBBCFB8JWmXAe++959dnVURYp/Xuu++WitAnhBBCCCHEhooErVIGtbt69eoVW22wPIFwtckmm/jwS31QCCGEEEKI4iNBq5QZM2aM7b333hV2RohwE/7Ro0eXyuYcQgghhBBCbIhI0CplfvrpJ9tll128wFIRhS3WZnXo0MHHI5wLIYQQQgghCkeCVikza9Ys23rrrRNnFQ+EQ8I/e/bsxBUhhBBCCCFEUUjQKmWWLVtmderUKfFMUGnNHAV3i+s+9gg/8aio6o9ClDXUm6JMqimO+8WxU1EoKi6F3StN4n6WdRji/sVNMvndjx+vT+LhipuiKMxeSdwpC+Jhif8GIzV9ITYcJGiVMkFlkIYTE29MCzLY57e0WL58uf3yyy/FMmw1DxKyhCg+1F/q+59//mljx4618ePH24oVK/z1pUuX+s83pJrQfoQPnucHYeITD+PGjavQnbmQvuFj6gWZgtKhNElu58syDMFPBsZYVzt58mR/nh8hbHxbcdq0afb777/7a+u7XIQySp358ccfLTMzM3GncAoqC7gX8qS8EMJGPCdOnGijRo2yJUuW+GvE448//kjYFEJUdCRolQE0nueee67tt99+1rVr10LNAQccYM8995xlZWUlnk4tdPA+++wzu/baa+2aa64p0vTp08c/F14MQoiCoY7QqaOjdNlll1mjRo3sX//6l73wwgvWo0cPO/PMM61Xr15e2Eo1CHWnnnqqVa1a1fbaa6/E1X9y8cUX+3WjoW6vK6FtmDdvXrE7xamAwZ9hw4bZkUceaZUqVfLf/eMzGsccc4z/5YPr9evXT9guO+bOnWvdu3e3jIwMnw+EqywZPny4tWvXzr7//nvbdttt7bbbbluj/Q5CB++Z1q1b+3LKJ0hOOOEE23333W3IkCHrRTAJYSTcO+20kw/frrvuascee2zCRuE8++yzVqVKFf/sKaec4vNg++23t8qVK/s68cQTT6z3AUPiR9oiTD344IO25ZZb2hlnnOG/VXnJJZfY0Ucf7d/N3333XeKJ0ifkNfWXYyFEinEVTJQiTsCKXKMaOcHJ/7qGrEhz0003RVOnTvXHgf/7v/9LHJWM5Odwt3fv3v/wszBDuIlHON+YIf5HHHFE5F7qG31aiH9CXZk5c2bUvn37yHX+o+eff97X/VD/P/zww6hu3brRokWLEk+kDtx3HTZ6x5HroCaurgnhcIJe5ISA6J577klcXTfw1wmOkeukR7///nviatmA359//rmPM+ajjz7y1zCusxo1a9aszOspaewEwMh16n2alKX/xNsJF9EWW2wRLV68ODrkkEOip556yl8P4Vi1alV01lln+fLpOvWRE469IdzHHXdc5ASTyAkBZZ5u+Ec4qTtOSPLhueWWWyInqEYTJ05M2CqYW2+9NXr88cfz8p/4t2zZ0pf13XbbLVq5cmXC5vqDcK1YsSI66qijfLiuvPJKn/YhzJMnT4622WYb306UFaTzyy+/7NsDjoUobRo1ahRNnz49cbbhoxmtUiaoATKqyXFRBrAfjlNNfHQ12e/8DITwCyEKx3UWzXVWvToQMwSnn366rzvMblCfDjroID9yHaBu8UwwrrO1xnm4Fr/OcXguHIc2I7QzcbfD85wDI+nuJWeXX375GteD3eAPJtxLdisYrsF1111n33zzjfc7PBu3k2xch84/h7sF2Qkm2e84Ic6BEPcRI0bYzjvv7NM/+BH8we9wHgwEP+L2wzmG5+K/mPBcMMGtEKYQnridYA8Tv4Z74Xowcbgffz7+G7+Hyh1hZG0tH5t3QpUPRwjLM888Y/369fMzfr17984rn/wy24qbTgCwGTNm5MUzhC34gYmnA+fcj9sJ1+Mm3C8IVNWpO8SB55nxqVmzpjVt2jRho2CYPUZzhHjyLDNDM2fO9DNaxJdfiIejOOENJpyHX+xjIG4vGOzlxw033GDvvPOONWnSxO644468tCfczDDeddddeW4nhym4i0m+n2y3IJMcxpEjR1rPnj3984QhXI/7FUy4BvFzfikP4ThuT4iNHfWeS5kGDRr4Kfn4i644lMTu2lAS91GFIR40xEKIgvnoo4+86hOguhSv9+EY9UE+BA5Tp071KoWXXnqpV/t7+eWX8zoon3/+uRfWTjzxRHv77bft0EMPte22284LSnQgsY9q2DnnnLOGyh5+cI7K4o477mhHHHGE/54f7k6aNMnbR10MvxYuXGgXXXSRV89CtYoONn5wzr3A119/7TuuV199te22225277335oWTZx5//HHfWSTON998s78X4oZgiSoXdrhOO4JaGH6cfPLJfkdT1P34Xt+XX37prx1//PHeHdYaEeYLLrjA/ve//3n/kgnpG6DDhyoWXHHFFd4/1iGRxqTnfffdZ7feeqtXKyMMYR0qzJ8/384++2wfV+KJOlrowKKmePjhh9v111/v0x4VPcB/7Dz66KNe1Y00+PDDD/29eJuJuijCLfFCGGcNFfd//vlnn05cI/7kL/kW3EgG4Yn0QUg67bTT/BpAwkfYTzrpJB8e1uESV345j6cRghbssMMOXtgKnXwM/hImOsr9+/f3z//73//2YSPcqCGSbocddpj3L8D6LtKadCVMoQ6w7gjVONRVuY86emEgVCEQ/fDDD/bAAw/Y66+/bm+88Ya/XhSkCWEnHoMHD/ZljGPKeps2bdZIA9xFACU/iN/KlSt9Gr711ls+3TB80gQ7qCKyho37L774ok9jBhaoR2E3XvylzFFXqXf/93//59eXJcO79JFHHvHHuIPKawgXvxiWD7Rt29a7SbpeddVVXhAiLAhmqAgTFuJAnAkrqsr4H8JO3vz11192++23+3PC89JLL3mVYdRqKTMwdOhQr3pLnSG/cY+2hfWklHPyi3CSB/jJ2k7KN/Xmiy++sFtuucW3F5TVRYsW+XpB3SFdyT8hhMNVZlGKoDrkOkmJs6JxjZlX7WNaleNAqlQHcRf3iwthePPNN308OI6HaWOE+Et1UBSE69R5lTHMnDlzElf/CWXHCRGR6wBGLVq08OpDTz/9tFeTQm3LdXy8QY2La64zGLnOU9S8eXOv8oU/s2bNilyHjJ589Nlnn3nVo1dffdX7jcrcvHnzIiekRFWrVo1q164duU6ht+OEGv/MDTfc4M+d8OTPO3XqFLnOpVdrwg1UsbiPG04wjJyg4s/32GMPf991+H1c8IfnMagOEjfUo0LciIfr0PlniBtuuA6bt0/8nCAWOQHGq7uRJuedd5636zqy/lnsO2EwWr16tfcvDn65TnWe/3379vVqzq5zuEb95Nh1AL27hGnEiBF58XTCg7eDSp0TPnz9xs+g/om6tev4R7Vq1YpOP/10f+/CCy/0YR8yZIgP42uvvebdcp1if07acR5UB12nN+rYsWPUtWtX/zz517hx48h1kP39Pffc09t3nezIdVK9eqnr1PtwBbBHmlMeQt45ATSqV69eNGPGDH+OHdKhfv36/jgO58QRlTX8Qk0wPzvEGTdcB9y76TrM/hx1H9LtzDPP9M/zbsG+6/hHHTp0iLp06eLj7oTwqEmTJl6dlHKLf6Qh5S+kbX7wLOlM2SUMuMk1/CDeTuDx6U8ZLQjsUoa23nprH+Ytt9zSn4d7mA8++MCHaeTIkb684pcTKHy4ME749PedwBg5wSOqUaNG5IRi/w7kOu9D7FEPNt9888gJTz5+3HNClq/L999/vy8bcfDbCTM+XKTfCy+84K8VBH4cffTR3i51nTBw7IQuf2/hwoX+HPc4RjUynKOCCO+//76/RpycsOTLDeXHCUreb9yhHvBMnz59fHpjnHDm8xs3iS/Po77JM507d/b2DzzwQF9XaRucEBedcsopvm5RpqdMmeLbCyHyQ6qDIqUw4vztt9/60SlMRYSFua7TkTgTQhQEI8uuY+OPmSkoCNqCV155xc/6bLXVVt6uE6L8vSeffDJvdJvr2GVUuWHDhuY65362gRkijl3HxttjBDv4C05o8fZRReI7eMwMMdsGQYUKeMZ1NP3x/vvv70f+W7Zs6c+ZBQLXufLqTRMmTPDn4Xl2JYW4v+H4k08+yYsb1xih55e4Ae4BM2/MIDGTwOxA9erV7fzzz/dxHjBggJ9tYgMf1KxCOAsD7QFmIuLtbfgNz7sOsh/ZJ57cIx78MrqPyhptHec33nijHXLIIX5DjXvuucfP7oSZEfKKfHDCsT9nsxOeIQ05R0U0DrOTzPKQF9gj38gzNiaCUFZ4Xzhh0c8mkufJMCvI8/gfwvHbb7/52TSuFwVhJj8hv/TEjZC/7IgH5BV+MZOFOuY222zjr8+ZM8e7xSwcs3NswAGUvRA3wgZsBMXsFjMsyeHkHHeYLWMGhRlHzpl1YcMW7h988MHeP2ZQyIP84Bns/ve///WzoMAxZSrA/aeeesrHh5kqZso23XRTX/6A66HOkYfMEhFu4s4MIn6EeuoEQj+L44TsvB0D7777bj/bxQwUecy1AMe0D6Qnx6EOFASzaMxkk0+hrgNlLbgTJ16vAyGPneBuTqDy7QGEuk18MfHjxYsX26BBg3xZxE3iSVlwQtsa4Sa/mZ1jppayipt8N5SZd2ZKmSmHeBoIsTEiQauUYVodFRMa6IoK4Sce8UZZCPFPEAhCx4KOYUFQj4LKFx1BzukUcc6W3PG6hnt0/uLndHYwXOM83r5wzvVwn84k1+i8B/txgrvx3+Amx3RsEYJQwUIFjE4095PdAexj6Ohyv0aNGv6cDluIWxzCSMed+BF/7KLShtoeQhjCFupaqKoVBzrkdHyJM25BEC7i4Y2nZ0g7BEnsIJRyDzUqOrq4hZAU4gOEm+emTJni7SJUAnaD0BT3D3vYZz0MwgOdU4SKZJVshLyQFviRDGqG2Ef1FH+xxzmqdiE+hUEHGEEIUEtLhg41BrfolPOLCWEkbBjOs7Ky/D3ymrgxIEfcSAvihoCK2iBpRgd833339apn+fHwww/bTTfd5NXc2HkPVVLyjfVM5AGCEIIOwnFI3/xgbR5qrdhBUEIACPZRh0MQJw1xG6EPoRa1OgYuIMSTXwQN8oA0pkyENWsh7eNlgDKLii73ERRRx6tVq5Y/D27yDO0Dz3BcWPsAqPvyLO0DcQh5Tb1gMCGeL4Hkc+AaBvsh7wgDcC0O5+GTAMQLwRG1QPKTehq3T/pwTrgAAZO8Zq0mQmwo80Js7EjQKmXYbpZFyYwSVTRobOmc1atXz8dDCFE4dPTpfFB3GOmno8Ex8IsJ14KARYeNczp/nNMZDnaTCdfyu1cQuAt06ktK8Id1J6zNYD0LI9yB5HAQNwzbaUPo5NI5JG5hdiE8l59AgT1mBID1RGgEMNBTHHiWDj4zUfhB3BG8uA5cCyYO56HDyMxWMqFzHTqqQcgI8SEOnCOkhPwNfkKII51v1rmx/oWOPrNrAZ4J6VYQ3M8vHEEALIwQHoRWjkOHOl5Gg8AICA5FgTukG7+854gbHW7WanXu3Nk6derkO97MaDILg+AVZlPiMHOEGwi7/LJ5BbOhhI31a8ymsFFHPKzJcA+/+SU9KDshnTDUR4TLMPODMMT6J2bJ/vOf//hr+A3Ypx4GeP+FPAx2Qn0NZYNyFmZxKEMIj3GwwydcQpkhPPhDeCEchzhij99Qh0JeYxDok8Eu9/KDewGO4+dxuB7qAYIp6y9Zc8VsI3UqDukT94+48ZkAZgiZiT7vvPMK9EeIjQkJWmUAC0R5UVQ0aCQJN4vThRBFQ8c5bIKBOldQnQLqE50zNjvgmI4snagws8AsB8+xWJ37HOfXUYl3bvK7D6HzBqg30SlCra0wgp/JsEMaG2UwSo06Ih0wCH4HISOEFxU74hDixrXwu+eee/pnCiK4w6YCqDsx+8BMSLhXFMQbe2FjhDfffDNPxTGZEH7gGfKOuNDZZ8MJIE/YHIAZFkBFDJjhgBAfVOpwg5klCKpkwaCqSHqwoUZQbWSWkFlNnuO8OPHr0qWL/yVcPBPCURyhCPCD2QkGz4gX2gq4E2D2iHM6zcwI5Re2uH2OiTt89dVXfsaOeDKDRdwQmFB54x7f6CJ/GLxLJgg1CEc8h/DCZi0ITEHtlXLIgCVhzA/uswkGYWVAAHW7AOUPYaFVq1Y+vIQbQTcINWFQpCAI34EHHujdJu0hpD3fSmN2ClVgZtP4RZjLT6CsXbu2n/HCHdRrQ/4D4cDwPDNvCKrkE/UJISv4yw6MzC4h/PEshvvU8+BWSQiCMn4zIMJMJumPsBQ2oGFjjbD5C/aS4Xl2S2QzGARr0pn452dXiI0NCVqlDA1Qt27dvI5+cRod7IQRrNKA8OB+ccNCuNHtFkIUDXWLnerYoQ0hi84qu32xQ9fzzz/v1yOF2Rk6nqjjsb4F1TRGg5ktuvPOO/19VJUQzHCT2QfcozNFvUQFi848HVrqdNgVjXuMdtMJRJXr1Vdf9Z3T/v37+w4vnTXc5RncZJYhqPPR8WZHM7Z+B3ZIo+MVBCk6sey6R+eXczqEdKYQiFCd4ho7y9FpZU0LcSNeo0aN8jvAsf122Lo6+In7+JfcHjEqjkBAeiB04XbcDsekDZ1QOvEBOobsxoZ/7O7IIBHqZuwqhyoTaYmAQ7xJO6CTTEeSODBrAvhJ3jFDgXDJLmrsBkdnnrCz/ghhkjgSFsJKOtB5ZzaHtWgh3wgfqpAXXnihjy9CDCpyCNz4SV6FTjlpwaxYcnoEECAoPwyAkY+ffvqpDyvb2JP/oeNOPsbLRBxUQRH4CD+qdcQJu6w3Q5WOWSfSkfAT3lBeEFgJK8Iv9ygfnFOO2RWSzj5rsXjfMZvDDoYIVexQR7wofwiK+a33ZYaP2T7KJ4ILbrBGjhkVhFTUVRGeEWyZJYtDHBEKyAsgHxBGWGeEsEZdJJ2JIwITs17M7nKfsJMXuEGciBtrAjlGJZIyRvoRfwYbSDt24KP+UbbJU2YIEUw4Zv0U5Y3yywArz2ECHLNbIfZQ4eTd+thjj/n2gRkxyh8DGdQV0gPBjWe4R7mm7jGAQ51kxotyBZRTVCuxS9gp6+QHgwachzLGdezQJtB+EO8wKEJ9Jq3wI7hFe0UYUa+kTiOwkhdAnpJWQBpRr7BPXUJFkpnIMAsoxMZMmqsgRfe4xTpBEvPS4GWICkVh0PDR0NJw0/hhgGl4GvqSkvwcYcH90FkqDF46vBBofLFblP2NAdKPFw+dBzpyShORH3TQqGeMxPNdIDocdBjpvEOoT5QnVOOGDBniO1d0JukMUu/ZmCGoHNMeoJoVOjnAiD0j3wE6jaEzSUcPAY/2hNkYOp64yf0gYMBmm23mO6ncwy7fLQqCFmGjg4pbjFIjrNApI1508Dt27Ji3KQMdMK6xQD4IkjyPsIcaFSP5xI1OMBBnOvFAhxG3QlsHhIXOIbMQCGfJ9Qy3sYNggd/hWa4Fu+GXmTjCHjqdQHrQMQx22KRi88039+4iKLLWh2vMFDHiz3U6rgg45CedThb9h3sY0pUOMWnCVvVsic8vsxLkP2EjLUhLnkcVi/AgyCDkBrjHM/nFmXJFOOjsk08ILQi/gIBGemMvwCwd6obxtA33CQ8zcJQ9hHjKH2EKmz1gDzfJq3BOuiGY4h7nzFxwDRAoEeB4xyEoEWfSnLLLOh8EBwRfZnuSw0Oc6PiTfgwmUI5IX8oGYWCtHkIYs8XkU7wDTzwQ+oLwDvEyEOJLvQhCGkIHggvpSVuOYADkO4IC8Bz5h1+EF38IA2qOlDlmWpnB4R7lC+ELYZQ4o0IcZjnjhLCEOFPWmAWkLiDE8W4hvUK4MeQzM6ykG3UZAY0wcQ9BlrRhQIIt+MlL4P1OOYrnXWgvQphwJ2zOQr4RJ9on/OEa4SJ8pHdol+gThLWepAdtGu0Sx9jH3w8++MCHh3QNappCxKEsUubCxksbOhK0ygCSmJcpo3wsLqVhTm6AiyJVglZxoNEERmkZKdtYKkNxIC8laAlROtDJRbiibjETRqedmZF4x1wIIUTFZWMTtPT2KiNQm2AkmFFUKM/yLWFjdJYR5fjCdyGEKE3YaY2PsrK2h5kfhCwNZgghhKioSNAqA+goMCLLDkfo+qMmUJ4FLdQpCCf68UIIUVZ06NDB7wDHIA+7na3N7L8QQghRXpCgVYaw/gHdbRbLl0dBizAhZKHzzQ5l4WOjQghRFrDmiTWh7My2NtvRCyGEEOUJCVplzLnnnusX3LJgtrzB2iwWu7KombVdjCZrbYQQoqwIM1gs9o9veCCEEEJURLQZRhkSkprdldg96Z577vG7/hQlzPAci8PZxreksL0z20oXBu4jZPGxyksvvdRefPFFvzuYZrP+CWmlzTCEEEIIIUqONsMQpQadcgzbJfNdG9ZAhY8QFgad+7POOstvSVtS07Nnz4QrhcP3aFiXxfdnJGQJIYQQQgixbmhGaz2Cmh4fBmQ9At+qWB9qeqzJ4js6zGTx0Ui+XyKVnYLRjJYQQgghxNqhGS1RZvCBwltuucV/aPDHH3/0nfhgSpvgD1+K5yOICFnbbrutF/bKwn8hhBBCCCE2ZCRorUcQahC2+EI967Weeuopv/V7+GBwacJM1gsvvOA/DsrX+BGyIKg3CiGEEEIIIdYeCVrrGWaPUBt8+umn/dqtHj162MiRI/11hCGErlTMMOFGMD/88INXe8vKyvIfBsV/CVdCCCGEEEKkDgla65mwnTGGXQWZ1eI7W6eddppNnjw5YSs1zJkzx2/b3rdvX7v//vu9UMd6rLA2TMKWEEIIIYQQqUGbYZQT4tnA8aRJk+yZZ57xOwfut99+fgOGOnXqJGzkCkXYC0IaJLsBK1assPfff98+/vhjq1Gjht+FcKeddvL3QMJVySBdtRmGEEIIIUTJ2dg2w5CgVQ4hS1AbZKYJ9b63337bfwtr5cqVts8++1jHjh39mqpmzZr9Q9BCMPvpp5/8R5H58PCqVavspJNO8rNlm2yyibcXZrBEyZGgJYQQQgixdkjQEuWWP//808aMGeN3KJw+fbotWrTIX2e2aq+99rLq1av7Wa8WLVrYNtts42euWPclwSp1SNASQgghhFg7JGiJcgtZFc8uOvmcN23a1L7++us1Ci3XgxAgYSB1kK4StIQQQgghSo6+oyXKLXTqmZ0KhvNgAuE8fl8IIYQQQghRtkjQEkIIIYQQQogUI0FLCCGEEEIIIVKMBC0hhBBCCCGESDEStIQQQgghhBAixUjQEkIIIYQQQogUI0FLCCGEEEIIIVKMBC0hhBBCCCGESDEStIQQQgghhBAixUjQEkIIIYQQQogUI0FLCCGEEEIIIVJMWuRIHIsKRDzbmjZtal999ZW1bNkyccVlbFpa4kikEtL9qKOOsmOPPdbOPPPMxFUhhBBCCFEUoc/aqlWrxJUNGwlaFZScnBzr1auXPf3004krZrvssosNHz7c0tPTvRGpJwhaXbp0seOOO04CrRBivRJe4AW1REXdF0KIsmS33XbzfVUJWqJcQ7ZNmDDBC1dZWVm+w9+/f3875ZRT/H0JWqUDAu6ll15qgwYN8ueqPkKI9UlOpTRLzyq8HSqOHSGEKAuqVatmI0eOtHr16iWubNhI0KqgkG2YK6+80h544AHr0KGDHyGoVKlSwoYoDRC0SHcEW81mCSHWJ7y8x04aZzu22d61R7nXksHOmJ/H285bt3dHarOEEOuX7OzsjUrzSoJWCQjCDR3skGzrs7NNGH7//Xc//frWW2/ZPvvsUy46/yFtNtRKFMqAEEKsT3KFqHG2U9vtCmyTclx7NebnCbZLOwlaQoj1S+gfwsbSj5KgVQJIKsyAAQPs9ddfT1xd//zwww+2ww47+EJbHrKTjSJOP/10qS8KIUQpUmxBa5ITtDSjJYQQZY4ErRIQkqpnz562ZMkSvymCZjbW5O2337a6devas88+q7QRQohSRIKWEEKUbyRolYCQVGeddZa1aNHCevfu7c/F39x88802c+ZMCVpCCFHKSNASQojyjXS71oK4bMrLTSbXCCGEEEIIIXKRoCWEEEIIIYQQKUaClhBCCCGEEEKkGAlaQgghhBBCCJFiJGgJIYQQQgghRIqRoCWEEEIIIYQQKUaClhBCCCGEEEKkGAlaQgghhBBCCJFiJGgJIYQQQgghRIqRoCWEEEIIIYQQKUaCVhkSRZFlZ2f7X0xOTo7/BY7DebgXN8FegPNktzDhXngmfi8/EyduN+6GEEIIIYQQomSkuY60etLFJCRVz549rWXLlta7d29LS0vz14rDihUrbNiwYbZ06VL/3C677GLNmze39PR07/Yvv/xiw4cP93br1KljW2+9tY0ZM8ZWrVrl7Rx99NH+HmD/+++/t5kzZ/rzpk2bWseOHb09BKSRI0fa119/batXr7ZOnTrZnnvuadOmTbPffvvN+wPt27e3du3a+WP49ddfbfDgwd7t6tWr22677ebDgZvFgeduvvlmH6Znn322RGkjhBCiZPBGGvPzONup7XYFtrc5rl0eM2mC7bJ1e3emNlkIIcoSzWiVIQgvCDxXX321HX/88faf//wncSdXSHnwwQft1FNPtYsvvtj22msva9SokW222WbWq1cvO/bYY+2NN97ws1jA70UXXeTdQajZdddd/Yt23rx5duihh9pZZ51lHTp08HYyMjL8fYS83Xff3QYMGGAnnHCCde/e3bKysrxbCGcvvfSSnX766f5e27Ztvd/FFbKEEEIIIYQQf6NedBlTtWpVL+Dwi+D0+++/eyGLmaaaNWtapUqVrEaNGv4X6tata6eccooXou666y7/i/2hQ4faHnvs4e3UqlXLXwMEq08//dQeeeQR23vvvW2TTTbxwt2rr77qhSae33///W2rrbay0aNH+xm0MBL6119/5fnLTJYQQojyQcSfa+eDcf/lmmLgW/jYM94Nf0cIIURpIkGrDEGgQdhp2LChnXnmmbZy5UobOHCgf+m9/fbbds455+QJPfwGs++++9qWW25p3333nTfYR21w55139nYD06dPt3feeccLSZ07d/bX8A/hiRkqZroAN/Gf3+eee85fQ+BiFg37uK+ZLCGEKD+4ZtminMirAnqTELzcSe5vYTg72Ylncp9jLW5W0c8JIYRYJ9SbXg/wckN9EJW+fv36+Wt//PGHNWjQIN8XH0IPKn2A/WXLlvlZLwSlYJ9f1nOhBsh6LdxOBgEvCFBnnHGGf56ZLtxDgEOtUC9eIYQofzAE9+sfv9m9Ax61D77+1IaN+c6Gjf3O0n1bX/DaK+40arC5DR870j0zwoZ8P8zuef4R+2n6FC+ACSGEKD0kaK0HEHDYTOOQQw7xM1MPPPCAbbfddoUKOT169LDKlSvb//73P3vooYf8xhi4E+CY+7ixfPnyNe4B5/FZKtZ/sR7szz//tDvvvDNPcBNCCFE+qV+3nl3evZe1btLSKleqZC0bNbftt9rGtd0JC/lAu75F/YbWsf1OVq1qNatZraZdfOp5tk2rtq4HoDZfCCFKEwlaZUgQpNh4gpcfm14Am1Dst99+BarrYbdFixZ29tln+zVdrOdidioZ1mLVrl3bZs2a5TfFCOAfm15kZmb64xCOm266yQtnDz/88Bo7GoJmtoQQovyR4d4T7Vq1sU7bdXAvB7NRE8falNnTLYtNjbL//mwH6oXZ7vyP5Utt5LjRNnHqJC+Uddh2R6tapYoG1oQQogyQoFXGIMCEFyHCVbNmzbwaIS897gUTCOfcv/baa/0mGldccUXevfCy5JeNM3AL9x999FF/HTh/8cUX7YcffvDnYedCtpZn3RZqhPXq1fPX4m4KIYQoH9Aur2HctcYNtrBdtt3Bam5S3YaOHGYz589xjXiu/aysTPvq++E2acZU28nZ2cEJWZUzKv3DHSGEEKVHxk1Ma4gS8dZbb/kNJ7p06VKiFxVqeq+//rp9+eWX1qZNGz8rhYDDFu3s+PfRRx/ZxIkTvdsIQVWqVPEC0pQpU2z77be3LbbYwgtmbFqxaNEie//99/1z7FbILoKbb765n9Vq1aqVvfvuu969sWPH+o0u2AyDDTLwG/VD7DRu3Nj7f9hhh9mmm25qH3/8sY0fP96rFRIG/KpWrVqJ4sh3uFhv1q1bN73EhRCilAiCUnpautWqUdNaNW1hy1Yss59mTrF5C3+xxUt+s13a72TNtmjsZ8HSM9ItTaqCQghRpuiDxSUgJNXafrCY55lNCi9IYLYpnIfZJEy4DsHfcB7sBvuQbAc4TnYnPAtxu+EaBDuoMobf4oDdDfGDxfG0EUKI8kp25Nr7nNwNlHLcX1rE+8Td2EDaYiHEhsGG0j8sDhK0SkBIqrUVtDZ0NlRBi1lDNixZvXp14ooQQgghhCgJ9Av55BBLYFgKszEgQasESNAqnA1V0Jo2bZr/Ztmll16auCKEEEIIIUoKA9d8joglLBsDErRKgAStwsXg384AAGdXSURBVNlQBS0+BM26uNmzZ/tz5bkQQgghRMmgn8geBEOHDt1oBC3tOihECUDIkpGRkZGRkZGRKZnx60dzcnfe3liQoCVEMaGREEIIIYQQa8/G1J+SoCWEEEIIIYQQKUaClhBCCCGEEEKkGAlaQgghhBBCCJFiJGgJIYQQQgghRIqRoCWEEEIIIYQQKUaClhBCCCGEEEKkGAla6wgfX5PJNUIIIYQQQohc0lwHWT3kYhKSqmfPnrbZZpvZpZde6s/F39x33332xx9/2LPPPrvBfCdh+vTpttdee9mcOXP8ub6nJYQQQghRcho3bmzDhg2zli1bJq5s2EjQKgEhqW655RZ74oknys0szqJFi7zgl5GRkbiy/kAIOe+88+zGG2+UoCWEEEIIIfKQoCUKJCRVPMnWd6ebsDRv3tyGDh1aLgot4cGQLunpG4ZmqgQtIYQQQoh1Z2MTtLRGay2go12eTFwAzO9+WRqEKwzHQgghhBBCbKxI0CoByUJFeRMmykt4ymPaCCGEEEIIUZZI0BJCCCGEEEKIFCNBSwghhBBCCCFSjAQtIYQQQgghhEgxErSEEEIIIYQQIsVI0BJCCCGEEEKIFCNBSwghhBBCCCFSjAQtIYQQQgghhEgxErSEEEIIIYQQIsVI0BJCCCGEEEKIFCNBSwghhBBCCCFSjAStCkoURfbyyy/bzTffbMuWLbMHHnjA7r33XsvJyfH3hBBCCCGEEOsPCVoVFIQpTBC0HnzwQZs/f37edSGEEEIIIcT6Q4JWBSUtLc2OP/54a9OmjT+vXLmyXXLJJZaenu7vCSHKFwyAZGdnexNmnvkt7DgrKyvvuKTwLH4F94K/4Rom7j4mMzNzjTCGX+wG4u7F3Qr3wv24CdeDKYrgRvC/oOPC3OJePHzBcC2YZDulBX4Q3tIinibhtzD/iGuwE49/uBY/DnaCvXB/XQl+xv2KhyUej3AvlOlwrSxIDl8IY7hGmDgviPziUpj9wghuxcNQErfCc0KIskOCVgWFxjIjI8PuuusuL1z16tXLmjRp4oUsCVpClD/oFH311Vd27rnn2m677Wa77rqrXXPNNdatWzc7+OCD7c4777S//vorryN04YUXWsOGDW3s2LH+vKT069fPdt99d+vUqZMdccQRNn78eJs8ebJddtll/hrm8ssvt59//tnbnzdvnv3nP/+xM844w8+Of/3117bpppvaeeed5+/HWbFihfXp08f22GMPb+KdN+K5aNGivGNUmvHrgAMO8OfF5Y8//vAz9jvuuKPtt99+Pj0wpBNpuHjx4kI7jStXrrS7777b+33aaad5u5iDDjrINt98c58Wc+bMsbPOOsvnBW1pafHbb78ljkqPxx9/3E466STbf//9fXwmTJiQuFMww4YN82kaLw9XX321TxPy9fTTT/f2PvjgA18WbrvttkLTvKRQHo499lgfZvzu0aNHXlgIB2WPMoz/0LlzZ/+eI+/KCgYfnnrqKdt77719uhImBjX//e9/W9++fe2TTz5J2Mwf4jhmzBg75JBDfFy+++67xJ2SQ9qvWrUqr1x37949cad4/PrrrynNPyFEMXCVTlRgsrKyoi5dukSu0xG5Bj1xVaSSadOmRY0bN/bpqzQW68rDDz9MTyfKyMiIsrOzIydcRfvuu2+UlpYWHXXUUb5Oc90JJt7Ohx9+6M9LyurVq6Mtt9zS+9W6des8dxcuXBhVr149Sk9Pj1wnO69Mc2/AgAHRSy+95I/5rVSpUuQ6t/mW+x9++MG7Xbly5bz7/OJ+cBd3nHDp7dWrV6/Y8ZgxY0bUokWLqGrVqtHAgQPXeM51bn1aOWEucSV/8H/cuHHe7x122MFfc53mqFGjRv75oUOHejuuQ+/Pe/Xq5e2kEsK9YMGCNdI5lYQ0/uKLL3x+OqE5+v3336NNNtnEl6Wi4HknkPs0wsyePTvPzXfffTdygoU/fuihh3xZdAKYv5+quOBO+/bto/Hjx/tjJyzmhcUJ2v7aLbfc4ssl5XezzTbz4Rg+fPgaZaI0wO8VK1ZETgj0aXvVVVf5uhruffTRR1GVKlV8/eS8KKjPxMsJZsWyXxiUa8rsjjvuWCy3SDv6CKVVDoUoCbTB06dPT5xt+GhGqwLh8usfBlxHxOrWretHzpLvCSHKF6j5BlxnyZ+jBgzvvPOO/fLLL77+Pv/88/bZZ5/5mSCI1+1kkx/MeDNjBtOmTbNvv/3WHzuBx1wn3D/39ttv+xF7jgkLo/PMfsEJJ5xgrrNtb7zxhj+P+4fBfZ4JcG3JkiX+eX6B+9iLk+xOHM5px5hJcZ1+P3MV0ibYZUbuyCOP9MfBfnArboDZ/gDXOGem7vPPP/czNsC15GdTZZjJIq35ze9+SU1BDBo0yP9OmTLFatas6Wfstt5662I974TpxNHfLF261M/AMNPKc+ecc469//77fgYnuBN3N9kUdj8Qzs8880xr165d4uqacP+iiy6y6tWr+7JE3n355Zd+Nofz4EZxTXAzPxMnnF977bXeP2aimEl1gpW/DszC3X777YmzNd2Nl8lAvK5AQfaLMlBUnUo2TtCys88+29fLkvhVkBFCFB8JWhUI1IpefPFFr7JDJ+yHH36wH3/80RtUG1ALeO+99/wx6gVqEIUo34SOCyps0KpVKz9oMnr0aC8ksZsoKmCowd16661e+EGdjs1vdtllF9tzzz29WlJ+IED07NnTGjdu7M+ffvpp39njevv27f21uXPn+t1LCQMqhFtuuaXVqlXL+4ea2BNPPOHDEKCzjZ+nnHKKDRgwIK/zyPO0Q/vss4+NGjXKq0giIBH2eDuEX3SS99prLy/40emLg13UxIYOHervoQpHeDHBL35Rndpkk038mhPs/+tf/7JLL73Uu024eBYT79zi9uDBg+3KK6+0hx56yKZOnZq4k8uCBQu8yhwCCuqTnOP+F198Yccdd5w3xPGmm27y6ozjxo3zHVjaXPwnrVEJ7d+/v39u+vTpXuURVTFU9EiPTz/91N9DoD7mmGPs+uuvt1NPPdWrhxI+0p32HbuoppEnCDu4Q5ueH8QRtT6ep+P/3//+104++WRfTrgW0iI/eDaeRgHyieuUQdRACSeqiS+99JItX77cq5iSHqQF5XK77bbzghnlCT/h999/93mCHcLz/fff++vJXHHFFf8Q2gNcq127thdW33rrLZ8m9913nx84IFyoG5JWlFXSbfvtt/dpRd6gOkt+IFCT/iENSH8ERtT/yGfqRQhzgHPqJOWfY8ohYaQcAuHiHJX9tm3bejcpL71797ZbbrnFunbt6gWbIGCHZwKEhWdQqyUOqCVed911tnr1al9/TjzxRJ++pNmIESN8feOcwQeIu4X7lI1HH33UbrjhBp/W1EPqEH5QznGfMke9pA2hHPIcdiiH4TkEWZ5ZuHChzxfSlvzlOsImYRVClBBX2UQ5xzXK0S+//BK1a9cuOueccyLXqHq1oDPPPDN6/fXXI/cC8moEroGO7r//fq/mgPqIazD9s8GItUOqgyKVuM4bPS+vAoXKl+uIRjVr1oyOPvpor05BvUXVB5Vg7KFqxDXXofd1u06dOpETLrwqE+euU5Zw+Z9QXl3nyNtzHdbIdZK92xdddJFXK+R6x44d/TXXWY3mzZuX99yLL77o2xXXSfP+T5kyJapRo0bkOl/evhPA/H3Up7DPNeJCmF3H0KvpcQ01L66hhohqGGpoPOc6xf9Q/8Id18Hz9jHz58//R53jPJgvv/wyz138cp1Br8qIChxuT5w40buDilVIV9TP8N8Jet6Na6+91p+7Tnm0bNmyyHVY/bkTBr19DKqWXHNCkc8X0g3VMfKPfHzsscciJyR5lT3OZ82a5f1zwo5/jvQIbg0ZMsQ/7zrW/vz//u//os0339yrdvEM6cUzhPmII47wKpSkO2GLE+JDOhN/3MQENTveAU6Q8KqfTkDx9vPjhRdeyEtvyh+qcDvvvLNPG57h1wk3/r4THvy1kPdOwPNpQPw4v+CCC/LChTosfnN81113RS1btvTvLdwLBPcD+akOBoNdyjD3yDvcdUKl97dWrVo+Py677DJ/3rRpU69y+vzzz+eV8eAO+Ys7qAVSt7iPmiT3AhyH8o+h7uUHYcKQB07Ijzp06OCPn3zySf/ceeedl+fuQQcd5MOOn4T9jjvu8PWecJCuhOOZZ57x90gr7FLPcR/VV85R1wUn8Hv3Q7l2Apt/nnShHKJy26pVq7zwPffcc95+vBxSRsk/yj/nlEOec8Kdf+bOO+/0z5CH3bp182lGnYinkxBrg1QHRbnDNWxehWHmzJl+wTbqC6h7MILnOg1rjLJx7PLVG/dC96pHjJJyLoQoH1BXMSzqZzQa1SjUeoJ6H/U4rtKFXc5pC5i1YUMHZhE4Z+OKwmAjCOAzEG+++aafoWGkn00QaBcYQWdGBf9ROQP8Q6Ux3m4ws8UmGMxGET5mDrAX7HCN80B8BgCYKWOUn5FxnmGkPW4/EN84Iq5mGeCZYNgwA0aOHOnddB1FP8s0Y8aMNdzmHmEJ6RqPF3DuhAufD8wwAbMgzCjxDHHBDjOOqFeSXqiOMWvDfWYg8Y/nyRPXifXXuRb8CufMpgW3OOeXGQQnrHl7+AWoATIrQ9zwD7fj4AYzSGymwjNOAPTXmYEgr1EhZGYDVVFmleLpURC8U7DLrBXuE2ZIVncN6UFZZLZkp5128uch3ZkpwVBGcYMNLHh/hZmUQEiTguBeMNjNr07wyywrKrbbbrutd98JKn4GCP85D7OXHJP+zEIxI+oEMn/ttdde87+YYC+u7hn3Nw5hCmmEffyhTFarVs1fY+YtP8gfZh+dEO3tsgkI9aJ169b+figDEOIZjvODcsgz1GXs4CYzchyHMIa4ccx1VCHJ53g5ZEbNCYn+PISB2UEnqHkNGlRUgztCiOIhQasCQMNIA7fNNtt4taIAL1BepDSKydAYorLCy4RGNz87Qoj1Q+jAsfYFtaf777/fq/XQyUc9Lz9CHeY3blhjVRh0gjt27OjbEVSPn3nmGa8uhNBD5x036FzTSS0I7NCe8IvAFPwuSacrdPh4DgoKNzstBoraWZD1YHQoUeFirQ/qelCScEGIDwZVNdpM3AiqWsA9VMLogKJ6yTn+Y4d8ZD1Z2DUyOzs78dSa8ExQ9axRo4Y/DwItgl0chAHaeAwqndhNBpUyOtmoLaIySNgQ0NixDzcR3Ok4B4GkKFCBRE0sCG1FEfI05CtCLv7SOeeXMo1Aj3CPOhzXUkWID4JtCEMQDrgXPw/hYtDxp59+8kIfa7+od4QLIQOCm9ht0KCBP8cUVQ6xw66exBsVvqCOSDkIbsaZOHGiH7QIdYDBC9KK9znhLgn4c+ONN3qhrlmzZl4dksEb0qUw8I/wIZBDWH9GHAK4TfuBamrz5s3z0kQIUXwkaFUAaAxpOOMNfXgBFNTo0aHCPqNkhdkTQqxfqJv77rtvXseImeiCwG68HSgO2GddEr/MKCBQIWAhUBx++OHeDptDsA6mMILfoXO4NmGBeFsUPwbcO/DAAxNnljdTVBCMwN9xxx1+8wxG6MOMwNqEC4JfdMwBjYE4oVOKPUzwHyEPbYPkWaf8QOghfEE4CUIZs3HBf+4HIThu4iCwffPNN34WiTxhlpL1QTzLTBhrblifhOCa/GxhYBdBfG2Jh5cZo4cfftivG2bTpkMPPXSt8yY/QrzyczP5XjgPv6xzZBaRcLFGCeJ2EXrCzFRxPrGAUIsgXqdOnXw/iRAH9/GLvGMGLJSFYJLJ71qAe6wPO//88/OEvDBQUBhhljL4GYTR+IYfQJkPdoIRQhQfCVoVABphRhhZiM3oJdAg8nINaoHJjSrqJoxwMnImhCg/UFdDh4VjBKxJkyb5eo4J6k6BYC8Q7+iE6/zG7QSwS8ceNSqEEGajLr744jw3GP3mOWZm4mrIyf5xTieS+6jT0SmjgxjcCfbDzAnnDA7lp7bMebCTPOrOdVTyCA9+sRkBfiGMYJdf1J3YdIBjOsp05Dt37mxbbLGF/fnnnwW6nV84AhzjD8+gxofbbIrBphfcCyYZwocqGqprzFDRJjOLwvO4x3FII64xi0H8iBs7++EmamSch50gg/3iguoonWzSm5mssGEBu0WyayQzbgjSYSfIOPgXT6cQRwSi/MoChPMQTs7jdjhmBpX7bD7Cuwg/ECrY3KGg+GEn2Z34eaAwf+Pkdx8BhDxl46hHHnnE+0k+MQARh7hTnq666irv3wsvvOA33yAPgefIa/Ie9U3SlkELvkVHnaKMhrzHXniOc8JBHWemEr9RyeU+9tj4ArfRRMEu9zGUEQjxCb8hLVhawKYw7MYZL3vheeolccI+96kntAlcw2385Jf7CJi4H9wWQqwbErQqADR46M4zwonwFBpPOhgIXqHRpbHEYJ/RXdRN6FRxP9gRQqwfqIPUTzpmwDFrKD/88EPfUaZjxNblqINB6BjTwaNO0zmEsC4p/IaOUmHQocJd1KQQtgKsa2nUqJHfVS0Z2hb8RW0K2IWM2RF21XvllVf8zn/cpy366KOPvB06kFxDzRB1RGZ8ECiAzh12g3t0+BA88gM/DjvssLxd0ZhRYA0MW20ze8UaNfzBTWANCWuFcJ/rdIARmIJfpBVphDBCJzhcA/KF0X1mz3ieTjUdXXZ2pYOKOiAG4u0tEH7OmUFiNzdmM/CHmQVmGUJ6MPPELoAIPezkh1BLGmGXX1THwseBCTfPkK+4HfcvDmvKEIiwO2DAAP8x3QsuuMCrhIWZStbkoRZHehK2/OBzAoHwaYFkQtkLA32h4x/SMPk+YWHtGPnPWj5UK5ltC2u54sTjGA9LfO0h9xHayW+OQ9mkjvAb1vUl1w3uU/bJP8KCXWZ3+UUgpT4cffTRfm1icrgAlTyELeLHYCcCGW5SHv/v//7Pz0JSf8KgJ/4goKP+S94y0IkAxHE8rRDKw26erKkjHzG4BwiDhBFBno8S82yIJ+HEDX65zm8ohwjaCHrUccoy4ec67lHGKYfUS9YQEn/K5/Dhw72fzMhRVlCphFAOgx8YIUTJSXOVR7WngkDDx4uTRrZ+/fq+I8KoG6pGjIjzEqNTxgsKVSR09WlQ6UzRgNKREyWHdR90hMIW3Lx8hCgpdHxYh8MGGGGEm+aX8sTaS1S/2DQA6MgxEwB0vtjim00Y6Mhhn/pNp4nOHTAKzZoeOpX5QUePhfp0VNkCG3uh84TqFJ3ioKoG2GODgOAfmx7QKQsbNDAzcOyxx/oZE9YrcR81Mfyhk8nsOzM0zKKxLXfoGDLTwb0gYOEms0HJ4A7Q+UMYpe6h0oRfCF60f8QBIQ6BiI4rnWYEmXfeecfPvuE2cSAuxIFvNfFMmOWnM4qAiaBL+4gAjGAHuIVfhJk1S2xTjxsIYLS7zEZwjw4/ghnqVWyFTd6ST3TKiSt26GgTZ1QiEY6IG37xHPmHAMR6OVQ5EQT/97//5QmQhDlsPpIM7mCP/GB9EPnXoUMHn+7kD+t6eTcw4IZQgPshf3mWsFGGWLMUBFTSESGpTZs23h4gMPK9NewTDvIaoTSos5N/CIu4AZRFhA2ED/KGssz6HsJAXEMYArjBswiIlC/OMeQPqo/kDfWFfAqDFMSFPGZrffzBTcJBnSFcQPqzFisIDJQHVOmBMoLQhDsIuIXVHcLCLC75SB0iLKQpdWarrbbyz3GN2Ts2o+B9y3rqZ5991gs3DHBQLpitwi3yBuGOMsPaNeoQa6BQ9SQcwHs8zLghOLERBUIW+YO/1KkgXFFOqXuvvvqqzzdmgxGeyBOEf9oU4k/Zpj7RlpAWgJus2aQcIfyzKQdlmzQjXCFPSUv6FwWlkRAlgU+O8C5k05qNAQlaFQga3fCSSs42rsfv8xvshGM1kmuHBC2RCvKrs1zDFFSmuE69DseB8ByDJ3F3C3InbgeCveBOOI9fD7/xaxzHfzGhXYlfC+eBgu7Fn48T7OUH93i+MDfjJF+Pn4djSD7nOO5WOMcQ5nAcv85x3A2uBcK9cC38hmvBzfyIuxmIt/dxcCN+Pe5P8vXke6GsxfMk+IPBPufhfnge4m5D3O1Ash0I4Qj3gj+B+Hk4Tr4PwY24nXAc7EB4Nn4tfpxMsJ9McDf4EeA4+V74jV8PhGuBuP1wnWPSPOQPxO+F++GYe/m5EY6B8zjhXnguP+LPC7G2SNASQqyBBC0hhBBCiHVnYxO0NMUhhBBCCCGEEClGgpYQQgghhBBCpBgJWkIIIYQQQgiRYiRoCSGEEEIIIUSKkaAlhBBCCCGEEClGgpYQQgghhBBCpBgJWkIIIYQQQgiRYiRoCSGEEEIIIUSKkaAlhBBCCCGEEClGgpYQQgghhBBCpBgJWkIIIYQQQgiRYiRoCSGEEEIIIUSKkaAlhBBCCCGEEClGgpYQQgghhBBCpBgJWkIIIYQQQgiRYiRoCSGEEEIIIUSKkaAlhBBCCCGEEClGgpYQQgghhBBCpBgJWkIIIYQQQgiRYiRoCSGEEEIIIUSKkaAlhBBCCCGEEClGgpYQQgghhBBCpBgJWkIIIYQQQgiRYiRoCSGEEEIIIUSKkaAlhBBCCCGEEClGgpYQQgghhBBCpJi0yJE4FkLkw7Rp02zvvfe22bNnW1paWuKqEEIIIYQoCc2aNbOvvvrKWrZsmbiyYSNBS4gimDt3rm255ZbWsGFDf64qI4QoDzDsk1a1ikWrVlthrVJGlcqWnZnpGq/EBSGEWA8wWL1gwQKbMWOGNW7cOHF1w0aClhBFkJOT44Wt1atXJ64IIcT6h5f3TzMnW7sWbbzQlR857hX/86yptk2L1u5MM/JCiPVLlSpVrGnTphuNhpAELSGKQFVECFEeoWUaO2mc7dhme9dpyb2WDM3XmEnjbeet27szCVpCiPULfSqELAlaQgghhCi38PIe8/M426ntdgV2WpjRGjNpgu0iQUsIIcoc7ToohBBCCCGEEClGgpYQQgghhBBCpBgJWkIIIYQQQgiRYiRoCSGEEEIIIUSKkaAlhBBCCCGEEClGgpYQQggh8oWNicPmxOtrk+IQhnhYhBCiIiBBSwghhBD5gmDDR9vXp4ATBCzCIYQQFQl9R0sIIYSogPDyXpvvaP3111/28ssv2+zZs/05hOfpEnB84IEH2u67724vvfSSDRgwwB588EHbaqutLD09deOz9913ny1fvtwLUPgZ/IbQNTn66KOtXbt2dvHFF9smm2zin0llGIQQojRRayWEEEJsRFSrVs26d+9u77//vt100002ePBgO/nkk+3YY4+1XXfd1YYOHWrffPONt/vQQw/ZJ598YoMGDcoTflIBbj3xxBO2xRZb2HHHHWeLFy+2m2++2Z5//nk78cQTbZ999rG33nrLxo0bZz/++KM9++yz9vDDD9vChQsTLgghRPlHgpYQQgixEcGsUaVKlWzzzTf359WrV7c2bdrYtttuawcddJCfxQqzRrfccoudc845dsYZZ+TNOjEDFdQJs7Oz/W+yEBbsBHv5gbB39tlnW/v27a1u3breHuHaeuutrUuXLta/f39vb7vttrMbb7zR7r77bmvYsGGemxiOCUPcv/i1ZL/DM8EIIURpIkFLCCGE2MgIKnpxEDyYRdpss8286uAPP/zgBRbU9zIzM/1s0kcffWQffvihjR071qZOnWoPPPCAvffee/8QWoYNG2b333+/vf766/7Z/EB4g/zCwjUEv3333deGDBliHTt2tG222cYLSr/++qsPA2Fhtmvy5Mk+HG+//bZ/du7cufboo49av379bOXKlf5aAHXJRx55xM+Q/fHHH4mrQghROkjQEkIIITZiwkzV+PHjvVCTkZHhhRpmlq6++mo7/PDDvZphgwYNvGrfUUcdZWeeeaZdd911fpaJ83fffde7hWB255132imnnGKnnXaa3XPPPXbhhRdaVlbWGrNL+NmsWbNC11txL9g58sgjfThwo169el7t8NBDD7XTTz/dqxw+9dRTXvURVcgrr7zSXnjhBfu///s/69u3r3cLQRDhsEOHDrbXXnt5Ae3ggw+2VatWaWZLCFFqSNASQgghNmImTZpkF1xwgRdc4kJHlSpVrFGjRnkCEgLPlltu6c833XRTv6HGMccc44Wmr7/+2tthNgnB5/jjj7f69et7Iey5557zM0n5zVwVB4StZLiGe2zQgVB10UUX+XMEQjbvuPXWW7294cOH+1/ixTo0wrTDDjv48I0cOdI/K4QQpYUELSGEEGIjpm3btn6jieuvvz5xJXfGKb/ZJq4jtDRu3Nivp6patao/ZydDYOOM1atX208//WR9+vSx0aNHW506dfxsWXxGqyQEPwOEi2uAIMgMHBt8hHBVrlzZrzvDP3Y1BPxHoPzzzz/9LNf//vc/PzP27bff5rklhBCpRoKWEEIIsRGDQIKwct5551mLFi0SV0tGEKKWLVvmj1u2bGnXXHONvfLKK7ZgwQI/W1bWAk1csFu6dGlePK+66iovbLHmjLVccXtCCJFKJGgJIYQQws8UoV63LjRt2tT/slEFM1sIVwgybN++PgUawkVYZs2aZTNmzMibrZs3b57/FUKI0kCClhBCCLERgcCDml3YDZDjcI3vWoVr4ToCStgunV/Ow/3k8/3228+v30KgYVOKOXPmeBXCgoSs4C+bZQShLFwLhntBXZAwh+vYC+HChHByHXtx95ip23vvvb2fzNxNmTLFz7bxnS7uCyFEaSBBSwghhNiIYKe9d955x69XYhc+tkBnW3fU6+J8//33/neXXXaxn3/+2QsnbGrBMzzLzn3MVHGfLdeZHULIYvMLdixkC3V29mPzCXYszA+EnE8//dS7hbusm2IzCwQ07iFAffbZZ/4ehm984Rf+cs4vQt2ECRN8OBDKOA7PsF6L3QYBdw855BC/9Tzf6UJ1kPAJIURpkeYaMg3lCCGEEBUMXt5jfh5nO7Xdzs/e5EeOe8WPmeSEkK3buzNt+iCEEGWJZrSEEEIIIYQQIsVI0BJCCCGEEEKIFCNBSwghhBBCCCFSjAQtIYQQQgghhEgxErSEEEIIIYQQIsVI0BJCCCGEEEKIFCNBSwghhBBCCCFSjAQtIYQQQgghhEgxErSEEEIIIYQQIsVI0BJCCCHKOVEUWU5OjuXwG+X+Ru7c3fD3CoRbzn524pls9wzHPFPoc0IIIdaZNNfQqqUVQgghyjEISb8v/cPeHfKh1a5ey1o0aWZp7q9aterWtnkrS0/Pf9yUV/zi33+1uQvne/sLlyyyGfNm236d9rJWTVoW+JwQQoh1R4KWEEWQnZ1tv/32m/8VGxd16tSxypUrW0ZGRuKKEOsH/6JOvK5//WOJTZszw6pUqmLtt2pn6WlOhIqZOGHm65dfF9q8hb/YZnXqWatGTS0t3dnDfsKeEEKI1CNBS4gimDdvnrVo0cKysrISV8TGQq9eveyhhx6SoCXKDeGVjQrgqtWrbMS4722z2nWsfZtt/OxUsqC1xAllo34aZ823aGqtmjS3jCCQaSZLCCFKHQlaQhTB9OnTbY899rARI0b8oxMjNkxoFu+//3779ddfrV+/fsp3US4Jr+8lS3+3ybOnW9WMSrbNVu0sIz3D5i78xRYuXmA1a9Syti1b5816CSGEKDskaAlRBAhae+21l82ePdufq7Oy4UOzeMstt9iMGTMkaIlyA+UylMX4q3vRr4ttxtRp9tsfv9uYn8ZZrRo1bZOq1ax1s1bWpEkTa9m8hWVUquQar8QDCVSuhRCidJGgJUQRBEFrzpw5/lydkw0fmsWbb75ZgpYoN1AmMagwT5w40VavXp24k7uWsGnTplatWjV/TnnFLrsULliwwH755Ze8NaZc32qrrfwz2NNmGEIIUXpI0BKiCCRobXzQLErQEusbyiGG8jdlyhRbvHix35xlu+22s6pVqyZslZxJkyb5DX4Qstq3b2/Vq1f3fqicCyFEatFQlhBCCFEOYUZq5syZ9sEHH9gmm2xiu+66q3Xo0MHPXAXBaG1M27ZtvVsdO3a077//3kaNGuX9EkIIkVokaAkhhBDlCIQeZpy++uory8zMtMMOO8yvtcpvV8G1Bbcwe++9t1clxK+pU6d6FUP/YWQJXkIIsc5I0BJCCCHKEagpsw4LleXWrVv7a2E2KhUEt4KpVauW9ws1xc8++8wLWanySwghNmYkaAkhhBDrEQQcZpIwI0eOtOXLl1vnzp3999vK4htulSpV8v4g1O255542ePBgW7FihZ9NI2xCCCHWDglaQghRTgibH+RnyrM6V37hLcxAiA/n5TVeZUFIDxgyZIhtueWW1q5du/U2o8TGGF26dLHRo0fbkiVLNvr8EUKIdUGClhBClAPiAsjcuXN9p3vChAl5wsj8+fP9/fJKCGdhxDvsrEEaO3as3658Y1ZTI80w7777rt+gYrPNNstT6Strgr/MbjGz9cMPP9iiRYskaAkhxFoiQUuIjYTQoSuqM1wSUunWxkzIl7ffftt3cFkv8/HHH9tHH31k559/vp177rl2zjnnJGyXT+igt2rVynbbbTe77LLLbJdddvGbLdSrV8+uueYa6969u58tYZc7VOQ6derkBQtmTjZmyPevv/7aunbt6tOnvNQp8nO//fazn376yVatWuXDJYFLCCFKhgQtIUSJCEIB0BmLn4u1gw7sI488Yscdd5xfFzNu3Dj773//a5dffrk98cQT/rtJfNOL9C7PIDwhNNx7773+GBo0aGB333239e/f38cHiEfDhg39t6A23XRTf21j5eeff/YCKhtSAGlTHvKZMCAoI/gj9DPzKIQQomRI0BKiDAkCCR3rv/76y1555RW79NJL/yGscJ9Rf9SrHnzwQf/xXHYD41qyUMOi9T59+th5551n99133z/scIx7L774ot/KmcX2YWSae0UteOceYX366ae9IHDUUUfZRRddZL179/adavwW6wYfxb7uuut8Wt9yyy1Ws2bNvA435uKLL7add97Z51vIz9WrV/s1NOR3uA4cY8iz33//3XeQOY/fw/Ac95YtW+bdCtf/+OMP/8ssBr/hOewuXbrUP5dfOeS8V69efmMFOujJcK1Hjx4+bsB24rNmzfJbiwe/g8F9NoRYuXJl3jnx+fPPP304OIdgnzBTjrnOeUWAcJKehL1x48b+WnkQsJJBjfCQQw6xESNG/CPPN1ZCucOg0vvee+/Za6+9Zp988oktWLBgrcohactzpVGGcS/UGSFE2SJBS4gyhhfqq6++6mcpTj31VPvyyy/z7cAgxOywww7+BXnDDTd41aL8OmJ8vJSO2pNPPunXeeQH7jOjMGzYMPv0008TV813Wm+77bbEWf7QGaaTT2f/4IMPtjfeeMMeeugh32lGRey5555L2BRrC0IsgkTlypXtgAMOWEPIwtDZvf32271dOk3k5Y477ugFcFT0yNdQhn755Rfr2bOnXXLJJX4XOcrNr7/+6u+NGTPG9thjD9t2223t2Wef9UI8a4KuvfZaW7hwoVflQ0XxyCOPtNNPPz2vvPF9pX333deuv/56b4dZmOQyy3koo+G5ONxnkwcEqzfffNOXf8Iyfvx4L0CdccYZ1r59e18nGHyoW7euNWrUyD7//HMfX2bG6tSpY/369Uu4aDZt2jQ/40L94FmEt+RwlWeo+3w0mDDnl2blAcLFx5KZeWTgR+SmCfX1yiuv9B9/Zjv+bbbZxq+pZDOTq666aq0EG8oBH49ONbQZpeGuEKIYuIothCgE15mLnCATuZeVN+sCz7sXcDR37tzIdVrpEUbbb799nrv8ZmZmRu+9917kBKjICTfefmHwjBPcvFv77beftx9MuM+x6wRETqiKXIfan69cuTLq3r17dMopp0RO4PLXQjiA4xUrVkROyIrS09Mj16n39uLMmDEj6tSpk7cb/AkmuBkn2InfC88muxEPU7jOtRCG+DPhenBzXcHN3r17R67z749LixD+vffeO3Kdt6hNmzaF+sc9J0z7/HDChY/vBRdcENWrVy+aPn26Lzuuwxc5oSNatWpVdOutt/pycdZZZ3m7mEMPPdQ/T1kJz7qOYfTvf//bX6e8L1u2zJcN0pQygJtHH320f57rrVq18tcL49xzz/V+u45oXjzjOAHP3//222+9u07Y9GlAeL7++uvokUce8ffr168fvfjii9HAgQPz0gj7TjhbI1yXX3551KRJkyLDtb4hHUjXcePGRfPnzy80v8sTlK3Bgwf7sFeUMJcGxJ+0oNxRHmknQnpwr0+fPr4e/d///V+0evXqItOK+5RfDHX6nnvuSVn64iZh/eCDD6IePXokrgohyhLNaAlRxjAausUWW1izZs0SV9YElSn3kvb2mEFw9dSPSPJbFDzzwgsv+NmIG2+80auO8SwzEMwiuBevzZw5049Mn3TSSV6d8Mcff7Q777zTz1wlw0wCsyC4G8IUhzgwm0DYMMx8oALHNdYYodoWwu46Ifbyyy/7cDEb9uijj3p1LyB8d9xxh5+1GT58uFdvPPvss/0MBXZQiWT0+P777/ezPwFUy/r27evDz/OMMoewVBQIK3kOroNWZNiZhSJNW7Ro4fODX2asHnjgAX+fkXVmIEgbVNOAPAfsMzuGH8xQMDOJqhPphwoqMEP01ltvmRPSvH3UW8kf/CF/WVfFejFmXNcFVAwD+BPOmfVipmv77bf356g1UlaZOYCw+yLrhghXy5Ytfbhq1Kjh7zG7VxEgb5ilS65Ta0Mo88llJ79rawvlhtkaNsfYmCG/qGtsXMMxM8AhD/lFrZpNTZ566ilfj2j3mC1m90bURMM5hvYZqM/UN7QLUOVdvHixtxvs0a5RxtmJlHqKfQxuch/75DO/XAvn8M4779ixxx7rn8Mu9UkIUXZI0BKiDOFFjKFDHV7OyTz//PNe/YuOMKpYCGXs2haEksJgRzc6nPvss4/vPJ911lneHzqpfIQUIYe1FqhqoTIG9evX9x3b2rVr+/M4QRWxadOmtvnmm/9j7Q1uH3744f6YdUaoldF5QKUNNRrWdtCx4KWPOhtC0k033eQ3QkC1jfVd3GvTpo1f34BgiVol6mMIjK+//ro988wzXrUNN1EPQ/gLED9UYhDuhg4daqecckrKOpZlBWnYvHlzfzx79uwiwz9lyhT/izDFs3SAgfTmmPRDnRNhOwhYuJlc3sKugDyDYX0VqnkIXqjxsTkHz+EuIJCTRx06dPD3ELxSCX6FuMfjxTXCGcoeHUxAbZB7EydO9OFCzfDhhx8ucACjvECYv/nmG68WHOKYChg8GTRoUJ5hzRADFqmCPEFFmTK6scMGNZRD2k7SJJRbyigDEdQNrqHOjZCEKiFtHu0VAyCoxtKun3DCCd6dAQMG+LLLMe3biSee6AUr1INxn3btzDPP9LtAsqtnGMC66667/H3aXQbRHn/8ce8P7Sn+s6Mn7w7WWzIAgbvUFyFE2SFBS4hyBlt68xJlPRQdJYQkdnG75557/PXwUuc3HAfoPB9zzDF+O3Be9oyo0jGnkxTf3Q3BiZkAnmdUnQ+U0slOhu858WzYES0/QgeeneUYpWc9Fx3InXbayQtBrKkh3IwAM0PFiC1h4zmEI+A4bJLAmhxm0Zhto4OC8MjzdE6YbWFmjXAz84VQwQYfdHCYyUEwRDBITpfyCvHGsMEIv3TK6Bwl5zOdKEaiOSYfsRvuIcgSfzp9nNMJ3H333b3Qym9+YK9KlSqJs1zosCGE05nDf8oca0/IF+wDG66Q/hg6cwUR7KeC/Nwi/swa8Mt9tsAnbJT7wsJVVhCmeB4mw+wCAyKphAEOBiaCoMUx3ylLJaQ3a8oQuguLX1lCOLITYSmL8FAPw2AHdS4/GLQirUgn6k8YjCJ8lFsGwoCwY4+BDQa7gAEP2kDaT9p+7NBWM1DGrD6CEr/U+YMOOigvH8I5cI67tMUMuHBOG//FF1944U0IUXZI0BKinEHnFhCA6AyHTjhCBKOSzBIFE17gyWCfkU2gs8V5nPzOeVEnX6czyIu8oEXw2A8GIQq7Ycc8Zlx4wX/44YfebcL+/vvve3sDBw70z9NpCc8HiBedEUZfmzRp4oUF7jPSixDAZhEQBFI6lRdeeKEXyJh1Y6Yj7l5F4LTTTvObQ5BeqFTyGyCOzEyhisnxgQce6K+jWoS98IuAzUwoAinCFyp4Id+4H9xM/g2wOQbpRzk7+eSTvV8IziG92fUSwZ/n2H6ej9kWh2R/AkVdT77Pefwa28eTz3QeERCBWYDihqs0IZQjJoyx5X8ty70QA9U7ZgVTTUFlPtV1gZlwylx54q3P3yuwPKUa0jOkafAzOY1DWQ0zlrR/AexyHn82/nw4jv/SNvBMqPu0edTP4A4m2R1I9jc/O0KI0kWClhDljKDSh3ofL8WgmsJMENdQ0aNDiUDBcTI8E168/CLw5EdxXriMsmKPDjwqZbzc4zDTgsGfIDSFtTZchzATgwCGegxqU6Ejnx9hlDiEj/VcCBnsrogwhTolMwKkBTBSy1ojRnznzZvnd8zDv4oEAjUzfkcffbSfyUPNknNU4lABZR0auz7ScWKnRzpeCLCslWL0G6GUdRi4g5BKmjNqTpmhs4dgxG6TnKP6RdpShkjDkFasE8MNBHMELlSUtt56a18GWCNFfiHYs8U/HT1U35LBLeyxTmTSpEn+GseMwhMm4D5hICyEA3tcCwIy5YyOPGEG1J4QNFmPRfxRoWVGgZF54h3ChRoWs3n5hWt9ULlShv04bYrlJOoHEFbind/scUUh1PFyU8dcMKpWqWo/TZ9cJmFiZ1BUmIGymh/MLlJWw2AAZm2hzITnmc0mjrR/DIKsi7tCiLJBgpYQ6wFelqFTkPxLRxbCovOg4oUqCbMLdDjpnGKS9e15KQforPJiRrUuGfwKHYDwsg7+B7jOwm7cwF0EAMBeMHR6UU8EVIqANQjcC4IiHX6OCQeCA9/fohMS9ztO/DrusOkBa7SYEQsbMpAGpAegIhWEOjofqfywrwtJ7gFJU5QpgvweCQaaNW/u19VMcfHr1q2bF24RUhByECSDANqgYUMbMXKk9brgAr89+J133eXzhjizJfrEHyfaJ59+4tUy+/bp62cQEcr2328/38lnndx3333n1f9IrwDCL/dIv/CR2vBNLNaQMHPEmjrW+bHOLj9CuUDlFOGQmSbynPyP+4WKJOEjHMy8IYQxc8s5s52UXcoTz5PvlDOEPoR0NuFA+CK+/fv394Im4eJjyKiv4v/6hnKT4dKtmhMAlq/8K3E1N30gVeWzrCHcGNR0y8124S48tWttastW/D17WNplgM1+qBeslaIdDuUew0YUDBowwPGvf/3L2y8ov+PXw3Fy2OPXEbA4ZzClMHXuQNytEL5k94UQpYsELSHWA6h2hR2n6PzSkQwzQ+xixYwFHUxUvxj9R9hC6IkLKMEEeLEz8k+nlQ46o/50PplJwm0EIAgfomUxNs8juNBhje9UBRyzsQCbczArxmYUqJWFlzWdaRZ3MwOHe6isEYYwQ4H/bPLAmgPcZraJDjaCJJ1p4oIbdK4JX5ihInxBcCJ8dOjYbZA06d69uxcm6HTjDrugsSYLwYQ4MOtDvNaVkK6kBkmC+Jq/iSwnkR7e4toaBz6SJk0bN8lbZ4fwQxzj+ZzujqtUqmwHH3SQn/na1wmyoVzw27hRY+vapatVr1HD0jLS/cyU3/jC5Q2zowgwqK5hmLkCwo8/rN1jZoi0DSqgQL4iMOMfz3EeD1MA/7nH2hD8CYaRfVRhgx3WnsTvU77i55Sb+DnrrhCscQcTVKkQBPm+F+FCkOcc/9c3IWW2ad3WRo0b7Y5y85iOMut3Qn5VVOjo026VC0hGZ1o3a2XT5sz0Zbk005a8O/744/2GPZQ31qCGNpF2j7WNtO+sLw2zq7RZPBcGofh2HOfYD88yY0+4eZY2GTjH8B7ALs8B7R3PU5Yo77jL/bAmLx6e4C7vGHYdDN/UE0KUDWmuMua+AYQQ+YJ63l577ZW3dioVL3HWuzDSz4go7nXu3NmrxLEmCfCLGYFQPVnDw85SvFyTwQ7u8XLmmBkJXqh0RhHOUHVB+GHtDy/kIPzQWWLXKhZso57H5hu4H+KHW8F/wsNOdmxAgR066BiEARZqB5ilYJdA/OAZdgMM23KzLfm3337rO/J0iv/973/7jsp//vMfL2Qxa4OQyNoy3MUN/OcDyXQgCDuzPKzHorMNzOjdcsstXhhFlYzZliBorWs+MWvzw5QJdsP1N+R1nJPxqVNsf4prD1eLtptqXwuDELnSkJKyD7iSW7IKpyjfghvFCVVRdouX6rkUx995C+bZQZ33s3GTf7IWjZvaprU2tTGjR/vON+U+lVBPaKfYACUOaxoZuEk1dOCZTW3Usqmtzly/24VHLhMWLF5gB+7e1Ub+OMY6brOTL6epKqv5QXozaMRMKmsb2cyC9ocZ15deesm3r+z2Rz4TDtou2njaWtp5ZqOYvWYgixlZBjnYhp2BJNRKyUfaQNSiaVPRZKA951MLtI8MeLHLJu0l92iXGZBgQIWdB2mjeY5BFmb/WffKLDHvA9rL8jAYIcTGggQtIYqgNAStoqBaBoN/+QlYgTAThp1gvzjPAR2mQFF2Q3ji4EdID+7hXjiHcD/+bNw+Bn/jz8ThPvGLhy3uZpxwXlQ8iguC1oyZM73gWFD4IK2YLSgdwsJJpI//v3Byo+rSwZ/lj0td93/hdjzOQohCoXadpeQ0/wfOgaL8SwQ9/Fc4RfkHheTN3xTDHaykKFzhLjOeaTmRff/TOOvYbgcbNfp73yEurDytDeRLWQpa+Mc3nTp33tMyKq3fTntO5Nocl+Ck6fQ5M/0A0hb1GqY8jfOD9o4ZKDZgQZBBvXfbbbfNm/GNh4E1kNhD0A4bBdFW8Yt9fhlwYkYfdW3uIWiRzmwTj0CFZgACHRoO2A9tP7u0MjCF/8HNeNvOObNi9erV82GSoCVE2ZGaHokQ6wFeHhhGC5nRYa3O5MmT/WwOannskMYIYjgOMz4VBV6IvDSL6jCEF2fcfnGeg2CvOHYh2C3ombh7yfeTr3GM/aIozM04Rd0vCXnlxP2iqoerBRnfinLAbyEm+bl/mty//O4km9y4ckgPM3/zt50izJqHBYOFdPdfYQYPg8nvvjOEy+VocvLkb7BbiPFxzO+5fxhnvwhT0nB5+0UYVyt9+aV+rsrK9M+UFMoineai2q54xxqwH0xBFNft/GjdurXNmzfXxTC3aKwvk57mci3RRrRq2tImTvt5reKzNuAnGgOo0yLU8pHt0BYnww6ubCyDIBjKhC9DsTaQe0HNMMQBOxgEKfzBvwBuYBDemekK/vIb7mGYWeN+aEuFEGWHZrREhYXRPNbvoLaBPvxhhx3mR/bYlQ0VNTYRwA4bAfCCYqcoPoIbf7EVh/UxoyXWLzSLrElDDZM1GMpzsS5kZmXZ16O/tZppVX1bVJLyRFlEGEIljHWOBcFMSPJ91tmFtXEFwSYkqCWvTZjYBbQ0ZujWFsL1y+KF9tfKP23LZq0SVysmzJAhmKH6x0wlJqgiCiEqDiXrcQpRjkAVg628EaDYlAGdddYZsRU4L6OwrTkjeuGYxehswMCsFx2F5FFgIYRINRlp6X6N1tJlS500kLhYAmjPEKIY9CnI5CeE0UbmZzdusLM2nfdyOTvi0rbhZvVt8e+/W2ZONpJX4kbFA+0MdtHkMw+sSZ0/f37ijhCiIiFBS1RY2H6aHZRY8BuHbwGx2Di/yVoELRYZswlFgJFDNlkoyLCDH+TnnhBCFImTR7Zvs7X9tvzvLe4rOuWyPXTpjPBXpVIlv1FERR5GY2MLtDT4RhwmbJQkhKhYSNASFRYWBjMjFddZZ5S1IPUKOga33nqr3+2J7aKDCiFqgcyGFWQQ5HhpCyHE2jJz3hyrVrnq2kxoiWKT5t8Jq7MyXVpX9mu4Kiq8n8I7ivcZmhnlbgZRCFEkErREhYXdl4DvNSFEYXjJhuPwUgrHqGKwPS5b8savs6sT668KMmydGz4aXB6JxzkYrsWvCyHWH9RABK3N69V3bU7utZLCoE+rVq3yNXxigW+kxes6x8zscy+/Z4IpaPa/IhJFObb8rxVWc5PcDSdSKWmFtjQYIYQoDtoMQ1RY2Fb3zDPP9DsO8tFatsTlo4x8j+nKK6/0KoR8VJPvVfENE75Vsueee/oP6yJc7b777l7QKmqUkHUM5XkzDNIhxIPqHH4RtOhscB5GRkXxIP20GYZIFT9Pn2L16ta16ZOnlXjziFCXoaB6jJ1p06b578jFYSc81q8W5B/PAfdLGiZ2c0WtGu2A8lI/CNcX3w6xrrvtk/IwhbQKn5tQmyqEKA4StESFhaLLS69///5+9ys+jFu1alW/ixajtHyMl524LrjgAi988RX9nj172u23324tWrTwuxOGr+YXRnkVtOh8sebsiSeesIEDB/odxuj0kAZ8L4W1Z+xUtdlmm5VJp4D8QNAlTGxRXJEhLghak6ZNsfvuvZdMT9z5J5SHdLYuL2L4PD0d1Z/ESQG47q6lJbZALwy/nXXukf8/P3ADU9QXc3CLrciLwtsr8mNg4XXi7BVhtTgvHu9EIa8o7hQd8gTFiGOxHSRMhbgX8efspKW5ehfl2MiJP1iHdjvY96O/97sOlqQ+FucVjR3aKep7KDtcK8l3tIoqc3Fw+7vvvvPbmYeNhtYXXgR1SUSKLvxtof227A9r17Jo4Y84MED38MMPe7U8tl+nzQTeC6ig810r2tP77rvPRo8ebZdffrmdd955fkdbnikrCCsDatp1UIiKhwQtUaGh+CJw8PLBhOLMbziPX4/bC/eK6vSUV0Fr9uzZfpE03wp79tln7dRTT/XXCR+zfHQGJk2alPeRytKG9Lz44ovtuOOOs65duyauVkyIC4LWT1Mn2T333OPSL3EjH3JyKEtFL7vPzsZO4c1tKJeYwiiOnWwXrhznH6YwCD8ffS0UnHD+5fCNrsJwt3OTqmB7BJu7xSqRiYQvMP0T3iD/Feaet1ZEeq1JsUJXCJHfSOegvbralJnTbNPam9rmdRvYqO9H+U0OUt1JpywEQStOaX2wmDb3yy+/tM1bNrFVmZmJq+uHdBf3hb8ttgN229cJtGOsw7Y7JAY1Cs9D0uyDDz6wBx54wA/W0U6GDwEzCEe9R/PhtNNO823//fff7z8jwjmz3GUpaDGgiJBHWMvL+0cIUTwkaAlRBOVN0KLK8uJFDZIPMZ944on++2DxFz8dITb+6NWrl+9AhGpO2DnmFwEzuBUXNrkWzoMQC+FZCL/Y4zr2EPYY7f30009t3333XcMudoI7PIOfEK5hJ+5mPDzrA8Ii1UGx1riiPHbSONu+TXv7YtTXtn+HvVzBTvMb+DBrwsd+UwnltawFrS+++MK7v77rRo6L+9djv7PtWrW1hUt+ta1bbpW4UzjEAUFrq6228poAENpQ1MuZxSJdSVM+GUKb9eabb1qXLl2sfv36ee0Vv/E04DjcC8f80qZxHO5BaF/xl+NwP+4ePPXUU17Qmzhx4j/uh/NgcAfCMfeLak/jdjhO9mN9t8dCVGRUe4SogHz00Uc2YsQIf9y9e/d8X4R8yBl1GJg6daqdfvrpfsbplFNOsZdeeinvhcp3Wo4//nhvli5daq+++qqflcIsWLDAm0suucSf33vvvXbbbbfZDjvs4NfAha3vn3vuOe82L+fevXt74Q8QTtlO/5ZbbrFjjjnGq9/g57hx43x48JORce7jJlv2x1/wQlREXM3yvz9On2y7tN3Oz7gBarx8kiLUvYoKKtmo1JUbXFpOnjXN2jQvmQDLgBCCVmFtzrXXXuvbwMcee8xrCKAyCexee+edd/qZr59++sm3fwi1DH4hUF933XW+jXv//fe9/ZDns2bN8u0d7eTzzz/v/eY6HyZGwPvPf/5jjzzyiHcTQQmBj9ms3377ze644w7fRsLnn3/u3aGdZ1AIAR53yBs+bo2KPG059lCZx23aa9TsL7zwQt8u0w7zDNdwm2e++uorL1wS9jfeeMP7JYRYB1wlE0IUwrRp06LGjRtH7qXnzfqGMFx55ZX00rxxL+4oOzs7cXdNuJ6ZmRntuOOOPg7uJRy5l3BUqVKlqH///v6+60TkucXxX3/9lXc+efJkb+eqq66KXIcgch3FyAlG0UEHHRQ54S666667oqysLG+aNWvmr33yySfeT0yHDh2iQw45xLtxwQUXRK1atYpWr17tzzt37uzd5H6XLl38sw8//HC5SWPXEYpcJ6ZchEdULCgyo3/8Ifrmh5FRdma2PwfK/fDhw319SWW5wq2pU6dGp5xyyhrmqaeeSthILSNGjIhWrlxZLupGVlZ29NmIIdH3E8f69F1beDa0e04oyYsbv9y77bbbfHt19tln+2vDhg3z55UrV/ZtW58+fXwbVq9ePW/n/vvvjzIyMqJNN900WrFihXdjxowZ0eabb+7bTdrZLbbYwrfDlIeOHTtGV1xxhU/XE044Ifrggw/8cy+//LJ3t3nz5tGnn34aTZw4MXriiSeiBg0aeDecMOTDceCBB+a1xbSjxAP3acecoOXt7L777pETCKPLLrvMu7nnnnv6cAX/ubbzzjtH7733XtS+fXsf/rffftungxBi7dCMlhAVEEY3A/HviOXHoEGD/Mglm4WgosKWzu7l6heBQ/x59zLOdyv7MHp9wAEHeDXKbbbZxo+Ezp071z+D4RzDgm33wvYjo8xg7brrrv466lIzZ87Mm4kLajp8iBN1Q+y6Doq/JkTFho1hsqxF42YJvRH6vblQl1xnOnFWsQh1nPajqHanLFm46Ffbrk07GrDEldRC+1anTp3EWS5BW4C2rm/fvn7WCXt8DP/888/3s0acoyXAjpCkG7NfzCrRhtLOorLIZkZO0PHtH5oBzIDhHpuMsCnHHnvs4Z/lnLWvW2+9tVdhZGb0m2++8Rs74c/XX3/tw8Nx9erV/TFtPjtRMuuFG05A9CqIrDMDVBGBOBAf7rOT7yGHHOJ37uUZZt74xQghSo4ELSEqGLzwEE4CqKIUBC/doUOH+hcouy7yQg0LvseOHZtnJ8Bx/BzCOc9wjBvhnA5Xfs9g54cffvB28J9vly1fvtwvJqfDELffqVMnL3ShOlicXSCFqAjs0n5Ha7hZA18XQpnmmO//DRs2zNeNigiCBHW4vISfpD3+4KOscqUqxdo9s6TE27d4nLnGOb+kB20Yx7S1CC2ck9/YQZ2Pe2yuAewSe/fdd/tvozVs2NALrQcddJDfMv+EE07w9/j8CAR/APcwAwYM8CqEbLiCmiH3+ah+KGsYIBwcM/gFCPmc4194Jm4fENI4R0jDzpgxY/xnUoQQa4cELSEqGLwEeSmHF3t4ecdhhJQXPi/K8OLkJRzuQXJnCTucx68F8ruWTHgWg99hxJuR4KuvvtpuuOEGv6YhfGgasItwJcSGhK9vzhTU7Wewg853qKPrCm7wHUHWTYb1lRzvtNNOKXE/DjPS2223XV57sr4hHBkurcszIQ9oeznef//97ZprrvFrZVlHRTlgQ6MDDzzQH7PGijVTgeS2GcGJtVtoAlx00UX+WknzOe5efpSnGUshKjIStISogKBOgvoHL2BGNBkJTYZvh0G3bt28vbBYGlUWQH0FwignMEO1cOFCf1xSwqgpfjACikCFu+zsxRb0HLM5Bou+hdjQobyHehWHa+wYykxBKuHbdQhXccNW8qkEtbfNN9/cHxcUv/VBeQlHUTBLBKj+AeGmbQTUAN977z0/+891NAEAQTJZIOrRo4dvV/lGZFEC09rCBiCAyjffpRRCrB0StISoYPASRqh5+umn7ayzzvLrntjRj52jUOtBVx/1k2bNmvmXNELZySef7NcAcJ8RaWa5brrpJu8Wgla7du38Mfr8rC0I/iDAMcLKc7jFbzgHhDaEM67x8VLssM6AdQCszdpnn328egozcOxyxW5WrEvAPm5jHzfCSK8QGzqh/jIjzaxWKqAeBYP7mPh5KqCeM0iCim+q3Cwv0B7xofUQL46JL+0ShmM+Xkx6co591tlhn3t8qB3DdSBfw4wlz4Q1ebTXPIPqH2u62LadXQGxw26uqAKyOyDqhOFbhAjQfIyeNVnDhw/3QlrY+ZDdYNlxkLIErO8K4QH8JQxBrTCEkbiEsMftA7vQEnbW9vIM2gjYDWkjhCgZGa6zdVPiWAiRDwgEfCPqiiuu8Ofl5YVDOI444gg7+uijvZoHHynm2za8NFnI3LFjR/+ihEMPPdSv62IUFJVBNsJgQ4twn2/DIHA1bdrUbxm85ZZbere5z9ouZqgOO+ww23bbbb2QxnXut2zZ0q8zoCPARhn4wXbJfE+LMBE2RsC32GILL8yxVTKqghMmTLDGjRt7N3gWd8rb+qzBgwf7vCcO6mSIVENnmjobvuFUXstYGABhLShtAarAhHVDqhPM4r/++uu+LevQoUPeOlLaMmC7dtbVsREFW/TTPjKwRduGeiZqm6xJJX1od2n7GIzCHWYVaZNxlxkt2kEEOb7RRxng48gISvPnz/dC1yeffOLdYHt43OEewi3PICCx7TqDWghMtOsIaLjPphioJPKNL94DzEQRH9pWBt+4T/uOYX0u99A6QJDDDlvNM2iHBgQqjeQ3YaMtD+8JIUTJ0QeLhSiC8vbBYlH60Czqg8WiNKGjjCA/ZcoU3wkPsxLlDWY8mOFAsGB2vLyGU6wbDLYxuMQsW2l85FqIjRUNUwghhBBlDLMEzIQwQ8yMCoJXeRr3jIeHD6QjZGlmY8ODPMaQ3/FzIURqUKsphBBCrAeYHUIdd9KkSV41LHR2ywuEB7UzVNIIq2Z2NzzIY9btIly1b9/ef3MRNUYhRGqQoCWEEEKsJxBe9t57b79VN5sXoKq3PmcUwowGhk9HsKZIu85tuDBLybcMyWuErAceeMCv3xJCpAYJWkIIIcR6AkELw8Yw7CbHZxjWJ4QFIYvNHxCyGjRooJmsDZhQ/pKNECI1SNASQggh1iN0bNlhjg0J+L4WO74xs1XW4CfblzO7xm56zGyo0y2EEGuPBC0hhBCiHMBMEt+eY70WalxxNT5Mqkl2f+7cuf5DuZ07d7YaNWokbAkhhFhbJGgJIYQQ5QDWy/AxY1T2+OA4Qs/kyZNLdd0W7vLNJ9bosEZs33339d+20w6DQgix7qglFUIIIcoRqOvxYVw2yeBD4nzEdt68eX6HOMy6CF1h9ioY1mLxLS/8Ch/oFUIIkRokaAkhhBDliLAhAaZ58+Z20EEH2Z9//mnffvutjRo1yh+vLQhqP//8s3cLs+OOO/pd55jBCkYIIURqSIsY0hJCFMj06dNtr732sjlz5vhzLQ7f8KFZvPnmm23GjBnWr18/5blYbyS/otmsgt0JV61a5c9bt27t1QwLKqM8v3z5cr/mi2c433777f1uggGVbyGEKB0kaAlRBBK0Nj5oFiVoifIIZZNZqVAmZ8+ebQsXLiy0jFarVs2rBVapUiVxJXc9mBBCiNJFgpYQRcD6hY4dO9oVV1yRuCI2dGgWBw8e7NW2nnnmGcvIyEjcEUIIIYQoHhK0hCiCv/76yy6//PJ1WhchKiYnnHCCHX744Rr9F0IIIUSJkaAlhBBCCCGEEClGw7RCCCGEEEIIkWIkaAkhhBBCCCFEipGgJYQQQgghhBApRoKWEEIIIYQQQqQYCVpCCCGEEEIIkWIkaAkhhBBCCCFEipGgJYQQQgghhBApRoKWEEIIIYQQQqQYCVpCCCGEEEIIkWIkaAkhhBBCCCFEipGgJYQQQgghhBApRoKWEEIIIYQQQqQYCVpCCCGEEEIIkWIkaAkhhBBCCCFEipGgJYQQQgghhBApRoKWEEIIIYQQQqQYCVpCCCGEEEIIkWIkaAkhhBBCCCFEipGgJYQQQgghhBApRoKWEKJCEi2fZaO++M6mr4wSV8Tas8oWT/rJZi/PTpwXg2i5zR411L6ZviJxQaScrMU26av37a1RC22jKeXluVxtjPkhhFgnJGgJUSTZ9vuol+y2y7rZVmlplpavOd9en59lljnV3v3X0da264324eyViecrEjm2cv54+3ri4nXvSGSOt8cPOthu++b3xIUUkTPVXr/ydDuyy+7Wcb9nbfSSwoSDLFs05HY7qPMVNmjan4lrYg0yp9igCw6wVltvY10fH+NSrChW2fTXb7DTj+xi23bsaY+N/i1xXaSOHFv6zSN21qkn2GF7H25XfjHbtUL5sHysvdL3Jju/a/PcdmirrnbiGWfYGWecZkd0bJx77ei+9srL99kNZ+xptTiv1dGOOB07p9uJXdu6813t5NvesklJQna0fKZ98/pDdt0Z+1nbjkfY6c7d04/o6NxobB27XWS9H//EphU0yLFWdZ9y9R87cb9drHm5K1fFy49o+gA7Ou+dUIg5+jkbO+Y163vtidaW80S+5aZvwo7Lp26X9bWBQ6fZ8vySOVpq07/ob7ddcox13Cw3T3Ofb2tdT76k8PwRQpQdkRCieKwcHt3aEvmjS9Rn5LLExSjK+WtK9MpFd0dDludE0W+fRte0qens7BFd89mChI3yTnb016Kfo+HvPBPdet5BUWtrFB30zI/u6rqQE60Yfnu0nWti6p7/TrTAJU1qWRaN7NPFpfN50aB5mYlr+bEymjnooqhNzaOjB8b8kbiWE2UuHB0N6nN1dNvnKcyjzAXRmEF9ol63fRH9lrhU7smcHX164zlR7yGLo5xlU6IvR87JJ99XRgvHvBH16dUn+vy3rMQ19+jIPq6stI56DJqVuCJSzrxBUQ9Xh1r3GRkVXMoznbXzXF34Z15k//xM1O3W4S4HHQm3rMegaJ6/68j5PRr3ePeortWNOt06zNUqcPk94pno/E57RD36vB2NWeif/pucP6JpH94eHd6yd26b9w/Wre6X63JVVH5w/6SB0awQ53zSPGfWwOikcJ45MurT2t1veVs0fGXioZxl0ayxw6PPBj0aXXN4O5ev7aKjbvs0mpcZHHXt17yh0YM9OkRtTro9GjRmwZphoR0a+K+oa5s+0cjCmkYhRJmgGS0hiktGZauakTiOkVatiXXqtrs1rZZmVncf+9e7H9qHQ56zf+3TIGGjPPOnTXz2dNvhsLvsq1XVrcqcH22qVbct6tRYt+nuaIENfeUTq9qhmS154RX7aPqqxI2ypqo1P/Yhm7TsDbtkx9qJa9m2aOjjdtzVI6xK7eqJaylg0Vd273FX28dValmtxKXyTY4tHf6MXXRLhu2w1aaWVrO17duhST75vtCG3nuVXf2xWe1a+VQAUW5Jb9zRenZubJUT5/8gbVPb7pSedm6jJTai39f2c1a2LR8/wC4+6E5bcvZj9siVR9qODaomLCdIq22t9j/IujTfzGrT5iVTbur+eqBaQ9vt2J2tcT7JEkhr2No6ujStlDj3ZFSxyhmJh9JqWrMddrf9ju1ld735vg06v4a9/Z9eduXLky3T3Y6Wfmf3n3Gq/Xt+d3vpyWvs2B0brulWpYa243HH2WH7bWmN17ghhFgfSNASYp2pZq0O2Nta+T5oZavTdk87eO+2VqdSIW/bcsMmtuVR99l3w562q47b01rXq5K4vm7kTP/Enpxxmj15z/m23fL37LHXf3AinShf/GXTR39jPyXOxIbGKlu8uL7t36V54S/66ptaA8YbWm9mtbJ/tlevv81eadLTLjt9B6tZUBOWsbWd/Pxp1j4fuXujrvt197ILTmxrhQ5HVO1oV/U93Io1DFeppR15+QXWreZke/nuQTbqzxU2+bUH7eZP6ts5V55sHWoX4BP5c92+xfNDCFGqSNASYp3ItuWzp9t8dOGzp9tH9/e1vn1vtWvP6GkPjlqesOPI+tUmvHO/XXbyiXbyiftZx65n2HUPDbIhI0fZqFE/uecX26gB97tn77QbLznNLntztnvo13yusV7sZXetr/W58SLrdtmbNmv+YHuw597W8cGx7m6OrZz9lT17w6nWsRZrKS6zvq+PsUVZLnz5kmbV6jdMsVD4h41+/R3b9PQDbefOR9mFB1az4c+8bd/8lryqYYVN/7y/PXDj/9l+W+1nfYeMsEGXH2S10rax89+dl2sla6GNfb2v9dw1sd6k1q52Yt8htjgvOjm2eu4X1vfknRL397SeD31ti/z9JPd9fkSWtegH+3zoj+54tn054AGXjlfYVa9PtZyEX2d1O8ZOP7GrbbXVcdb7zZ+S1kesskVj37S+PRPrXVivcuJ9NnT+XBv7+deGq799OcDu7XOjXXbVs/bhJ8n+uxAsHm3/e/wOu+bEXa3WGa/bfBemldO/sGcfuNHO36+tbdX3c5s46FrrWivNap3/rsu74oQrGRfOUS/ZjSd3s26nsxZnG9tqv4vsoSFz/16DFf1pv8771R3MtzGfvmWvv/6xjV2cvEKL+A61oT/+RsRswL2uLF52k70en6VYPdOG9O2eu9bEpceuPR+14Yti7pQg/Gumzf9s0sRX7PK89UcHW6+HBtt8X5aLKjuFx7/4/iTIWmCjXuxtJx/h4nDG8dZ1q21sv16P2pD5IR1cuaIennWM8y93rcxmrDMatST3drHSgLI5xl7ve7bt6vI+La2t7Xfp0zYucbfERLPtg3+/aj8XtoTR+Zk5aaR9PLWNnXpWF2s1dYj1e2uGNTpsN9u2emHTMjWtact6a86keIpb94tBtMQmvHiVy99aLi1qWduT74+lt2t3J71nfXsdnFg3W8u26na3fZ5335E114Y82Mu6dTvNzjj9COu42a528mMjLa9VLjJPUpwfa0WaVW69qx2yU12z8d/amCnj7fN+H9jyuvvZIZ0auLsFUGD+CCHKGglaQqwTy238y+/YFPoRGa3s4EuPt2Yjn7G7+8+w1bkWHEtt7KPn2O6njrAdbnnOBr4yyJ44/He765Lj7fCrH7VXBrxnPy6vax1O72l7rXrP/vvQt7Ykh+fq5XMtw+p0ONku3mu1PfrfR+zt0a9a78sftO8W0cH4y+Z9drsdttsTlnnSYzZiyRi7b9cf7erjTrTLBk13IknZEP32jb3wUnvreUBTS6u8tR11/tFW96fX7IUv57quS5xKVqtpe2tX+1f7Yup0e+fux+yr+nva2Ye3tmb1a1i0/Ad79txzrV/WkfbQt/MsyvnDpg08zP5wnfgqeT2MofbC/2ZbhzuG2OpFY+2VC6rYc5dcZw99hQARdz/4/KfN/mmWrapSzR1vYvWatrLWO3W1btv9ae9dfbL1+m47u23Q6zbg1U9s2CNt7NVjzrZbv0jsMBb9YROevdSO7pdlxzw0xJZFWbZs2lN22B+/2u+/TLXpqypZDWetWr2mtmXrnaxLtz2sfYtk/x3V6tvWOze11d+MyOv0VarV1HZsV9vmfDHZfnvnQbvvq+p2wNlHWZsGi+zzosL1D9gA5B476cgh1v7uV+ytAQPs1c+/sTdP+sN679vNLn59urPxm33z0A1276dznP1FNnPyVJs2bZb9+ldSh3jlPPtp+gqrUsOlV7V61nTLtrZTlwNs50Zh5nOBff3Cuzalw832/eqFNv6VHmbPXWtnPTTMlXpH1gx7pyThJ22239yWfuXSZtzTdlv/ZXbIHa/byOEf28s969tnl5xup939tS2JCis7VYuOf7H9cWGKfrEht/a0Iz9tb3e/6eLw/Gv2+ZiBdtKS+23ffa+112etdMLmOHv6zBttXvcn7c0Bz9uAd7+yMVdvaiNmuhwuVhqssvmf3WaHnfamVTn2Pvt2WWQ5yz6w6/fa4m/BoEhcXjx0uZ3hN8Nw5qRz7ebv8tvaJNuW/bLQCRSrbPHEj+yxu/pb1o2PWN/jmtvv0ybaGGejeoNNbW2Uaotf94viNxv3yD02YOX+dvsrH9unz19oTd+73A4/40kb+6dzKWuMPd7tHWv2r7dsCvVwSj87YtJ/rfv9X+eWOyeIT3j6Ujtj3gnW/80X7fkB79g3Y66yTUbMsmXcLjJPUpEfKSJjU2u45Wbu4A9bPmWCDf/KCe+bbWH1C5rNEkKULxJrtYQQRREWLlujqMPhp0Y9evSIenQ/POqwxqLjWdGgHq2dndiGGcuHRDc0c8+1/tte7oJvdy2+MD1vg4f4QvD8rsWe73pfNHJZll8APW38u9EN7WpG1q1/NC2xbjp/fwoihH1dFqKvimYOPDfa64HR7iiXnF8/ja4lXAc+Hk1YnbwyPizkbxf1HDQzyvELvX+MJiz6Pfr5mVOjmp0fjMasij2zbGz05uczo+y8dOkZDZy1OnHT+TWtf9TNakY7PzAmyt22Ibgf38Ak+VpmtOCdS6O6dkj0wJjluVbgj8+iaxpZVPfSD6NfXbhWs7FAzcOdnb83QomiJdGYN4dEs9hBIt+F8vn57whlKZ4viefr9hwUzSXKmbOiD67t6p4tLFz5sGp09EDnulGjaz6LwvYfnhXfRX32qBtZu5uiIX8Q4OJuKJIoF7HyC7llq2V00sDpLnUS5EyO+ndrFtnOD0RjsoqTrvkQ0uaoZ6Kf8zYAcOTMjAb1bBdZzfMT4S2g7Mz5rnjxL5Y/q6NVYx6MOluH6JrPFiUsQE60YmTfaA9X1trdMDj6w+ddu6jHM+OiZQmnchaNj76Z9nux0iBn4QfRZW12jM5/Z87faQn5lqlkQjrE661LiwWfRjce2PfvPMvbmOF/0c9jnosuO/Os6NIb7o/6fz4lEebgjkUtwwYaJaKkdT9/cstVs+ioZ36MxXl5NOGxY13Y9ohuGOJSLOePaPqEOdFfibuRS8UhN+yRKHec55bZuj2ej36ifYSchdHYb6a7Z4pRLtcpP2LkpXkB7W8og0l1a01Cu+zaumEv5boX3zxDCFGu0YyWECVmazv55ifs+eeft+cHvGgP98y0xUsLUY1Z9actZRg0e7VlZtOPCdS07do2sk0TZ2tFs+bWuGaGXwDdPG22ffGT82j8s3btmbmj2j17v2rpXU6w8zo0sk0Sj5Qqf461Vx/4xP76uI+dmxhZP/Pyx+xbVnF/MtDeGPVHrr1/sIVt22IzS3N/lRq1s203m29fvfKFLd+qiTX8e/rKJdkO1q1rfM1JFascU3tMq1bDpedyW7o6y/VGistKm/3TWFtiU+2N287/e0bgwnvts2U1rX7VSi5Uq2z6Vx/aW8ubWtOGzIYF6tiO3fa2ZilsSTfbtoU1JEqV6lqD+sSisHD9k5wZ39t7w5b8c1aiemvb7YB2Zj99Y6On/5W4uK5kWNXKGX+HI62q1di0irkMsKyoOOlaCHXqWK24SmtaI+t08B5my2fYnIUxFbGkstNuxbiSxb9Qf5bajFFDbZjVsgabxvM9zaq329UOaLbcfnp3jE1vsLudenld63/29lYrne21L7Pb355p1WpmFSMNcmzZuCH2yuS61rrRpoWnSbFxadFwBzvg6NZW6x8OplutHc+w+/o9Y/ffcqmd3rV1Yi1WJWvYelvb2R3NGDLRZv5jCtzVgUGXWEevRodpbJ1vCzNIjhLV/eU29sEjEu4Ec6j1zbNTxWVLjZjqWw1r22kPa20LbeaiFS56ta1F8ywb++5z1vfGG+zG2x60Qd8vTJQ77DeyvU493jbvf4a1q1XHtup6ql12+zs2u1p152ZR5TLdlqY8P9aBVQts2tgFZp13tnY7bmMddq7pMmiMTZwZrwNCiPKKBC0h1olatlOv82zP2oVUpbrb2gEnd3Avx0/szS/nWFbWQhv+4Sc2tc1pds0J26+Vik5+pG9Sw+r5o8Pt2mecEOgEwQHvfmeTvnjVHr9kDycSlDbZ9ts3b9tLuz1uH7/zYq4g6s1r9vnnT9spNb+0e57/yhYWRwKKVtnyRcvMfvndlpWVzqPtamfd9fTf4R7wro1ctswm3bW/1XVx+2s5Ske/2e/L8lPHKk0KC9c/if5abovc7+qlf7qucZwqVr02O8jVs7q1y3L1RsnCXySNdrbtWhU8bJCy+Ht/qiTyfZUt/fNvZWBP1epWGw3K5nWtdkZjO/ieD23akFft0RsPsc0XvG/Xn3247XVuPxvzFwW4sDSIbNWfy21Zfn6sEw1s7wuOtrYl0DDLaLOHnbqHy5Vhn9lXU5K3sKhqrY570Id7ZJ8u7vwou+qs3Sx3L8+S1v3K1uSQW23kyJF/m7FP2vm7FDXstJ3t0a6eRYu+tJuPOsbum7uznX/zf+2W/1xlp3dplrADTmg8+DYbMW2oDXz0Kjti8/n27vVn2xF7XW79J4V4FZQn+1mNUsmPtSGyP8cPttfH1rduZ+9v21bfyvY9c193/VN7+rXRtrT4o0lCiPWEBC0h1ol0q1ZnM6tZ2GYSac3s8Lufsxd61bHxL1xvZ190r33b6FIbOfhe6962ZsJSnD+dfLEid01VtNwWzy1oFmhN0uo1sa0buYOpQ+2LsUtKMKNTFH/a7KEv2+MvfrPmBgHJRLPsk6dH23En7WabJSVHWrO97NTu2xV/u+eMJrbdgVsX0OFLNVWsQbMtraaNsi9GLygg3TaxVtvtbI1shL391TS/zfK6EC1dbHOLjFZxwvVPMlptZwe6cjD7szE2ZXX8qRW2eM4Sq9ltP9utaWp2lyyctQt/gUQLbeyX4+3A64633QsZ2Fjn+K/hT41Evv9kn42eFVt36XB5OOe3ltbtqA7W9Pev7NH//WLN9z7Bet38oA38YrRNeOxYWz5kii2v2byINMiwzbbc1naycfbGp+NjnefIMpcssvmJszKh+s52xq0XW6flL9lVN75k45M+YlwgJa77Va1+252sQ4cOf5sdmhW8y6HLu0kjhtuCbkfZfm3SbfI7j9rNX+xkxxy2beKZbMtcFR8AWWRDH33H5jXfy07q1dvuH/i5/TjhcTtw+QT7YfrKIspl+ckP1qkO6POEjTvqX3bbqds48bSm7XD6dXZb15o2/D//ttvemlTEpjhCiPWNBC0hSh330r/7Ejv/u9q2y47b2/Zb1Tf7baJ98eIT9sSLH9mo+X8mXvbVrc0ue7hO3Xz7+M7/2h39X7TH//Ufe+j7xM5lRVF7V+tx40nuVfy23dzrP/b4R2Ns+vxZNmnUR/by5zNcV6QIIjor2Mq2VZnZf3dAFn1utx12qvXqfr7d9dnCxMVkIvvz+9ftga862j7b5zMqnbaFdT76UGtU7O2e61nnsy+3Mxu9bZeef7e9O21pbniyFtnE72esY+cizSpVqeLSaYlNnbnAlkyfYEvan2z/6rrC+l13kz30+dRc96OlNv2LF+3Zob84v9OtdufudteZde2tS6+y/747OREGNhT4wabTIa1UxTZxcvOfU2fbgiXT7Nux8y2LTlvj5tbSxtqrr35gExb/acunf2YPXXe7veNX5RdGFWt2UM8iwpUPrhycdWsPqzvsIbuj3w+JcEaWNWuwDfxsV3vgtuOsTeVCBgb+QYZV2aSyi9gsm7lgkU3/dnzhAnceaxn+wIQv7INRC3J3ScxaYCOfvM2eqnal3X/WjoXPApc0/oX6Q76fZreeVN+G3XSP9Rv/RyLMK23WJ2/aZ91usttO3Noqr1xoIz8YY3NDukSrbOlvf1mni0+x0884r8g0yGh7sF1+/tY2/t477PZXR9uiLHZ7/J/dekt/m+YdLCsqWYOuV9hzA6+2Hd+73I4+7b/26tiFuWkTiP6yPxavSJxAqus+/GmzxiTqlWuPlk8YZA8N2d3eeuw0a1s5x7JWI/L+ZMOHT7Ply6fa54/1tn8/P8E/mctKWzTySxs9d2XiPMf+WvqHLe90vB23a5Miy2X6+s4PwjJ0gPU+rbv1+esce+vxM6x94ptlaXX3tGte7Ge3HfWL3X1MNzv5uifs3a9+tsWJshctn2WjPupvt15wj33x63R794KOVmu/PjZ8STGFZiFEakms1RJCFEhWtGTki9Gtlx6Vu7GE1YxaH35xdOt9H0bTEuusPVnTog/vvTo6oU1NZ6dZ1OW8W6P+Ixe7G8uin1++NOpU0/ep/mFqHvR4ND5s+JA5Jxr84GXRUR1aRx1O6B29MmF2NMJvWFAzanPC1dG9H06KFruw/Pe8rpHr00dWs2t03n8fjT6cllgWnrk4Gv/Ow9G15x4VdajJph3nRNc++GY0ZmEhS9sJ9319oruv75EXxpqdekTX331fbvhXT45e67VP1Obw26LP5v298cTfLInGvHxT1KNTIxeezlGP6x+PPpsV98/dH3hvdH2PzokwOzs3DIzGLPvVXe8bXXPCjs7PRlGnHv+K7n74s9yNJTxZ0bKf3436nJl4jnB16B71+XhI9MHDN0XndWnmru0YnXBN32jgmCW5jyQWn9fscl7034dfiQa9GNwnP26KHv6MjTRYF/9ldPtR7dx1l65nPheNX5YVZc4bFj1z/Sku3YJfJ0XXPPhe9HNYTO/IWfZj9E6fs/7Oy5qdopP6fBbNYzOFnPnRkNuPyy0jbc6Nnhn/e+5C+szZ0We3Ja7jbqeLo/5jPoruZhF8mxOia/oMjAYPHhj1ueaEqI2/T9o/lUhDNngoOlz/IOf3aMIr/44Ob103at3luKhH95Oik3rdG73zcyJM2TOjzwpKw3+QGS0c0ic6qjXleufozGe+jcZ/+mSiDOaWyz4Dx7hSDomF+75cPunjUOLwhw0CWraOWueVx17Ro5+FTRuAMlVI2Skq/lAsf3LJWTYueuXabi4P20RdTugedT/h1KhXn3fz4pAz773osg6NXNwOj7r36B6dcPix0fkPfplbLoqZhznLxkYvXHZIopy48nrZwGjCz6/GynO8biRYNiYa2Kd3Ih8T9vr8z9WtuEXS6v6kNuP+QvIbXN2bNjQa+MA10QkuXpaId4/uR0Vdup4SXXrjw9ELH46NFmb+tpZ1PzkigZxo5fC7o0PPvSw6r2sbHyeeOfOBkJa5xOtv68P/Fb0wcnI0jHay7uHRpXe7+C+dGX1w2V5RzZodosO794h6nHBUdNT5j0SD54WwFZ0na5UfeRQjzXN+iYb1Pc3XeR/PNYyLV9derl59t0a84+QsmxENf61vdH5Ip2BaHxSdd+vz0efT/ohysqdHg87aOarZ9e5o2G+FtBdCiFIjjf9c5RRClBbRUpv28Uv2yuJd7Mxuu1ijmpXctZW2ZMoQe+zy8+w/7x1sg+Y9bMc2Kst1M0KUU7JGWd92He3qPQfZvOePNbRhS4Wy8kcIIcRGi1QHhShVMm3+ezfZIef+Ynsd3SlXyIK0ala3TWc7uEtLs2ZbWAN9E0UIIYQQYoNCgpYQpUqmLZkzzSZnJW/t7ogW2ZTvf7FO5x1sO9coyZoZIcT/bxSMglEwCkbBKBjcgIEBAPOpfshSy05SAAAAAElFTkSuQmCC;" parent="1" vertex="1">
                    <mxGeometry x="-272" y="690" width="858" height="622" as="geometry"/>
                </mxCell>
                <mxCell id="57" value="Text" style="text;html=1;align=center;verticalAlign=middle;resizable=0;points=[];autosize=1;strokeColor=none;fillColor=none;" vertex="1" parent="1">
                    <mxGeometry x="1135" y="455" width="50" height="30" as="geometry"/>
                </mxCell>
                <mxCell id="61" style="edgeStyle=none;html=1;entryX=0;entryY=0.5;entryDx=0;entryDy=0;strokeColor=#000000;" edge="1" parent="1" source="58" target="60">
                    <mxGeometry relative="1" as="geometry"/>
                </mxCell>
                <mxCell id="58" value="" style="triangle;whiteSpace=wrap;html=1;fillColor=#FFFFFF;strokeColor=#000000;" vertex="1" parent="1">
                    <mxGeometry x="930" y="860" width="60" height="80" as="geometry"/>
                </mxCell>
                <mxCell id="60" value="" style="triangle;whiteSpace=wrap;html=1;fillColor=#FFFFFF;strokeColor=#000000;" vertex="1" parent="1">
                    <mxGeometry x="1040" y="860" width="60" height="80" as="geometry"/>
                </mxCell>
                <mxCell id="62" style="edgeStyle=none;html=1;entryX=0;entryY=0.5;entryDx=0;entryDy=0;strokeColor=#000000;" edge="1" target="63" parent="1">
                    <mxGeometry relative="1" as="geometry">
                        <mxPoint x="1100" y="900" as="sourcePoint"/>
                    </mxGeometry>
                </mxCell>
                <mxCell id="63" value="" style="triangle;whiteSpace=wrap;html=1;fillColor=#FFFFFF;strokeColor=#000000;" vertex="1" parent="1">
                    <mxGeometry x="1150" y="860" width="60" height="80" as="geometry"/>
                </mxCell>
                <mxCell id="64" style="edgeStyle=none;html=1;entryX=0;entryY=0.5;entryDx=0;entryDy=0;strokeColor=#000000;" edge="1" target="65" parent="1">
                    <mxGeometry relative="1" as="geometry">
                        <mxPoint x="1210" y="900" as="sourcePoint"/>
                    </mxGeometry>
                </mxCell>
                <mxCell id="65" value="" style="triangle;whiteSpace=wrap;html=1;fillColor=#FFFFFF;strokeColor=#000000;" vertex="1" parent="1">
                    <mxGeometry x="1260" y="860" width="60" height="80" as="geometry"/>
                </mxCell>
                <mxCell id="71" value="" style="edgeStyle=none;orthogonalLoop=1;jettySize=auto;html=1;strokeColor=#000000;exitX=1;exitY=0.25;exitDx=0;exitDy=0;entryX=0;entryY=0.5;entryDx=0;entryDy=0;" edge="1" parent="1" source="66" target="58">
                    <mxGeometry width="100" relative="1" as="geometry">
                        <mxPoint x="820" y="910" as="sourcePoint"/>
                        <mxPoint x="900" y="890" as="targetPoint"/>
                        <Array as="points"/>
                    </mxGeometry>
                </mxCell>
                <mxCell id="77" style="edgeStyle=none;html=1;entryX=0;entryY=0.5;entryDx=0;entryDy=0;strokeColor=#000000;fontColor=#000000;" edge="1" parent="1" source="76" target="75">
                    <mxGeometry relative="1" as="geometry"/>
                </mxCell>
                <mxCell id="76" value="Hit" style="text;html=1;align=center;verticalAlign=middle;resizable=0;points=[];autosize=1;strokeColor=none;fillColor=none;fontColor=#000000;" vertex="1" parent="1">
                    <mxGeometry x="610" y="948.33" width="40" height="30" as="geometry"/>
                </mxCell>
                <mxCell id="78" value="" style="group" vertex="1" connectable="0" parent="1">
                    <mxGeometry x="695" y="865" width="105" height="125" as="geometry"/>
                </mxCell>
                <mxCell id="66" value="" style="whiteSpace=wrap;html=1;labelBackgroundColor=#FFFFFF;strokeColor=#000000;fillColor=#FFFFFF;" vertex="1" parent="78">
                    <mxGeometry x="5" y="5" width="100" height="120" as="geometry"/>
                </mxCell>
                <mxCell id="72" value="&lt;font color=&quot;#000000&quot;&gt;Q&lt;/font&gt;" style="text;html=1;align=center;verticalAlign=middle;resizable=0;points=[];autosize=1;strokeColor=none;fillColor=none;" vertex="1" parent="78">
                    <mxGeometry x="75" y="15" width="30" height="30" as="geometry"/>
                </mxCell>
                <mxCell id="73" value="&lt;font color=&quot;#000000&quot;&gt;Rst&lt;/font&gt;" style="text;html=1;align=center;verticalAlign=middle;resizable=0;points=[];autosize=1;strokeColor=none;fillColor=none;" vertex="1" parent="78">
                    <mxGeometry x="35" width="40" height="30" as="geometry"/>
                </mxCell>
                <mxCell id="74" value="&lt;font color=&quot;#000000&quot;&gt;D&lt;/font&gt;" style="text;html=1;align=center;verticalAlign=middle;resizable=0;points=[];autosize=1;strokeColor=none;fillColor=none;" vertex="1" parent="78">
                    <mxGeometry y="16" width="30" height="30" as="geometry"/>
                </mxCell>
                <mxCell id="75" value="" style="triangle;whiteSpace=wrap;html=1;fillColor=#CCCCCC;strokeColor=#000000;" vertex="1" parent="78">
                    <mxGeometry x="5" y="85" width="20" height="26.67" as="geometry"/>
                </mxCell>
                <mxCell id="85" value="" style="edgeStyle=none;orthogonalLoop=1;jettySize=auto;html=1;strokeColor=#000000;fontColor=#000000;exitX=0.996;exitY=0.425;exitDx=0;exitDy=0;exitPerimeter=0;" edge="1" parent="1" source="88">
                    <mxGeometry width="100" relative="1" as="geometry">
                        <mxPoint x="1240" y="990" as="sourcePoint"/>
                        <mxPoint x="750" y="860" as="targetPoint"/>
                        <Array as="points">
                            <mxPoint x="1190" y="1028"/>
                            <mxPoint x="1190" y="980"/>
                            <mxPoint x="880" y="980"/>
                            <mxPoint x="880" y="810"/>
                            <mxPoint x="750" y="810"/>
                        </Array>
                    </mxGeometry>
                </mxCell>
                <mxCell id="86" value="" style="group" vertex="1" connectable="0" parent="1">
                    <mxGeometry x="1040" y="1000" width="105" height="130" as="geometry"/>
                </mxCell>
                <mxCell id="87" value="" style="whiteSpace=wrap;html=1;labelBackgroundColor=#FFFFFF;strokeColor=#000000;fillColor=#FFFFFF;" vertex="1" parent="86">
                    <mxGeometry x="5" y="5" width="100" height="120" as="geometry"/>
                </mxCell>
                <mxCell id="88" value="&lt;font color=&quot;#000000&quot;&gt;Q&lt;/font&gt;" style="text;html=1;align=center;verticalAlign=middle;resizable=0;points=[];autosize=1;strokeColor=none;fillColor=none;" vertex="1" parent="86">
                    <mxGeometry x="75" y="15" width="30" height="30" as="geometry"/>
                </mxCell>
                <mxCell id="89" value="&lt;font color=&quot;#000000&quot;&gt;Rst&lt;/font&gt;" style="text;html=1;align=center;verticalAlign=middle;resizable=0;points=[];autosize=1;strokeColor=none;fillColor=none;" vertex="1" parent="86">
                    <mxGeometry x="35" width="40" height="30" as="geometry"/>
                </mxCell>
                <mxCell id="90" value="&lt;font color=&quot;#000000&quot;&gt;D&lt;/font&gt;" style="text;html=1;align=center;verticalAlign=middle;resizable=0;points=[];autosize=1;strokeColor=none;fillColor=none;" vertex="1" parent="86">
                    <mxGeometry y="16" width="30" height="30" as="geometry"/>
                </mxCell>
                <mxCell id="91" value="" style="triangle;whiteSpace=wrap;html=1;fillColor=#CCCCCC;strokeColor=#000000;" vertex="1" parent="86">
                    <mxGeometry x="5" y="85" width="20" height="26.67" as="geometry"/>
                </mxCell>
                <mxCell id="93" value="en" style="text;html=1;align=center;verticalAlign=middle;resizable=0;points=[];autosize=1;strokeColor=none;fillColor=none;fontColor=#000000;" vertex="1" parent="86">
                    <mxGeometry x="32.5" y="100" width="40" height="30" as="geometry"/>
                </mxCell>
                <mxCell id="92" value="" style="edgeStyle=none;orthogonalLoop=1;jettySize=auto;html=1;strokeColor=#000000;fontColor=#000000;" edge="1" parent="1" target="90">
                    <mxGeometry width="100" relative="1" as="geometry">
                        <mxPoint x="1010" y="900" as="sourcePoint"/>
                        <mxPoint x="1020" y="1030" as="targetPoint"/>
                        <Array as="points">
                            <mxPoint x="1010" y="1030"/>
                        </Array>
                    </mxGeometry>
                </mxCell>
            </root>
        </mxGraphModel>
    </diagram>
</mxfile>